/* XPM */
static char * Bullet_001_xpm[] = {
"43 35 200 2",
"  	c None",
". 	c #7A0000",
"+ 	c #BA0000",
"@ 	c #800000",
"# 	c #B10000",
"$ 	c #880000",
"% 	c #B70000",
"& 	c #750000",
"* 	c #780000",
"= 	c #970000",
"- 	c #CD0000",
"; 	c #CF0000",
"> 	c #C30000",
", 	c #BC0000",
"' 	c #7C0000",
") 	c #940000",
"! 	c #960000",
"~ 	c #860000",
"{ 	c #6E0000",
"] 	c #720000",
"^ 	c #A70000",
"/ 	c #C90000",
"( 	c #FB0000",
"_ 	c #FE0000",
": 	c #F90000",
"< 	c #EC0000",
"[ 	c #DC0000",
"} 	c #BB0000",
"| 	c #9B0000",
"1 	c #B80000",
"2 	c #B90000",
"3 	c #A40000",
"4 	c #8C0000",
"5 	c #B50000",
"6 	c #D80000",
"7 	c #FF0000",
"8 	c #F50000",
"9 	c #DE0000",
"0 	c #E70000",
"a 	c #FC0000",
"b 	c #E50000",
"c 	c #770000",
"d 	c #730000",
"e 	c #A50000",
"f 	c #C50000",
"g 	c #BF0000",
"h 	c #F40000",
"i 	c #FA0000",
"j 	c #D90000",
"k 	c #790000",
"l 	c #6B0000",
"m 	c #710000",
"n 	c #690000",
"o 	c #BE0000",
"p 	c #ED0000",
"q 	c #F30000",
"r 	c #DF0000",
"s 	c #D70000",
"t 	c #FF0E02",
"u 	c #FF0C02",
"v 	c #E90000",
"w 	c #9F0000",
"x 	c #910000",
"y 	c #8F0000",
"z 	c #8B0000",
"A 	c #7F0000",
"B 	c #890202",
"C 	c #B70909",
"D 	c #C00000",
"E 	c #F10000",
"F 	c #FF1E06",
"G 	c #FF862C",
"H 	c #FF7224",
"I 	c #FF5118",
"J 	c #FF1804",
"K 	c #EE0000",
"L 	c #850000",
"M 	c #AA0000",
"N 	c #BA0202",
"O 	c #C10000",
"P 	c #FF4213",
"Q 	c #FF9531",
"R 	c #FF9933",
"S 	c #FF9130",
"T 	c #FF6C22",
"U 	c #FF2608",
"V 	c #7B0000",
"W 	c #950000",
"X 	c #CE0000",
"Y 	c #FD0000",
"Z 	c #FF0100",
"` 	c #FF4414",
" .	c #FF4A16",
"..	c #FF631F",
"+.	c #FF9030",
"@.	c #FF5219",
"#.	c #FE0100",
"$.	c #820000",
"%.	c #A60000",
"&.	c #EB0000",
"*.	c #FF1704",
"=.	c #FF7F2A",
"-.	c #FF9331",
";.	c #FF9833",
">.	c #FF9732",
",.	c #FF5E1D",
"'.	c #F70100",
").	c #6A0000",
"!.	c #FF2207",
"~.	c #FF8C2E",
"{.	c #FF9632",
"].	c #FF4614",
"^.	c #670000",
"/.	c #660000",
"(.	c #9D0000",
"_.	c #E20000",
":.	c #FF2307",
"<.	c #FF611E",
"[.	c #FF8A2E",
"}.	c #FF832B",
"|.	c #EC0701",
"1.	c #AE0000",
"2.	c #CA0000",
"3.	c #FF591C",
"4.	c #F8350E",
"5.	c #700000",
"6.	c #980000",
"7.	c #FF320C",
"8.	c #FF802A",
"9.	c #FB5018",
"0.	c #760000",
"a.	c #7E0000",
"b.	c #A90000",
"c.	c #C70000",
"d.	c #F00000",
"e.	c #FF4915",
"f.	c #FC5419",
"g.	c #A20000",
"h.	c #FF0401",
"i.	c #FF6621",
"j.	c #FA3F12",
"k.	c #990000",
"l.	c #B60000",
"m.	c #FF5D1C",
"n.	c #FF852C",
"o.	c #F31303",
"p.	c #740000",
"q.	c #B30000",
"r.	c #FF2B0A",
"s.	c #FF621F",
"t.	c #E60000",
"u.	c #900000",
"v.	c #B00000",
"w.	c #FF350E",
"x.	c #FF8B2E",
"y.	c #FF812A",
"z.	c #FE1303",
"A.	c #D30000",
"B.	c #890000",
"C.	c #AB0000",
"D.	c #CC0000",
"E.	c #FF0F03",
"F.	c #FF601E",
"G.	c #FF6520",
"H.	c #FF8F2F",
"I.	c #FF2909",
"J.	c #AC0000",
"K.	c #B40000",
"L.	c #FF0801",
"M.	c #FF7325",
"N.	c #FF9532",
"O.	c #FF7024",
"P.	c #FF1D05",
"Q.	c #6D0000",
"R.	c #B00202",
"S.	c #D10000",
"T.	c #FF0200",
"U.	c #FF6620",
"V.	c #FF872D",
"W.	c #FF370E",
"X.	c #DD0000",
"Y.	c #7D0000",
"Z.	c #D60000",
"`.	c #FF1504",
" +	c #CB0000",
".+	c #C60000",
"++	c #C20000",
"@+	c #E30000",
"#+	c #A00000",
"$+	c #840000",
"%+	c #AD0000",
"&+	c #DB0000",
"*+	c #A80000",
"=+	c #9C0000",
"-+	c #8D0000",
";+	c #BD0000",
">+	c #D50000",
",+	c #830000",
"'+	c #8A0000",
")+	c #920000",
"                    . .               + +                                             ",
"                    . . . . . . .     + + + + + + +                                   ",
"                      . . . . . . . . @ # + + + + + + + +                             ",
"                        . . . . . . . . $ % + + + + + + + + +                         ",
"                          . . & & * . . . = + + - ; > , + + + + +                     ",
"                          . ' ) ! ~ & { ] * ^ + / ( _ : < [ / } + + +                 ",
"              . . . . .     . ' | 1 2 # 3 ) 4 5 + 6 _ 7 7 7 _ 8 9 > + +               ",
"                  . . . . . . . . ~ # + + + + + + } 0 7 7 7 7 7 7 a b > + +           ",
"                    . . . . c * . * d e + + + f f } g h 7 7 7 7 7 7 7 i j } 2         ",
"                      k . . * l l m ] n ) 1 + o p q r s a 7 t u 7 7 7 7 7 v o         ",
"                        w x y z A . * & ] B C + D E 7 _ 7 7 F G G H I J 7 7 K g       ",
"    . . . . . . . . L M + + + + + + 2 2 1 1 N + + O q 7 7 7 7 P Q R R S T U 7 v }     ",
"        . . . . . . . V W 5 + + + + + + + + + + + + X Y 7 Z `  ...R R R R +.@.#.s     ",
"          . . . . . . . . $.%.2 + + + + + + + , X &.Y 7 7 7 *.=.-.;.R R R R >.,.'.O   ",
"              . . . . . k ] ).~ # + + + + o 6 h 7 7 7 7 7 7 7 !.~.R R R R R R {.].j   ",
"                . . . . k { ^./.{ (.1 + + o _.Y 7 7 7 7 7 :.<.[.;.R R R R R R R }.|.  ",
"                    . . . . & )././.@ 1.+ + + 2.E 7 7 7 Z 3.-.R R R R R R R R R {.4.  ",
"                      k . . . k 5././.l 6.2 + + , [ _ 7 7 7 7.8.R R R R R R R R R 9.  ",
"                      . . . . 0.)./.^.a.b.+ + + c.d.7 7 7 Z e.~.R R R R R R R R R f.  ",
"                  . . . . k m ^./.& g.2 + + , j ( 7 7 7 h.i.>.R R R R R R R R R ;.j.  ",
"              . . . . . c l /.{ k.l.+ + + > p 7 7 7 7 7 7 :.m.n.>.R R R R R R R ~.o.  ",
"            . . . . . . * p.y q.+ + + + + D j q _ 7 7 7 7 7 7 r.~.R R R R R R R s.t.  ",
"        . . . . . . . V u.v.+ + + + + + + + + } 2.b i 7 7 7 w.x.R R R R R R R y.z.A.  ",
"    . . . . . . . . B.C.+ + + + + + + + + + + + + + D.a 7 E.F.G.F.H.R R R R n.I.K     ",
"  . . . . . . . . y b.J.1.v.q.5 K.5 l.% 1 2 + + + D.: 7 7 7 7 L.M.R R R N.O.P.a X     ",
"                          . . d n l Q.5.d A R.+ S.( 7 7 7 7 T.U.N.-.V.T W.7 7 X.      ",
"                        . . ] ^./.^.^.^.Y.v.+ Z.a _ Y ( a 7 T.U I.`.7 7 7 7 b ,       ",
"                      . . k & 0.c * k u.l.+ , X  +.+++O p 7 7 7 7 7 7 7 _ @+,         ",
"                  . . . . . . . . Y.#+2 + + + + + + , 0 7 7 7 7 7 7 7 i Z.+           ",
"                . . . . . . . . $+%++ + + + + + 2 } @+7 7 7 7 7 7 a b > +             ",
"              . . . . . .     x K.+ + 1 # 3 = x v.X.7 7 7 7 a d.&+> + 2               ",
"            . .             (.# *+=+-+A c k L v.;+>+j 6 A.2.g + + +                   ",
"                          a.,+V . . . . . '+q.+ + + + + + + + +                       ",
"                        . . . . . . . . )+l.+ + + + + + + +                           ",
"                      . . . . . .       + + + + + +                                   "};
