/* XPM */
static char * Bullet_004_xpm[] = {
"43 35 221 2",
"  	c None",
". 	c #7A0000",
"+ 	c #BA0000",
"@ 	c #7D0000",
"# 	c #900000",
"$ 	c #880000",
"% 	c #7F0000",
"& 	c #B00000",
"* 	c #8A0000",
"= 	c #B20000",
"- 	c #B60000",
"; 	c #AE0000",
"> 	c #790000",
", 	c #700000",
"' 	c #7B0000",
") 	c #AA0000",
"! 	c #BF0000",
"~ 	c #E10000",
"{ 	c #D70000",
"] 	c #CA0000",
"^ 	c #BE0000",
"/ 	c #8C0000",
"( 	c #840000",
"_ 	c #810000",
": 	c #6F0000",
"< 	c #690000",
"[ 	c #6B0000",
"} 	c #9D0000",
"| 	c #BB0000",
"1 	c #C30000",
"2 	c #BC0000",
"3 	c #F30000",
"4 	c #FF0000",
"5 	c #FE0000",
"6 	c #F90000",
"7 	c #EB0000",
"8 	c #D50000",
"9 	c #830000",
"0 	c #A60000",
"a 	c #B80000",
"b 	c #B90000",
"c 	c #B40000",
"d 	c #B10000",
"e 	c #AB0000",
"f 	c #D90000",
"g 	c #F50000",
"h 	c #ED0000",
"i 	c #FA0000",
"j 	c #C20000",
"k 	c #910000",
"l 	c #CF0000",
"m 	c #760000",
"n 	c #6E0000",
"o 	c #710000",
"p 	c #780000",
"q 	c #CC0000",
"r 	c #E60000",
"s 	c #E50000",
"t 	c #DD0000",
"u 	c #E00000",
"v 	c #FD0000",
"w 	c #FF5B1C",
"x 	c #FF5D1D",
"y 	c #FF3E11",
"z 	c #FF0E03",
"A 	c #E90000",
"B 	c #770000",
"C 	c #6C0000",
"D 	c #660000",
"E 	c #7E0000",
"F 	c #AC0000",
"G 	c #C90000",
"H 	c #F10000",
"I 	c #FF3E12",
"J 	c #FF591C",
"K 	c #FF7526",
"L 	c #FF9933",
"M 	c #FF9833",
"N 	c #FF8E2F",
"O 	c #FF6F24",
"P 	c #FF360E",
"Q 	c #7C0000",
"R 	c #820000",
"S 	c #DB0000",
"T 	c #FF0301",
"U 	c #FF0902",
"V 	c #FF0401",
"W 	c #FF0A02",
"X 	c #FF6620",
"Y 	c #FF9632",
"Z 	c #FF1B05",
"` 	c #E30000",
" .	c #860000",
"..	c #A90000",
"+.	c #B70000",
"@.	c #C70000",
"#.	c #EE0000",
"$.	c #FF0F03",
"%.	c #FF5E1E",
"&.	c #FF862C",
"*.	c #FF852C",
"=.	c #FF822B",
"-.	c #FF9230",
";.	c #FE2708",
">.	c #CB0000",
",.	c #E70000",
"'.	c #F00000",
").	c #F20000",
"!.	c #F70000",
"~.	c #FF0100",
"{.	c #FF4213",
"].	c #FF812A",
"^.	c #EC0D02",
"/.	c #6D0000",
"(.	c #670000",
"_.	c #B30000",
":.	c #EA0000",
"<.	c #FF0D02",
"[.	c #FF3D11",
"}.	c #FF4514",
"|.	c #FF4916",
"1.	c #FF4E18",
"2.	c #FF561B",
"3.	c #FF882D",
"4.	c #FD5C1C",
"5.	c #980000",
"6.	c #CD0000",
"7.	c #FF0601",
"8.	c #FF4C17",
"9.	c #DE0601",
"0.	c #740000",
"a.	c #6A0000",
"b.	c #750000",
"c.	c #9F0000",
"d.	c #D30000",
"e.	c #FF1002",
"f.	c #FF8D2E",
"g.	c #FF9732",
"h.	c #E72307",
"i.	c #720000",
"j.	c #A70000",
"k.	c #C60000",
"l.	c #F60000",
"m.	c #FF2308",
"n.	c #FF842B",
"o.	c #EA3D11",
"p.	c #680000",
"q.	c #940000",
"r.	c #B50000",
"s.	c #DF0000",
"t.	c #FF4E17",
"u.	c #EA3B10",
"v.	c #730000",
"w.	c #8D0000",
"x.	c #BD0000",
"y.	c #D80000",
"z.	c #F80000",
"A.	c #FF3C11",
"B.	c #FF7E29",
"C.	c #FF9532",
"D.	c #E71E06",
"E.	c #850000",
"F.	c #AD0000",
"G.	c #D20000",
"H.	c #F40000",
"I.	c #FF2E0B",
"J.	c #FF360F",
"K.	c #FF3A10",
"L.	c #FF5219",
"M.	c #FF9431",
"N.	c #FF802A",
"O.	c #DC0301",
"P.	c #CE0000",
"Q.	c #D00000",
"R.	c #D40000",
"S.	c #FF3B10",
"T.	c #FF8D2F",
"U.	c #FC4D16",
"V.	c #920000",
"W.	c #930000",
"X.	c #8E0000",
"Y.	c #9B0000",
"Z.	c #E80000",
"`.	c #FF4313",
" +	c #FF6D23",
".+	c #FF8A2E",
"++	c #FF7425",
"@+	c #E90301",
"#+	c #FF0200",
"$+	c #FF2D0B",
"%+	c #FF1804",
"&+	c #FF5A1C",
"*+	c #FF7B28",
"=+	c #FC1503",
"-+	c #EC0000",
";+	c #FC0000",
">+	c #FF892D",
",+	c #FF7827",
"'+	c #FF0F02",
")+	c #C00000",
"!+	c #C40000",
"~+	c #FF4113",
"{+	c #FF1D06",
"]+	c #FF7C28",
"^+	c #FF6B22",
"/+	c #FF300C",
"(+	c #960000",
"_+	c #A30000",
":+	c #FF4815",
"<+	c #FF2C0B",
"[+	c #FF0701",
"}+	c #970000",
"|+	c #890000",
"1+	c #8F0000",
"2+	c #FB0000",
"3+	c #DC0000",
"4+	c #C50000",
"5+	c #A80000",
"6+	c #D10000",
"7+	c #9E0000",
"8+	c #9C0000",
"                                                                                      ",
"                                                                                      ",
"                                . . . .         + + + +                               ",
"                                . . . @ # $ % . & + + + + + + +                       ",
"                          . . . . . . . * = - ; ; + + + + + + + + +                   ",
"                            > . . . . > , ' ) + + + + ! ~ { ] ^ + + + +               ",
"                              / $ ( _ % : < [ } | 1 2 | 3 4 5 6 7 8 ! + +             ",
"                . . . . . . . 9 0 a b a c d ; e a f g h 3 4 4 4 4 4 i ~ j +           ",
"                    . . . . . . ' k = + + + + + + + l 6 4 4 4 4 4 4 4 4 i f |         ",
"                      . . m n n , o p } a q r s ~ t f u v 4 4 4 w x y z 4 4 A ^       ",
"                          . B C D D D D E F G H 4 4 4 4 4 4 I J K L M N O P 4 h ^     ",
"                            9 9 % > Q % R $ F 2 S i 4 T U V W X Y L L L L Y O Z `     ",
"        > . . . . . .  ...+.a a b b b + + + + | 2 @.#.$.%.&.*.=.-.L L L L L L *.;.l   ",
"            . . . . m n n $ ; + + + >.,.#.'.).3 g !.6 4 ~.{.&.L L L L L L L L L ].^.  ",
"                . . . B /.(.[ # _.+ + @.:.5 4 4 4 <.[.}.|.1.2.3.L L L L L L L L L 4.  ",
"                  . . . . m C D : 5.- + | 6.'.5 4 7.8.&.L L L L L L L L L L L L L &.9.",
"                      . . . . 0.a.D b.c.a + 2 d.g 4 4 e.J f.L L L L L L L L L L L g.h.",
"                        . . . . B a.D i.j.+ + + k.l.4 4 4 m.n.L L L L L L L L L L M o.",
"                      . . . > o p./.q.r.+ + ! s.i 4 4 7.t.3.L L L L L L L L L L L M u.",
"                  . . . > v.< a.w.d + + x.y.z.4 4 ~.A.B.Y M M L L L L L L L L L L C.D.",
"              . . . . b.a.p.E.F.+ + | G.H.4 4 4 4 T I.J.K.y L.M.L L L L L L L L L N.O.",
"          . . . . . > m  ...b + + + ! P.Q.G.d.R.8 y.l.4 4 S.T.L L L L L L L L L M U.  ",
"                          c.V.W.q.X.w.X.# Y.b + x.Z.4 4 `.3.=. +.+L L L L L L L ++@+  ",
"                          . . > /.D D D > d + ! h 4 4 #+$+%+4 &+M L L L L L L *+=+G   ",
"                        . . p C D D p.R c + j H 4 v !.-+;+4 y >+,+M L L L M.X '+t     ",
"                      . . > : , 0.B k +.+ )+` u G.!+2 t 4 #+~+{+]+M Y .+^+/+4 Z.2     ",
"                    . . . . . . . (+a + + a & _+r.+ l v 4 4 4 U :+{.<+[+4 4 ,.x.      ",
"                  . . .         Y.= 0 }+|+v.p.1+b !+z.;+#.4 4 4 4 4 4 4 2+S |         ",
"                              E E.o , B : D E +.x.A s.!+A 4 4 4 4 4 ;+Z.k.+           ",
"                            . . > > . m (.o d + )+! + q 5 4 5 i '.3+4++ +             ",
"                          > . . . . . B m 5++ - _++.+ @.6+P.@.! + + + +               ",
"                          .       . . . 7+= Y._ 8++ + + + + + + + +                   ",
"                                . . . 9 W.@ . ( - + + + + + + +                       ",
"                                . . . . .     b + + + + +                             ",
"                                                                                      "};
