/* XPM */
static char * Bullet_003_xpm[] = {
"43 35 207 2",
"  	c None",
". 	c #7A0000",
"+ 	c #BA0000",
"@ 	c #B90000",
"# 	c #820000",
"$ 	c #A80000",
"% 	c #7B0000",
"& 	c #970000",
"* 	c #B60000",
"= 	c #7C0000",
"- 	c #7F0000",
"; 	c #840000",
"> 	c #8A0000",
", 	c #900000",
"' 	c #960000",
") 	c #9C0000",
"! 	c #A10000",
"~ 	c #A70000",
"{ 	c #B30000",
"] 	c #9E0000",
"^ 	c #B00000",
"/ 	c #BE0000",
"( 	c #DD0000",
"_ 	c #E30000",
": 	c #D70000",
"< 	c #C90000",
"[ 	c #BD0000",
"} 	c #890000",
"| 	c #E20000",
"1 	c #FD0000",
"2 	c #FF0000",
"3 	c #FA0000",
"4 	c #EA0000",
"5 	c #D60000",
"6 	c #C00000",
"7 	c #990000",
"8 	c #D00000",
"9 	c #F80000",
"0 	c #FB0000",
"a 	c #E50000",
"b 	c #C70000",
"c 	c #7D0000",
"d 	c #910000",
"e 	c #9D0000",
"f 	c #A50000",
"g 	c #AA0000",
"h 	c #AE0000",
"i 	c #B10000",
"j 	c #CB0000",
"k 	c #DC0000",
"l 	c #E90000",
"m 	c #F00000",
"n 	c #F50000",
"o 	c #FC0000",
"p 	c #E40000",
"q 	c #C10000",
"r 	c #B20000",
"s 	c #BC0000",
"t 	c #FE0000",
"u 	c #FF1D06",
"v 	c #FF1003",
"w 	c #F70000",
"x 	c #CE0000",
"y 	c #B80000",
"z 	c #BB0000",
"A 	c #C20000",
"B 	c #C80000",
"C 	c #DA0000",
"D 	c #F30000",
"E 	c #FF2508",
"F 	c #FF7726",
"G 	c #FF852C",
"H 	c #FF7024",
"I 	c #FF4A16",
"J 	c #FF0D02",
"K 	c #D50000",
"L 	c #740000",
"M 	c #6B0000",
"N 	c #680000",
"O 	c #670000",
"P 	c #780000",
"Q 	c #9B0000",
"R 	c #B40000",
"S 	c #CA0000",
"T 	c #F90000",
"U 	c #FF0701",
"V 	c #FF2709",
"W 	c #FF3D10",
"X 	c #FF812A",
"Y 	c #FF9933",
"Z 	c #FF8D2F",
"` 	c #FF601E",
" .	c #FF1303",
"..	c #D10000",
"+.	c #790000",
"@.	c #730000",
"#.	c #660000",
"$.	c #6E0000",
"%.	c #CF0000",
"&.	c #EC0000",
"*.	c #FF0902",
"=.	c #FF9030",
"-.	c #FF872D",
";.	c #FF390F",
">.	c #C50000",
",.	c #8F0000",
"'.	c #AB0000",
").	c #E10000",
"!.	c #FF2207",
"~.	c #FF5C1D",
"{.	c #FF6B22",
"].	c #FF7426",
"^.	c #FF9632",
"/.	c #FF9130",
"(.	c #FF3D11",
"_.	c #8E0000",
":.	c #A60000",
"<.	c #B70000",
"[.	c #C40000",
"}.	c #DE0000",
"|.	c #FF2B0A",
"1.	c #FF6720",
"2.	c #FF8C2E",
"3.	c #FF9833",
"4.	c #FF892D",
"5.	c #FB1704",
"6.	c #850000",
"7.	c #D40000",
"8.	c #EE0000",
"9.	c #FF4815",
"0.	c #FF8A2E",
"a.	c #FF5D1D",
"b.	c #940000",
"c.	c #AC0000",
"d.	c #FF2E0B",
"e.	c #FF6620",
"f.	c #FF7D29",
"g.	c #E80100",
"h.	c #860000",
"i.	c #C60000",
"j.	c #E60000",
"k.	c #FF340E",
"l.	c #FF7B28",
"m.	c #FF9331",
"n.	c #FF882D",
"o.	c #EC0401",
"p.	c #980000",
"q.	c #E00000",
"r.	c #FF5118",
"s.	c #FF7626",
"t.	c #FF9532",
"u.	c #FF842C",
"v.	c #EB0200",
"w.	c #800000",
"x.	c #920000",
"y.	c #DB0000",
"z.	c #FF2809",
"A.	c #FF7425",
"B.	c #FF6F24",
"C.	c #6D0000",
"D.	c #810000",
"E.	c #AF0000",
"F.	c #FF3C10",
"G.	c #770000",
"H.	c #6C0000",
"I.	c #FF0100",
"J.	c #FF3A10",
"K.	c #FF4C16",
"L.	c #FF3B10",
"M.	c #FF2E0A",
"N.	c #FF6420",
"O.	c #F70200",
"P.	c #6F0000",
"Q.	c #FF1604",
"R.	c #DF0000",
"S.	c #FF2107",
"T.	c #FF7526",
"U.	c #FF6D23",
"V.	c #FF1403",
"W.	c #F40000",
"X.	c #BF0000",
"Y.	c #EF0000",
"Z.	c #FF0B02",
"`.	c #FF6E23",
" +	c #FF9832",
".+	c #FF9732",
"++	c #FF8F2F",
"@+	c #FF7225",
"#+	c #A40000",
"$+	c #880000",
"%+	c #E80000",
"&+	c #FF1A05",
"*+	c #FF4714",
"=+	c #FF4413",
"-+	c #FF350D",
";+	c #D20000",
">+	c #ED0000",
",+	c #C30000",
"'+	c #EB0000",
")+	c #CD0000",
"!+	c #A30000",
"~+	c #D30000",
"{+	c #F60000",
"]+	c #A20000",
"^+	c #950000",
"/+	c #7E0000",
"(+	c #A00000",
"                          .             +                                             ",
"                            . . . . .     @ + + + +                                   ",
"                              . . . . . . # $ + + + + + +                             ",
"                                . . . . . . % & * + + + + + + +                       ",
"                            . = - ; > , ' ) ! ~ { + + + + + + + + +                   ",
"                  . . . . . . ; ] ^ @ + + + + + + / ( _ : < [ + + + + +               ",
"                        . . . . . % } ] ^ @ + + + + [ | 1 2 3 4 5 6 + + +             ",
"                              . . . . . = ; 7 { + + + + 8 9 2 2 2 0 a b + +           ",
"                . . . . c d 7 e ! f g h i * @ j k _ l m n o 2 2 2 2 2 1 p q +         ",
"              . . . . . . # ) r + + + + + + + s j | n t 2 2 2 u v 2 2 2 2 w x +       ",
"                    . . . . . = d g y + + + z z / A B C D 2 2 E F G H I J 2 1 K +     ",
"                        . . L M N O P Q R S 4 T o 1 t 2 2 U V W I X Y Y Z `  .1 ..    ",
"                            . +.@.M #.#.$.Q z %.&.1 2 2 2 *.I F =.Y Y Y Y Y -.;.T >.  ",
"                          . . . . . c ,.'.@ + + + >.).T !.~.{.].X ^.Y Y Y Y Y /.(.a   ",
"                    . . . . . = _.:.<.+ + + + + + [.}.w 2 |.1.2.3.Y Y Y Y Y Y Y 4.5.  ",
"              . . . . . . 6.] r + + + + + + / 7.8.1 2 2 2 2 U 9.0.Y Y Y Y Y Y Y Y a.}.",
"          . . . . . - b.c.@ + + + + + z S a 3 2 2 2 2 2 d.e.0.3.Y Y Y Y Y Y Y Y Y f.g.",
"        +.. . . . . h.] ^ y + + + + + i.j.9 t 2 2 2 2 k.l.m.Y Y Y Y Y Y Y Y Y Y Y n.o.",
"                . . . . % 6.p.'.<.+ + + + s j q.D 1 2 2 2 !.r.s.t.Y Y Y Y Y Y Y Y u.v.",
"                      . . . . . w.x.:.R @ + + + z >.y.3 2 2 z.A.^.Y Y Y Y Y Y Y Y B.p ",
"                            . . . . L C.D.E.+ + + j m 2  .` =.^.m.Y Y Y Y Y Y Y ^.F.5 ",
"                          . . . G.H.O w.c.+ + A j.1 2 I.J.K.L.M.N.3.Y Y Y Y Y Y H O.  ",
"                      . . . +.P.O @.! @ + [ y.3 2 2 2 1 1 2 2 r.^.3.Y Y Y Y Y f.Q.(   ",
"                  . . . . G.P.L ' * + + q R.a ( : 8 < S w 2 S.{.a.T.Y Y Y ^.U.V.W.X.  ",
"                . . . . . % x.r + + + + + + + + + + / Y.2 2 2 Z.`. +.+++@+L.2 0 j     ",
"            . . . . . . _.'.@ * i '.#+p., $+d @ + z %+2 2 2 2 &+*+=+-+Z.2 2 o ;++     ",
"                              % . +.H.#.N P r + z q.t 3 m >+2 2 2 2 2 2 2 T %.+       ",
"                            . . . G.L G.- E.+ + q 7.B [ x T 2 2 2 2 2 t 4 ,++         ",
"                          . . . . . . c g + + + + + + K o 2 2 2 2 o '+)++ +           ",
"                        . . . . . . % !++ + + + @ + ~+9 T {+Y.p K A + + +             ",
"                      . . . . .   . ) @ <.h ]+' ] @ + + + + + + + + + +               ",
"                                . w.^+} /+. % 7 @ + + + + + + + + + +                 ",
"                              . . . . . . = (++ + + + + + + + + +                     ",
"                            . . . . . . /+~ + + + + + + + + +                         ",
"                          +.. . . . . c '.+ + + + + +                                 "};
