/* XPM */
static char * Muzzle_003_xpm[] = {
"5 60 4 1",
" 	c None",
".	c #FF0000",
"+	c #BA0000",
"@	c #B90000",
"     ",
"     ",
"     ",
"     ",
"     ",
"     ",
"     ",
"     ",
" ..  ",
"     ",
"     ",
"     ",
"     ",
"     ",
"     ",
"     ",
"  +  ",
"  ++ ",
"  ++ ",
"   @ ",
"     ",
"     ",
"     ",
"     ",
"     ",
"     ",
"     ",
"     ",
"     ",
"     ",
"     ",
"     ",
"     ",
"     ",
"     ",
"     ",
"     ",
"     ",
"     ",
"     ",
"     ",
"   + ",
"  ++ ",
"  ++ ",
"  +  ",
"     ",
"     ",
"     ",
"     ",
"     ",
" ..  ",
"     ",
"     ",
"     ",
"     ",
"     ",
"     ",
"     ",
"     ",
"     "};
