/* XPM */
static char * Muzzle_003_xpm[] = {
"15 180 4 1",
" 	c None",
".	c #FF0000",
"+	c #BA0000",
"@	c #B90000",
"               ",
"               ",
"               ",
"               ",
"               ",
"               ",
"               ",
"               ",
"               ",
"               ",
"               ",
"               ",
"               ",
"               ",
"               ",
"               ",
"               ",
"               ",
"               ",
"               ",
"               ",
"               ",
"               ",
"               ",
"    ....       ",
"   ......      ",
"    ....       ",
"               ",
"               ",
"               ",
"               ",
"               ",
"               ",
"               ",
"               ",
"               ",
"               ",
"               ",
"               ",
"               ",
"               ",
"               ",
"               ",
"               ",
"               ",
"               ",
"               ",
"               ",
"       +       ",
"      +++      ",
"      ++++     ",
"      +++++    ",
"      ++++++   ",
"      ++++++   ",
"      ++++++   ",
"      ++++++   ",
"       +++++   ",
"        +@@@   ",
"         @@@   ",
"          @    ",
"               ",
"               ",
"               ",
"               ",
"               ",
"               ",
"               ",
"               ",
"               ",
"               ",
"               ",
"               ",
"               ",
"               ",
"               ",
"               ",
"               ",
"               ",
"               ",
"               ",
"               ",
"               ",
"               ",
"               ",
"               ",
"               ",
"               ",
"               ",
"               ",
"               ",
"               ",
"               ",
"               ",
"               ",
"               ",
"               ",
"               ",
"               ",
"               ",
"               ",
"               ",
"               ",
"               ",
"               ",
"               ",
"               ",
"               ",
"               ",
"               ",
"               ",
"               ",
"               ",
"               ",
"               ",
"               ",
"               ",
"               ",
"               ",
"               ",
"               ",
"               ",
"               ",
"               ",
"          +    ",
"         +++   ",
"        ++++   ",
"       +++++   ",
"      ++++++   ",
"      ++++++   ",
"      ++++++   ",
"      ++++++   ",
"      +++++    ",
"      ++++     ",
"      +++      ",
"       +       ",
"               ",
"               ",
"               ",
"               ",
"               ",
"               ",
"               ",
"               ",
"               ",
"               ",
"               ",
"               ",
"               ",
"               ",
"               ",
"    ....       ",
"   ......      ",
"    ....       ",
"               ",
"               ",
"               ",
"               ",
"               ",
"               ",
"               ",
"               ",
"               ",
"               ",
"               ",
"               ",
"               ",
"               ",
"               ",
"               ",
"               ",
"               ",
"               ",
"               ",
"               ",
"               ",
"               ",
"               ",
"               ",
"               ",
"               "};
