/* XPM */
static char * Muzzle_002_xpm[] = {
"15 180 3 1",
" 	c None",
".	c #FF0000",
"+	c #BA0000",
"               ",
"               ",
"               ",
"               ",
"               ",
"               ",
"               ",
"               ",
"               ",
"               ",
"               ",
"               ",
"               ",
"               ",
"               ",
"               ",
"               ",
"               ",
"               ",
"               ",
"               ",
"               ",
"               ",
"               ",
"               ",
"               ",
"               ",
"               ",
"               ",
"               ",
"               ",
"               ",
"               ",
"       .       ",
"      ...      ",
"     ....      ",
"    .....      ",
"   ......      ",
"   .......     ",
"   ........    ",
"   .........   ",
"   .........   ",
"   .... ....   ",
"   ...   ...   ",
"    .     .    ",
"               ",
"               ",
"               ",
"               ",
"               ",
"               ",
"               ",
"               ",
"               ",
"               ",
"               ",
"               ",
"       +       ",
"      +++      ",
"      ++++     ",
"      +++++    ",
"      ++++++   ",
"      ++++++   ",
"      ++++++   ",
"      ++++++   ",
"      ++++++   ",
"      ++++++   ",
"      ++++++   ",
"      ++++++   ",
"    ++  ++++   ",
"   +++   +++   ",
"    +     +    ",
"               ",
"               ",
"               ",
"               ",
"               ",
"               ",
"               ",
"               ",
"               ",
"               ",
"               ",
"               ",
"               ",
"               ",
"               ",
"               ",
"               ",
"               ",
"               ",
"               ",
"               ",
"               ",
"               ",
"               ",
"               ",
"               ",
"               ",
"               ",
"               ",
"               ",
"               ",
"               ",
"               ",
"    +++++++    ",
"   +++++++++   ",
"    ++++++++   ",
"     +++++++   ",
"      ++++++   ",
"      ++++++   ",
"      ++++++   ",
"      ++++++   ",
"      ++++++   ",
"      ++++++   ",
"      ++++++   ",
"      +++++    ",
"      ++++     ",
"      +++      ",
"       +       ",
"               ",
"               ",
"               ",
"               ",
"               ",
"               ",
"    .     .    ",
"   ...   ...   ",
"   .... ....   ",
"   .........   ",
"   .........   ",
"   ........    ",
"   .......     ",
"   ......      ",
"    .....      ",
"     ....      ",
"      ...      ",
"       .       ",
"               ",
"               ",
"               ",
"               ",
"               ",
"               ",
"               ",
"               ",
"               ",
"               ",
"               ",
"               ",
"               ",
"               ",
"               ",
"               ",
"               ",
"               ",
"               ",
"               ",
"               ",
"               ",
"               ",
"               ",
"               ",
"               ",
"               ",
"               ",
"               ",
"               ",
"               ",
"               ",
"               ",
"               ",
"               ",
"               ",
"               ",
"               ",
"               ",
"               ",
"               ",
"               "};
