/* XPM */
static char * Muzzle_001_xpm[] = {
"5 60 3 1",
" 	c None",
".	c #FF0000",
"+	c #BA0000",
"     ",
"     ",
"     ",
"     ",
"     ",
"     ",
"     ",
"     ",
"     ",
"     ",
"     ",
"     ",
"     ",
"     ",
"     ",
"  .. ",
"  .. ",
"  .. ",
" .  .",
"     ",
"     ",
"     ",
"     ",
"  ++ ",
"  ++ ",
"  ++ ",
"  +++",
" ++++",
" ++++",
" ++++",
" ++++",
"  +++",
"  ++ ",
"  ++ ",
"  ++ ",
"     ",
"     ",
" .  .",
"  .. ",
"  .. ",
"  .. ",
"     ",
"     ",
"     ",
"     ",
"     ",
"     ",
"     ",
"     ",
"     ",
"     ",
"     ",
"     ",
"     ",
"     ",
"     ",
"     ",
"     ",
"     ",
"     "};
