/* XPM */
static char * TileBas_xpm[] = {
"128 128 87 1",
" 	c None",
".	c #7B4720",
"+	c #79461F",
"@	c #7A461F",
"#	c #6D3E1D",
"$	c #64391B",
"%	c #63391B",
"&	c #653A1B",
"*	c #6F401D",
"=	c #693C1C",
"-	c #73421E",
";	c #77441F",
">	c #78451F",
",	c #6A3D1C",
"'	c #75441E",
")	c #6D3F1D",
"!	c #71411E",
"~	c #72421E",
"{	c #6E3F1D",
"]	c #72411E",
"^	c #74431E",
"/	c #643A1B",
"(	c #75431E",
"_	c #6B3E1C",
":	c #70401D",
"<	c #673B1B",
"[	c #683C1C",
"}	c #663A1B",
"|	c #693D1C",
"1	c #71411D",
"2	c #76441F",
"3	c #77451F",
"4	c #70411D",
"5	c #683B1C",
"6	c #7A4620",
"7	c #663B1B",
"8	c #6C3E1D",
"9	c #6B3D1C",
"0	c #6A3C1C",
"a	c #6C3E1C",
"b	c #79451E",
"c	c #78451E",
"d	c #79451F",
"e	c #673B1C",
"f	c #76441E",
"g	c #6C3D1C",
"h	c #6D3E1C",
"i	c #6F3F1D",
"j	c #74421E",
"k	c #71401D",
"l	c #76431E",
"m	c #623719",
"n	c #603619",
"o	c #65391A",
"p	c #683B1A",
"q	c #5F3618",
"r	c #5E3518",
"s	c #5F3518",
"t	c #693B1B",
"u	c #623819",
"v	c #693C1B",
"w	c #64391A",
"x	c #64381A",
"y	c #6A3C1B",
"z	c #603618",
"A	c #633719",
"B	c #643819",
"C	c #623618",
"D	c #683A1A",
"E	c #653919",
"F	c #613719",
"G	c #63381A",
"H	c #633819",
"I	c #66391A",
"J	c #623718",
"K	c #673A1B",
"L	c #683B1B",
"M	c #673A1A",
"N	c #663919",
"O	c #653A1A",
"P	c #603518",
"Q	c #613619",
"R	c #663A1A",
"S	c #613618",
"T	c #643919",
"U	c #673B1A",
"V	c #613718",
"................................................................................................................................",
"................................................................................................................................",
"................................................................................................................................",
"................................................................................................................................",
".......................................................................................................................+........",
"....................................................................................................................@#$%&*......",
"....................................................................................................................=%%%%%#.....",
".................++................................................................................................-%%%%%%%;....",
"..............>#&%%$,'.............................................................................................)%%%%%%%!....",
".............~$%%%%%%%{............................................................................................)%%%%%%%]....",
"............-%%%%%%%%%%)...........................................................................................^%%%%%%%>....",
"...........+/%%%%%%%%%%%(..........................................................................................._%%%%%*.....",
"...........*%%%%%%%%%%%%,............................................................................................:</[~......",
"...........=%%%%%%%%%%%%$.......................................................................................................",
"...........&%%%%%%%%%%%%%>......................................................................................................",
"...........}%%%%%%%%%%%%%>......................................................................................................",
"...........|%%%%%%%%%%%%$.......................................................................................................",
"...........!%%%%%%%%%%%%_.......................................................................................................",
"...........@}%%%%%%%%%%%;.........................@{[,(.........................................................................",
"............($%%%%%%%%%1..........................,%%%%2........................................................................",
".............(}%%%%%%$!..........................3%%%%%_........................................................................",
"..............@4=&/5{>...........................2%%%%%,................................@3>.....................................",
".................................................6}%%%%!..............................^=%%%$,2..................................",
"..................................................27%%)..............................8%%%%%%%%*.................................",
"....................................................>+..............................8%%%%%%%%%%:................................",
"...................................................................................^%%%%%%%%%%%%3...............................",
"...................................................................................=%%%%%%%%%%%%)...............................",
"..................................................................................@%%%%%%%%%%%%%7...............................",
"..................................................................................3%%%%%%%%%%%%%%...............................",
"..................................................................................>%%%%%%%%%%%%%%...............................",
"...................................................................................$%%%%%%%%%%%%<...............................",
"...................................................................................9%%%%%%%%%%%%{...............................",
"...................................................................................2%%%%%%%%%%%/+...............................",
"....................................................................................*%%%%%%%%%%-................................",
".....................................................................................:%%%%%%%/-.................................",
"......................................................................................>)7%%<*+..................................",
"................................................................................................................................",
"................................................................................................................................",
"................................................................................................................................",
"................................................................................................................................",
"................................................................................................................................",
"................................................................................................................................",
"................................................................................................................................",
"................................................................................................................................",
"................................................................................................................................",
"................................................................................................................................",
"................................................................................................................................",
"................................................................................................................................",
"................................................................................................................................",
"................................................................................................................................",
"................................................................................................................................",
"................................................................................................................................",
"................................................................................................................................",
"................................................................................................................................",
"................................................................................................................................",
"................................................................................................................................",
"................................................................................................................................",
"................................................................................................................................",
"...........................................)$%$0................................................................................",
"..........................................=%%%%%}...............................................................................",
".........................................(%%%%%%%*..............................................................................",
".........................................a%%%%%%%<..............................................................................",
"........................................._%%%%%%%<..............................................................................",
".........................................^%%%%%%%{..............................................................................",
"..........................................<%%%%%$...............................................................................",
"...........................................=%%%<b...............................................................................",
".............................................c..................................................................................",
"................................................................................................................................",
"................................................................................................................................",
"......]_9!@.....................................................................................................................",
"....6,%%%%[@......................................................................................3)9]...............:[!........",
"....:%%%%%%{.....................................................................................;$%%%).............3%%%d.......",
"....[%%%%%%7.....................................................................................a%%%%%d............d$%$@.......",
"....e%%%%%%&.....................................................................................=%%%%%2.............({2........",
"....#%%%%%%,.....................................................................................*%%%%&@........................",
"....>&%%%%$2.....................................................................................@,%%&(.........................",
".....;=%%[2........................................................................................;(@..........................",
".......@@.......................................................................................................................",
"................................................................................................................................",
"................................................................................................................................",
"................................................................................................................................",
"................................................................................................................................",
"................................................................................................................................",
".....................................................................3f@........................................................",
"....................................................................9%%&f.......................................................",
"...................~gh2............................................4%%%%}.......................................................",
"..................^====d.........................>1;...............9%%%%%>......................................................",
"..................*====^.........................g=,...............{%%%%$@......................................................",
"..................]====;.........................#=9...............>&%%%:.......................................................",
"..................@#==1..........................@(+................+:{^........................................................",
"....................d@.................................................................6(;......................................",
".......................................................................................{==^.....................................",
"......................................................................................@===i.....................................",
"....;j>...........................................................:{+..................{==j.....................................",
"...j===2.........................................................;==j..................@(2........@>@................1a:6.......",
"...g==={.....................{_..................................@{h+............................1===k..............-===].......",
"...a===i.....................j].................................................................1=====1.............:===:.......",
"...20=,>.......................................................................................@0=====0@............;===2.......",
"....@;@........................................................................................+=======d.............>->........",
".................................................>^~]-l@........................................0=====06........................",
"..............................................>19======={;......................................~=====].........................",
"...............................6^->.........>i============*@.............@^1!^+..................-,=,-.......+j:*1;.............",
"...............................h===f......@1============<mno;..........@]0=====i3..................@.......>i======:............",
"...........2:){**ph@..........(====h.....29=============qrrro-........(9=========:@......................@1=========1...........",
"..........]=====srrt+.........j====g...@:==============<rrrrm=h2....2#============9;....................29===========;..........",
".........;=====trrru=:d.......+0===]..>a===============vsrrrw===9ii9==,g9g0=========j..................1=============a..........",
".........#======xrq<===1@......;{a]..^0==========,g,yg0=}qrm========0ysrrrsy0========1...............dh===============-..>6.....",
"........(========v======9;.........@:==========9prrrrrz9===========gArrrrrrrB9========i6............(,================0>-=#.....",
".......+,=================-.......29=========0yrrrrrrrrrAg========9srrrrrrrrrC9========{@.........@:=========0gyDEEvg==a*=,.....",
"......@#===================j....@:==========9ArrrFGHzrrrrrIg====gErrrrrsuGzrrrJ9========h+.......^9========gpqrrrrrrr9==ak;.....",
".....>h=====================~>3]9==========gsrrsK====orrrrrrAppArrrrrrsL===urrrE0========gd.@2j:9========gErrrrrrrrrrr9==0-@....",
"d>2ji==========,gg90======================yrrrrK======wrrrrrrrrrrrrrrrw====Lrrrrv========wBk0==========9MrrrrrrrrrrrrrN====0*-2>",
"=============gIrrrrsp9===================prrrrF========srrrrrrrrrrrrrrO=====qrrrr9======<rrw==========9srrrrrrrrrrrrrrr9========",
"============,rrrrrrrrry0===========&&==0MrrrrrG========FrrrrrrrrrrrrrrH====Lrrrrrq9=====Lzr}=========vrrrrrrrrrrrrrrrrrP0=======",
"==========0DrrrrrrrrrrrB9==========$%=0ErrrrrrG========Qrrrrrrrrrrrrrrr}==LFrrrrrrE=======v=========grrrrrrrrrrrrrrrrrrrm=======",
"=========9Brrrrrrrrrrrrrzg=========[50Errrrrrrz=======LrrrrrrrrrrrrrrrrrnFsrrrrrrrr,===============0Jrrrrrrrrrrrrrrrrrrrrnv=====",
"=======9ysrrrrrrrrrrrrrrrr9=========0Irrrrrrrrro======Hrrrrrrrrrrrrrrrrrrrrrrrrrrrrrg==============9rrrrrrrrrrrrrrqoRmrrrrrmIv,9",
"EpvyvpArrrrrrrrrrrrrrrrrrrrv0=======prrrrrrrrrrrw===LHrrrrrrrrrrrrrrrrrrrrrrrrrrrrrrA0============,zrrrrrrrrrrrrrr<===mrrrrrrrrs",
"rrrrrrrrrrrrrrrrrrrrrrrrrrrrAg0====yrrrrrrrrrrrrrsFFrrrrrrrrrrrrrrrrrrrrrrrrrrrrrrrrrp============trrrrrrrrrrrrrrz====Orrrrrrrrr",
"rrrrrrrrrrrrrrrrrrrrrrrrrrrrrrsERISrrrrrrrrrrrrrrrrrrrrrrrrrrrrrrrrrrrrrrrrrrrrrrrrrrr9==========grrrrrrrrrrrrrrrs====wrrrrrrrrr",
"zrrrrrrrrrrrrrrrrrrrrrrrrrrrrsuBTHuzrrrrrrrrrrrrrrrrrrrrrrrrrrrrrsoosrrrrrrrrrrrrrrrrrrg========9SrrrrrrrrrrrrrrrrH==KsrrrrrrrmB",
" tmrrrrrrrrrrrrrrrrrrrrrrrFp          vMBsrrrrrrrrrrrrrrrrrrrrrrro==wrrrrrrrrrrrrrrrrrrrg======9ArrrrrzL<rrrrrrrrrrszrrrrrSRy   ",
"   yTrrrrrrrrrrrrrrrrrrrHy                 pBsrrrrrrrrrrrrrrrrrrrR==orrrrrrrrrrrrrrrrrrrrv,===gSrrrrrrm==srrrrrrrrrrrrrzR       ",
"      UVrrrrrrrrrrrrrrB                       yRzrrrrrrrrrrrrrrrrqROsrrrrrrrrrrrrrrrrrrrrrsMpArrrrrrrrrHFrrrrrrrrrrrrBv         ",
"         UHsrrrrrrrzR                             UmrrrrrrrrrrrrrrrrrrrrrrrrrrrrrrrsHRpv yvpRHsrrrrrrrrrrrrrrrrrrrVU            ",
"             ytpLy                                   tTqrrrrrrrrrrrrrrrrrrrrrrrrHp              tRFrrrrrrrrrrrrzR               ",
"                                                         pBsrrrrrrrrrrrrrrrruMy                     ypRHFzqVTU                  ",
"                                                             vMEHzqrrqVHRp                                                      "};
