/* XPM */
static char * TileMilieu_xpm[] = {
"128 128 40 1",
" 	c #7B4720",
".	c #76441F",
"+	c #73421E",
"@	c #79461F",
"#	c #70401D",
"$	c #63391B",
"%	c #653A1B",
"&	c #77451F",
"*	c #64391B",
"=	c #6D3F1D",
"-	c #6E3F1D",
";	c #71411D",
">	c #78451F",
",	c #74431E",
"'	c #7A461F",
")	c #75431E",
"!	c #6C3E1C",
"~	c #683C1C",
"{	c #663B1B",
"]	c #643A1B",
"^	c #6A3D1C",
"/	c #673B1C",
"(	c #693C1C",
"_	c #6F401D",
":	c #663A1B",
"<	c #70411D",
"[	c #6C3E1D",
"}	c #6B3D1C",
"|	c #72421E",
"1	c #74421E",
"2	c #71411E",
"3	c #77441F",
"4	c #683B1C",
"5	c #79451F",
"6	c #75441E",
"7	c #6B3E1C",
"8	c #673B1B",
"9	c #7A4620",
"0	c #6D3E1D",
"a	c #72411E",
"                                                                                                                                ",
"                                                                                                                                ",
"                                                                                                                                ",
"                                                                                                                                ",
"                                                                                                                                ",
"                                                                                                                          .+@   ",
"                                                                                                                         #$$%&  ",
"                                                                                                                         *$$$=  ",
"                                                                                                                         *$$$-  ",
"                                                                                                                         ;$$%>  ",
"                                                                                                                          &,'   ",
"                                                                                                                                ",
"                                                                                                                                ",
"                                                                                                                                ",
"                                                                                                                                ",
"                                                                                                                                ",
"                                                                                                                                ",
"                            )-!=+'                                                                                              ",
"                          &~$$$$${)                                                                                             ",
"                         &]$$$$$$$$,                                                                                            ",
"                         ~$$$$$$$$$%'                                                                                           ",
"                        )$$$$$$$$$$$#                                                                                           ",
"                        -$$$$$$$$$$$^                                                                                           ",
"                        !$$$$$$$$$$$/                                                                                           ",
"                        =$$$$$$$$$$$(                                                                                           ",
"                        +$$$$$$$$$$$_                                                                                           ",
"                        ':$$$$$$$$$*>                                                                                           ",
"                         ,$$$$$$$$$<                                                                                            ",
"                          ,]$$$$$*<                                                                                             ",
"                           @#^/(_>                                                                                              ",
"                                                                                                                                ",
"                                                                                                                                ",
"                                                                                                                                ",
"                                                                                                                                ",
"                                                                                                                                ",
"                                                                                                             '>>                ",
"                                                                                                           +($$$][>             ",
"                                                                                                         '}$$$$$$$*|            ",
"                                                                                                         }$$$$$$$$$$1           ",
"                                                                                                        |$$$$$$$$$$$%'          ",
"                                                                                                        ~$$$$$$$$$$$$2          ",
"                                                                                                       @$$$$$$$$$$$$$^          ",
"                                                                                                       .$$$$$$$$$$$$$/          ",
"                                                                                                       3$$$$$$$$$$$$$~          ",
"                                                                                                       '$$$$$$$$$$$$$!          ",
"                                                                                                        ^$$$$$$$$$$$$+          ",
"                                                                                                        .$$$$$$$$$$$4           ",
"                                                                                                         #$$$$$$$$$%&           ",
"                                                                                                          2*$$$$$$/&            ",
"                                                                                                           5_~:{^+              ",
"                                                                                                                                ",
"                                                                                                                                ",
"                                                                                                                                ",
"                                                                                                                                ",
"                                                                                                                                ",
"                                                                                                                                ",
"                                      &#=#&                                                                                     ",
"                                     -$$$$$-                                                                                    ",
"                                    _$$$$$$$_                                                                                   ",
"                                   5*$$$$$$$*@                                                                                  ",
"                                   |$$$$$$$$$+                                                                                  ",
"                                   ;$$$$$$$$$2                                                                                  ",
"                                   ,$$$$$$$$$,                                                                                  ",
"                                   '%$$$$$$$:'                                                                                  ",
"                                    1$$$$$$$,                                                                                   ",
"                                     ,{$$${,                                                                                    ",
"                                       3,3                                                                                      ",
"                                                                                                                                ",
"                                                                                                                                ",
"                                                                                                                                ",
"                                                                                                                                ",
"                                                                                                                                ",
"                                                                                                                                ",
"                                                                                                                                ",
"                                                                                                                                ",
"                                                                                                                                ",
"                                                                                                                                ",
"                                                                                                                                ",
"                                                                                                                                ",
"                                                                                                                                ",
"                                                                                                                                ",
"                                                                                                                                ",
"                                                                                                                                ",
"                                                                                                                                ",
"                                                                                               5&5                              ",
"                                                                                            67%$$$]7)                           ",
"                                                                                          @7$$$$$$$$$}@                         ",
"                                                                                         @8$$$$$$$$$$$85                        ",
"                                                                                         ~$$$$$$$$$$$$$~9                       ",
"                                                                                        ;$$$$$$$$$$$$$$$#                       ",
"                                                                                        %$$$$$$$$$$$$$$$%9                      ",
"                                                                                       )$$$$$$$$$$$$$$$$$,                      ",
"                                                                                       #$$$$$$$$$$$$$$$$$_                      ",
"                                                                                       =$$$$$$$$$$$$$$$$$[                      ",
"                                                                                       =$$$$$$$$$$$$$$$$$0                      ",
"                                                                                       #$$$$$$$$$$$$$$$$$_                      ",
"                                                                                       .$$$$$$$$$$$$$$$$$)                      ",
"                                                                                        {$$$$$$$$$$$$$$$:                       ",
"                                                                                        |$$$$$$$$$$$$$$$a                       ",
"                                                                                         ^$$$$$$$$$$$$$^                        ",
"                                                                                         '($$$$$$$$$$$('                        ",
"                                                                                          9-$$$$$$$$$-'                         ",
"                                                                                            >-/$$$8->                           ",
"         &7%]^)                                                                                 '                               ",
"        .]$$$$$|                                                                                                                ",
"        8$$$$$$*@                                                                                                               ",
"       .$$$$$$$$2                                                                                                               ",
"       ,$$$$$$$$_                                                                                                               ",
"       3$$$$$$$$a                                                                                                               ",
"        ~$$$$$$]@                                                                                                               ",
"        &%$$$$*,                                                                                                                ",
"         5-/8!3                                                                                                                 ",
"                                                                                                                                ",
"                                                                                                                                ",
"                                                                                                                                ",
"                                                                                                                                ",
"                                                                                                                                ",
"                                                                                                                                ",
"                                                                                                                                ",
"                                                                                                                                ",
"                                                                                                                                ",
"                                                                                                                                ",
"                                                                                                                                ",
"                                                                                                                                ",
"                                                                                                                                ",
"                                                                                                                                ",
"                                                                                                                                ",
"                                                                                                                                "};
