/* XPM */
static char * waves1_xpm[] = {
"128 38 562 2",
"  	c None",
". 	c #97DEFF",
"+ 	c #9CE0FF",
"@ 	c #9BDFFF",
"# 	c #96DDFF",
"$ 	c #98DEFF",
"% 	c #9ADFFF",
"& 	c #9DE0FF",
"* 	c #9EE1FF",
"= 	c #9CDFFF",
"- 	c #99DFFF",
"; 	c #9EE0FF",
"> 	c #9DE1FF",
", 	c #97DDFE",
"' 	c #9ADEFF",
") 	c #99DEFF",
"! 	c #97DDFF",
"~ 	c #96DCFF",
"{ 	c #95DCFF",
"] 	c #98DDFF",
"^ 	c #97DEFE",
"/ 	c #93DBFF",
"( 	c #90D9FF",
"_ 	c #8ED8FF",
": 	c #8CD7FF",
"< 	c #89D6FF",
"[ 	c #87D5FF",
"} 	c #85D4FF",
"| 	c #84D3FF",
"1 	c #83D3FF",
"2 	c #86D4FF",
"3 	c #88D4FF",
"4 	c #8BD6FF",
"5 	c #8DD7FF",
"6 	c #8FD8FF",
"7 	c #91DAFF",
"8 	c #94DBFF",
"9 	c #99DEFE",
"0 	c #87D4FF",
"a 	c #83D2FF",
"b 	c #82D2FF",
"c 	c #81D2FF",
"d 	c #88D5FF",
"e 	c #8FD9FF",
"f 	c #94DCFE",
"g 	c #8ED9FF",
"h 	c #8AD6FF",
"i 	c #86D5FF",
"j 	c #80D1FE",
"k 	c #7ED1FE",
"l 	c #7ED0FE",
"m 	c #7DCFFD",
"n 	c #7BCEFB",
"o 	c #79CDFA",
"p 	c #77CDFA",
"q 	c #75CDFA",
"r 	c #75CCF9",
"s 	c #74CCF9",
"t 	c #73CCF9",
"u 	c #75CCFA",
"v 	c #78CDFA",
"w 	c #79CEFB",
"x 	c #7ACFFC",
"y 	c #7CCFFC",
"z 	c #7DD0FD",
"A 	c #7ED0FD",
"B 	c #7FD1FE",
"C 	c #80D2FF",
"D 	c #93DAFF",
"E 	c #97DCFF",
"F 	c #7BCFFC",
"G 	c #78CDFB",
"H 	c #72CAF8",
"I 	c #6FC8F7",
"J 	c #6CC7F6",
"K 	c #69C6F5",
"L 	c #68C5F4",
"M 	c #67C5F3",
"N 	c #66C5F3",
"O 	c #65C4F3",
"P 	c #65C4F2",
"Q 	c #67C5F4",
"R 	c #6AC6F4",
"S 	c #6CC7F5",
"T 	c #6EC8F7",
"U 	c #71CAF8",
"V 	c #74CBF9",
"W 	c #76CCFA",
"X 	c #79CDFB",
"Y 	c #7FD0FE",
"Z 	c #8BD7FF",
"` 	c #9ADFFE",
" .	c #94DCFF",
"..	c #7CCFFD",
"+.	c #78CDFC",
"@.	c #73CAF9",
"#.	c #6AC6F5",
"$.	c #67C4F4",
"%.	c #65C4F4",
"&.	c #63C3F3",
"*.	c #62C3F2",
"=.	c #64C3F3",
"-.	c #66C4F4",
";.	c #72CAF9",
">.	c #76CCFB",
",.	c #7ACEFC",
"'.	c #80D1FF",
").	c #92DAFF",
"!.	c #7BCFFD",
"~.	c #75CCFB",
"{.	c #70C9F9",
"].	c #6BC6F6",
"^.	c #67C4F5",
"/.	c #64C3F4",
"(.	c #62C2F3",
"_.	c #62C1F3",
":.	c #61C1F3",
"<.	c #63C2F4",
"[.	c #66C3F5",
"}.	c #69C5F6",
"|.	c #6EC8F8",
"1.	c #74CBFA",
"2.	c #8DD8FF",
"3.	c #95DBFF",
"4.	c #81D1FF",
"5.	c #7BCEFD",
"6.	c #76CBFB",
"7.	c #70C8F9",
"8.	c #69C5F7",
"9.	c #65C2F5",
"0.	c #62C1F4",
"a.	c #61C0F3",
"b.	c #60C0F3",
"c.	c #64C2F5",
"d.	c #68C4F6",
"e.	c #6FC8F8",
"f.	c #86D3FF",
"g.	c #90DAFF",
"h.	c #9ADEFE",
"i.	c #99DDFE",
"j.	c #92DCFE",
"k.	c #85D3FF",
"l.	c #78CCFC",
"m.	c #71C8FA",
"n.	c #6AC5F7",
"o.	c #62C0F4",
"p.	c #5FBFF3",
"q.	c #5FC0F3",
"r.	c #66C2F5",
"s.	c #6CC6F8",
"t.	c #74CAFA",
"u.	c #7ACDFC",
"v.	c #6EC7F9",
"w.	c #95DDFF",
"x.	c #7ACEFD",
"y.	c #74CAFB",
"z.	c #6DC6F8",
"A.	c #66C3F6",
"B.	c #61C0F5",
"C.	c #5FBFF4",
"D.	c #5EBEF3",
"E.	c #5DBEF3",
"F.	c #60BFF4",
"G.	c #5EBDF4",
"H.	c #61BFF5",
"I.	c #68C3F7",
"J.	c #70C8FA",
"K.	c #79CDFD",
"L.	c #9BE0FF",
"M.	c #92DBFF",
"N.	c #91D9FF",
"O.	c #85D4FE",
"P.	c #64C1F6",
"Q.	c #60BFF5",
"R.	c #5DBDF4",
"S.	c #5CBCF4",
"T.	c #5BBCF4",
"U.	c #5DBDF5",
"V.	c #62C0F6",
"W.	c #6AC4F8",
"X.	c #75CBFB",
"Y.	c #80D0FE",
"Z.	c #92DAFD",
"`.	c #8AD5FC",
" +	c #7FCFFA",
".+	c #73C8F8",
"++	c #69C3F6",
"@+	c #62BFF5",
"#+	c #5ABAF4",
"$+	c #5BBAF4",
"%+	c #5DBCF4",
"&+	c #62BEF6",
"*+	c #6CC4F7",
"=+	c #7ACBF9",
"-+	c #86D3FC",
";+	c #91D9FE",
">+	c #81D1FE",
",+	c #98DDFE",
"'+	c #93DAFD",
")+	c #8AD5FB",
"!+	c #7FCEFA",
"~+	c #73C7F8",
"{+	c #67C1F6",
"]+	c #60BDF5",
"^+	c #5CBBF4",
"/+	c #67C2F7",
"(+	c #72C7F8",
"_+	c #80CEFA",
":+	c #8CD5FC",
"<+	c #95DAFE",
"[+	c #7BCEFC",
"}+	c #73CBF9",
"|+	c #70CAF7",
"1+	c #6FC9F7",
"2+	c #6FC9F6",
"3+	c #6EC8F6",
"4+	c #6DC8F6",
"5+	c #7FD0FD",
"6+	c #91D9FD",
"7+	c #87D3FB",
"8+	c #6DC4F7",
"9+	c #62BFF6",
"0+	c #5BBBF4",
"a+	c #59BAF4",
"b+	c #70C9F7",
"c+	c #6BC7F6",
"d+	c #63C3F2",
"e+	c #79CEFC",
"f+	c #95DBFE",
"g+	c #8DD6FC",
"h+	c #81CFFA",
"i+	c #67C0F7",
"j+	c #5EBBF5",
"k+	c #59B9F5",
"l+	c #58B8F5",
"m+	c #5FBCF6",
"n+	c #68C1F7",
"o+	c #76C8F9",
"p+	c #81CFFB",
"q+	c #79CDFC",
"r+	c #75CBFA",
"s+	c #6CC6F7",
"t+	c #68C4F5",
"u+	c #65C3F4",
"v+	c #63C2F3",
"w+	c #61C2F3",
"x+	c #68C5F5",
"y+	c #6CC7F7",
"z+	c #71C9F9",
"A+	c #99DDFF",
"B+	c #87D2FC",
"C+	c #7ACAF9",
"D+	c #6CC2F8",
"E+	c #5FBCF7",
"F+	c #59B8F6",
"G+	c #57B7F5",
"H+	c #60BCF6",
"I+	c #6DC3F8",
"J+	c #7CCBFA",
"K+	c #89D3FC",
"L+	c #7DCFFE",
"M+	c #73CAFA",
"N+	c #6DC7F8",
"O+	c #68C5F6",
"P+	c #65C3F5",
"Q+	c #64C2F4",
"R+	c #6AC5F6",
"S+	c #6FC8F9",
"T+	c #8CD6FD",
"U+	c #80CEFB",
"V+	c #72C6F9",
"W+	c #67BFF8",
"X+	c #5CBAF6",
"Y+	c #56B6F5",
"Z+	c #5AB8F6",
"`+	c #63BDF7",
" @	c #70C4F8",
".@	c #7FCDFA",
"+@	c #96DCFE",
"@@	c #6FC7F8",
"#@	c #64C1F4",
"$@	c #61C0F4",
"%@	c #60BFF3",
"&@	c #69C4F6",
"*@	c #92D9FD",
"=@	c #6EC3F8",
"-@	c #62BCF7",
";@	c #5BB8F6",
">@	c #56B6F6",
",@	c #54B5F5",
"'@	c #53B5F5",
")@	c #57B6F6",
"!@	c #5DB9F6",
"~@	c #66BEF8",
"{@	c #75C6F9",
"]@	c #83CFFB",
"^@	c #8FD7FD",
"/@	c #98DCFE",
"(@	c #89D5FF",
"_@	c #5EBFF3",
":@	c #71C8F9",
"<@	c #97DCFE",
"[@	c #90D8FD",
"}@	c #85D1FC",
"|@	c #7ACAFB",
"1@	c #70C4F9",
"2@	c #6AC1F9",
"3@	c #68C0F9",
"4@	c #6BC2F9",
"5@	c #6DC3F9",
"6@	c #6FC4F9",
"7@	c #71C5F9",
"8@	c #72C5F9",
"9@	c #6DC2F9",
"0@	c #6BC1F9",
"a@	c #68BFF9",
"b@	c #64BDF8",
"c@	c #60BBF8",
"d@	c #5BB8F7",
"e@	c #58B7F7",
"f@	c #56B5F6",
"g@	c #55B5F6",
"h@	c #65BDF8",
"i@	c #71C4F9",
"j@	c #7DCBFB",
"k@	c #5FBEF4",
"l@	c #5EBEF4",
"m@	c #5CBDF4",
"n@	c #66C2F7",
"o@	c #6DC6F9",
"p@	c #7ACDFD",
"q@	c #98DEFE",
"r@	c #93D9FE",
"s@	c #91D8FD",
"t@	c #8ED6FD",
"u@	c #8CD4FD",
"v@	c #89D2FC",
"w@	c #84D0FB",
"x@	c #7DCCFB",
"y@	c #77C8FB",
"z@	c #76C8FB",
"A@	c #7BCBFB",
"B@	c #84D0FC",
"C@	c #93D9FD",
"D@	c #77CCFC",
"E@	c #6FC7F9",
"F@	c #60BEF5",
"G@	c #70C7F9",
"H@	c #7BCDFB",
"I@	c #86D4FD",
"J@	c #9BDEFF",
"K@	c #72C9FA",
"L@	c #6AC3F8",
"M@	c #5ABBF4",
"N@	c #5EBDF5",
"O@	c #65C1F5",
"P@	c #6FC6F7",
"Q@	c #79CBF9",
"R@	c #84D1FB",
"S@	c #8ED7FC",
"T@	c #95DBFD",
"U@	c #82D2FE",
"V@	c #6CC5F9",
"W@	c #64C0F6",
"X@	c #5DBCF5",
"Y@	c #63BFF5",
"Z@	c #85D2FB",
"`@	c #8FD7FC",
" #	c #96DCFD",
".#	c #8CD5FD",
"+#	c #68C1F6",
"@#	c #5ABAF5",
"##	c #58B9F4",
"$#	c #58B9F5",
"%#	c #5FBDF6",
"&#	c #74C8F9",
"*#	c #76CCF9",
"=#	c #74CCF8",
"-#	c #73CBF8",
";#	c #72CBF8",
">#	c #74CBF8",
",#	c #76CDF9",
"'#	c #76CDFA",
")#	c #7ACEFB",
"!#	c #7CD0FC",
"~#	c #92D8FD",
"{#	c #87D2FB",
"]#	c #6DC3F7",
"^#	c #7ACBFA",
"/#	c #70C5F9",
"(#	c #64BFF7",
"_#	c #5CBAF5",
":#	c #59B8F5",
"<#	c #5BBAF5",
"[#	c #62BDF7",
"}#	c #7BCBFA",
"|#	c #88D3FC",
"1#	c #6CC8F5",
"2#	c #6BC7F5",
"3#	c #69C7F4",
"4#	c #68C6F3",
"5#	c #66C5F2",
"6#	c #65C5F2",
"7#	c #67C6F3",
"8#	c #68C6F4",
"9#	c #6AC7F5",
"0#	c #6EC9F6",
"a#	c #75C7F9",
"b#	c #66BFF7",
"c#	c #5DBAF6",
"d#	c #56B7F5",
"e#	c #74C7F9",
"f#	c #96DBFE",
"g#	c #70C9F8",
"h#	c #66C4F3",
"i#	c #64C3F2",
"j#	c #64C4F3",
"k#	c #68C6F5",
"l#	c #77CDFB",
"m#	c #79C9FA",
"n#	c #6AC1F8",
"o#	c #5EBAF6",
"p#	c #58B7F6",
"q#	c #55B6F5",
"r#	c #57B6F5",
"s#	c #61BBF6",
"t#	c #6DC2F8",
"u#	c #7ACAFA",
"v#	c #92D9FE",
"w#	c #77CCFB",
"x#	c #6DC7F7",
"y#	c #69C5F5",
"z#	c #61C2F2",
"A#	c #62C2F2",
"B#	c #6BC6F7",
"C#	c #71C9F8",
"D#	c #9BDEFE",
"E#	c #8BD4FC",
"F#	c #7DCBFA",
"G#	c #55B5F5",
"H#	c #53B4F5",
"I#	c #54B4F6",
"J#	c #5EBAF7",
"K#	c #68C0F8",
"L#	c #75C8F9",
"M#	c #83D0FB",
"N#	c #8CD8FF",
"O#	c #67C4F6",
"P#	c #60C1F3",
"Q#	c #7DD0FE",
"R#	c #8ED7FD",
"S#	c #83CEFC",
"T#	c #77C8FA",
"U#	c #6AC0F9",
"V#	c #60BAF7",
"W#	c #59B7F7",
"X#	c #55B5F7",
"Y#	c #53B3F6",
"Z#	c #52B3F6",
"`#	c #56B5F7",
" $	c #5FBAF7",
".$	c #69BFF8",
"+$	c #74C6FA",
"@$	c #80CDFB",
"#$	c #8BD5FD",
"$$	c #94DBFE",
"%$	c #6EC7F8",
"&$	c #63C1F4",
"*$	c #60C0F4",
"=$	c #6BC5F8",
"-$	c #90D7FD",
";$	c #87D1FC",
">$	c #7CCBFB",
",$	c #74C5FA",
"'$	c #6EC1F9",
")$	c #69BFF9",
"!$	c #62BCF8",
"~$	c #5DB9F8",
"{$	c #59B6F7",
"]$	c #57B5F6",
"^$	c #56B4F6",
"/$	c #57B5F7",
"($	c #5AB6F7",
"_$	c #5FBAF8",
":$	c #65BDF9",
"<$	c #6CC1F9",
"[$	c #73C5F9",
"}$	c #7CCEFD",
"|$	c #77CBFC",
"1$	c #69C4F7",
"2$	c #64C1F5",
"3$	c #5EBDF3",
"4$	c #5FBEF3",
"5$	c #61BFF4",
"6$	c #5FBEF5",
"7$	c #91D8FE",
"8$	c #8DD5FD",
"9$	c #86D0FB",
"0$	c #85D0FB",
"a$	c #87D1FB",
"b$	c #88D1FC",
"c$	c #93DAFE",
"d$	c #73CAFB",
"e$	c #6CC6F9",
"f$	c #65C2F7",
"g$	c #5DBEF4",
"h$	c #5CBDF3",
"i$	c #5DBDF3",
"j$	c #66C1F7",
"k$	c #6FC6F9",
"l$	c #7DCEFE",
"m$	c #80D0FF",
"n$	c #9DDFFF",
"o$	c #7BCDFD",
"p$	c #76CAFC",
"q$	c #6FC7FA",
"r$	c #68C2F8",
"s$	c #65C0F7",
"t$	c #6DC5F9",
"u$	c #75CAFC",
"v$	c #88D6FF",
"w$	c #70C7FA",
"x$	c #69C2F8",
"y$	c #63BFF6",
"z$	c #5EBCF5",
"A$	c #59B9F4",
"B$	c #5CBBF6",
"C$	c #61BEF7",
"D$	c #68C1F9",
"E$	c #6DC5FA",
"F$	c #73C9FB",
"G$	c #79CCFC",
"H$	c #7DCEFD",
"I$	c #7ECFFE",
"J$	c #79CCFD",
"K$	c #74C9FC",
"L$	c #6EC6FA",
"M$	c #68C2F9",
"N$	c #62BEF7",
"O$	c #5DBBF6",
"P$	c #57B8F5",
"Q$	c #5AB9F6",
"R$	c #60BDF7",
"S$	c #64BFF8",
"T$	c #69C2F9",
"U$	c #6DC4FA",
"V$	c #70C6FB",
"W$	c #73C8FB",
"X$	c #75C9FC",
"Y$	c #78CBFD",
"Z$	c #78CCFD",
"`$	c #78CBFC",
" %	c #6CC4FA",
".%	c #67C1F9",
"+%	c #62BEF8",
"@%	c #5EBCF7",
"#%	c #5BBAF6",
"$%	c #58B7F5",
"%%	c #5BB9F6",
"&%	c #5CBAF7",
"*%	c #5DBAF7",
"=%	c #5EBBF7",
"                                                                                                                                                                  . + @ # # $ % + & * * * * * & + = @ % - % & ; > %                                             ",
"                                                                                                                                                        , % + @ @ + & + = ' ) ) $ ! ~ { ~ ~ ! ! ] ) ' % @ = & * * ; & & & & @ %                                 ",
"                                                                                                                                              ^ @ ) @ & + @ ) # / ( _ : < [ } | | | | 1 1 | | | | } 2 3 < 4 5 6 7 8 ! ) = & > * * > + & @                       ",
"                                                                                                                                      ^ 9 @ = = @ $ { 7 5 < 0 } 1 a b b b b b b b b c c c b b b b b b b b b b b a | } 0 d : e 8 ! % + & ; * * + @               ",
"                                                                                                                              f $ % @ = % ! / g h i | a b b b b c j k l m n o p q r s t t s r r u q p v w x y z A B j C b b b 1 } [ h _ D E % + & & + > @       ",
"                                                                                                                        $ % @ + @ ! / _ < } | a b b c j A F G r H I J K L M N O O O P P P P O O O O O N N N Q L R S T U V W X y Y j c b | } [ Z ( 8 $ + & & & & ",
"+ @ `                                                                                                             $ @ @ @ )  .g < 2 | b b b c Y ..+.@.T #.$.%.&.&.*.*.*.*.*.*.*.*.*.*.*.*.*.*.*.*.*.*.*.*.*.*.*.*.*.*.*.&.=.-.Q #.T ;.>.,.l '.c a | 0 h 6 8 ) @ ",
"/ $ + & = =                                                                                                 @ @ = @ ! ).: d | a b c '.l !.~.{.].^./.(._.:.:.:.:.:.:.:.:.:.:.:.:.:.:.:.:.:.:.:.:.:.:.:.:.:.:.:.:.:.:.:.:.:.:.:.:.:.(.(.<.[.}.|.1.,.l j b a | 0 < ",
"| [ 2.3.@ ; * & =                                                                                   ! ' = @ ) 8 e h 2 1 b b 4.B 5.6.7.8.9.0.a.b.b.b.b.b.b.b.b.b.b.b.b.b.b.b.b.b.b.b.b.b.b.b.b.b.b.b.b.b.b.b.b.b.b.b.b.b.b.b.b.b.b.b.b.b.b.b.b.0.c.d.e.>...B c b ",
"j c a f.h g.! = * * ; & @ h.                                      @ h.i.i.9               j.# % + + % E ).: d k.1 b b j ..l.m.n.9.o.p.p.p.p.p.p.p.p.p.p.p.p.p.p.p.p.p.p.p.p.p.p.p.p.p.p.p.p.p.p.p.p.p.p.p.p.p.p.p.p.p.p.p.p.p.p.p.p.p.p.p.p.p.p.p.p.q.0.r.s.t.u.",
"v.6.m 4.b 1 2 4 ).] = * * * & @ @ ) w.w.$ % & * = = @ + & ; * * * > & & & & & * & + @ ) - % + % ! ).: [ | b b 4.Y x.y.z.A.B.C.D.D.E.E.E.E.E.E.E.E.E.E.E.E.E.E.E.E.E.E.E.E.E.E.E.E.E.E.E.E.E.E.E.E.E.E.E.E.E.E.E.E.E.E.E.E.E.E.E.E.E.E.E.E.E.E.E.E.E.E.E.D.D.F.o.",
"G.H.I.J.K.l c b 1 0 Z 7 . L.& & + + & & ; ; * & = ' ] ! ~ { / M.7 ( ( e e ( N.).D 8 ~ ! ) % + + + % ] 8 e Z O.u.z.P.Q.R.S.S.S.S.S.S.S.S.S.S.S.S.S.S.S.S.S.S.S.S.S.S.S.S.S.S.S.S.S.S.S.S.S.S.S.S.S.S.S.S.S.S.S.S.S.S.S.S.S.S.S.S.S.S.S.S.S.S.S.S.S.S.S.S.S.S.S.S.",
"T.T.T.U.V.W.X.Y.0 : 7 { ' + ; ; & = % ! 8 N.6 : < d 2 } | 1 1 a a a a a a a a a 1 1 | k.2 d 4 2.( 8 ! ' @ @ ] Z.`. +.+++@+R.S.T.T.T.T.T.T.T.T.T.T.T.T.T.T.T.T.T.T.T.T.T.T.T.T.T.T.T.T.T.T.T.T.T.T.T.T.T.T.T.T.T.T.T.T.T.T.T.T.T.T.T.T.T.T.T.T.T.T.T.T.T.T.T.T.T.",
"#+$+%+&+*+=+-+;+) + & + @ $ 8 7 2.h 0 } | 1 a b b b c c 4.>+j j j j j j j j j j >+4.c b b b b b 1 | } d Z e / ! % @ ,+'+)+!+~+{+]+^+#+#+#+#+#+#+#+#+#+#+#+#+#+#+#+#+#+#+#+#+#+#+#+#+#+#+#+#+#+#+#+#+#+#+#+#+#+#+#+#+#+#+#+#+#+#+#+#+#+#+#+#+#+#+#+#+#+#+#+#+#+#+",
"/+(+_+:+<+h.+ @ ) { 7 5 d 2 | a b b c j A ..[+w p W V }+H |+1+2+3+4+4+4+4+3+3+1+|+;.1.W X [+m 5+j c b b b a | 2 < 2.).! ' ' ,+6+7+=+8+9+0+a+a+a+a+a+a+a+a+a+a+a+a+a+a+a+a+a+a+a+a+a+a+a+a+a+a+a+a+a+a+a+a+a+a+a+a+a+a+a+a+a+a+a+a+a+a+a+a+a+a+a+a+a+a+a+a+a+a+#+",
"'+,+@ % ] 8 e 4 [ k.a b '.Y z ,.W }+b+4+c+K Q %.=.=.=.=.=.d+d+d+d+d+d+d+d+d+d+d+d+=.=.=.%.Q K J I H u e+m B 4.b b a | 2 < 2./ ! ' ' f+g+h+~+i+j+k+l+l+l+l+l+l+l+l+l+l+l+l+l+l+l+l+l+l+l+l+l+l+l+l+l+l+l+l+l+l+l+l+l+l+l+l+l+l+l+l+l+l+l+l+l+l+l+l+l+l+k+m+n+o+p+",
"E 8 e h 2 | b c j z q+r+{.s+t+u+/.v+(.:.:.:.w+(.(.(.(.(.(.(.(.(.(.(.(.(.(.(.(.(.(.(.(.(.(.(.:.:.(.(.v+u+x+y+z+6.[+A '.c b a | 2 h e 3.A+% ,+6+B+C+D+E+F+G+G+G+G+G+G+G+G+G+G+G+G+G+G+G+G+G+G+G+G+G+G+G+G+G+G+G+G+G+G+G+G+G+G+G+G+G+G+G+G+G+G+G+G+k+H+I+J+K+'+i.@ ",
"2 | a b j L+X M+N+O+P+<.:.:.:.:.:.:.:.:.:.:.:.:.:.:.:.:.:.:.:.:.:.:.:.:.:.:.:.:.:.:.:.:.:.:.:.:.:.:.:.:.:.:._.Q+[.R+S+X.,.l j b b a | [ : 7 ! ' ' f+T+U+V+W+X+G+Y+Y+Y+Y+Y+Y+Y+Y+Y+Y+Y+Y+Y+Y+Y+Y+Y+Y+Y+Y+Y+Y+Y+Y+Y+Y+Y+Y+Y+Y+Y+Y+Y+Y+Y+Y+Y+Z+`+ @.@:++@@ + ) / _ ",
"c j ..6.@@d.#@$@b.p.p.p.p.p.p.p.p.p.p.p.p.p.p.p.p.p.p.p.p.p.p.p.p.p.p.p.p.p.p.p.p.p.p.p.p.p.p.p.p.p.p.p.p.p.p.p.p.%@b.o.c.&@@@r+[+Y >+b b | 2 h e  .$ ' ,+*@K+J+=@-@;@>@,@,@,@,@,@'@'@'@'@'@'@'@,@,@,@,@,@,@,@,@,@,@,@,@,@,@,@,@,@)@!@~@{@]@^@/@= & @ # e (@| a ",
"M+z.A.$@p.D.D.D.D.D.D.D.D.D.D.D.D.D.D.D.D.D.D.D.D.D.D.D.D.D.D.D.D.D.D.D.D.D.D.D.D.D.D.D.D.D.D.D.D.D.D.D.D.D.D.D.D.D.D.D.D._@p.$@9.n.:@l.L+j b b 1 } d : ).# ) h.<@[@}@|@1@2@3@4@5@6@1@7@8@7@1@6@9@0@a@b@c@d@e@)@f@g@g@g@g@)@d@h@i@j@K+'+h.& * + ] 7 Z 2 1 b j L+",
"k@l@R.m@m@m@m@m@m@m@m@m@m@m@m@m@m@m@m@m@m@m@m@m@m@m@m@m@m@m@m@m@m@m@m@m@m@m@m@m@m@m@m@m@m@m@m@m@m@m@m@m@m@m@m@m@m@m@m@m@m@m@m@m@R.R.l@B.n@o@y.p@l 4.b a | [ 2.M.# q@- % ,++@f++@,+i.) ' ' ' A+A+,++@<+r@s@t@u@v@w@x@y@z@A@B@u@C@i.= ; ; = ] M.: 0 | b c l D@E@I.",
"S.S.S.S.S.S.S.S.S.S.S.S.S.S.S.S.S.S.S.S.S.S.S.S.S.S.S.S.S.S.S.S.S.S.S.S.S.S.S.S.S.S.S.S.S.S.S.S.S.S.S.S.S.S.S.S.S.S.S.S.S.S.S.S.S.S.S.S.S.R.F@n@G@H@I@_ M.{ ] @ = = @ % ) ] ~ 3./ / D ).).)./ / 8 { ! ] ' @ + + = = J@J@@ = & & & @ ! 7 Z 0 1 b c Y u.K@L@9+G.S.",
"M@M@M@M@M@M@M@M@M@M@M@M@M@M@M@M@M@M@M@M@M@M@M@M@M@M@M@M@M@M@M@M@M@M@M@M@M@M@M@M@M@M@M@M@M@M@M@M@M@M@M@M@M@M@M@M@M@M@M@M@M@M@M@M@M@M@0+N@O@P@Q@R@S@T@A+@ @ ) ~ / ( 5 h d [ 2 } | 1 1 a a a 1 1 1 | | } 2 0 d < : _ 7 8 # A+@ & ; & + @ ! D 6 < U@l.V@W@N@0+M@M@M@",
"#+#+#+#+#+#+#+#+#+#+#+#+#+#+#+#+#+#+#+#+#+#+#+#+#+#+#+#+#+#+#+#+#+#+#+#+#+#+#+#+#+#+#+#+#+#+#+#+#+#+#+#+#+#+#+#+#+#+#+#+#+#+#+X@Y@8+Q@Z@`@ #h.@ ) ~ )._ h [ k.| a b b b b b b b c C C C C C C C c c b b b b b b a a | k.0 < : e / ! ' = & & % f+.#_+(++#]+0+#+#+",
"@###$#$#$#$#$#$#$#$#$#$#$#$#$#$#$#$#$#$#$#$#$#$#$#$#$#$#$#$#$#$#$#$#$#$#$#$#$#$#$#$#$#$#$#$#$#$#$#$#$#$#$#$#$#$#$#$#$#@#%#n+&#h+g+f+) ' $ 3.( 4 [ } | b b b c >+j B z F w p *#r =#-#;#;#;#;#;#;#-#>#r ,#'#p w )#F !#k j j c b a | } d 4 e / ! % + = ,+~#{#=+]#&+",
"^#/#(#_#:#l+l+l+l+l+l+l+l+l+l+l+l+l+l+l+l+l+l+l+l+l+l+l+l+l+l+l+l+l+l+l+l+l+l+l+l+l+l+l+l+l+l+l+l+l+l+l+l+l+l+l+<#[#=@}#|#*@,+' ) 3.( Z [ | a b b c '.l !.w *#;#2+1#2#3#4#N 5#5#6#6#6#6#6#6#6#6#6#6#5#5#N N 7#8#3#9#1#0#|+t p ,.y A j b b | 2 (@5 ).~ ' = ' f+^@",
"' <@`@w@a#b#c#l+d#d#d#d#d#d#d#d#d#d#d#d#d#d#d#d#d#d#d#d#d#d#d#d#d#d#d#d#d#d#d#d#d#d#d#d#d#d#d#d#d#d#d#d#l+c#b#e#p+t@f#' ' ! ).5 d | a b b c B m X V g#J 8#h#O i#d+d+d+d+d+d+d+d+d+d+d+d+d+d+d+d+d+d+d+d+d+d+d+d+d+d+d+d+d+j#O -.k#S I @.l#F l '.b 1 k.d 5 7 ~ - ",
"N.~ @ = i.*@B+m#n#o#p#Y+q#q#Y+Y+Y+Y+Y+Y+Y+Y+Y+Y+Y+Y+Y+Y+Y+Y+Y+Y+Y+Y+Y+Y+Y+Y+Y+Y+Y+Y+Y+Y+Y+q#q#Y+r#Z+s#t#u#B+v#,+' ) { e h 2 | b b 4.Y ..w#;.x#y#%.&.(.w+z#A#A#A#A#A#A#A#A#A#A#A#A#A#A#A#A#A#A#A#A#A#A#A#A#A#A#A#A#A#A#A#A#A#A#A#w+w+(.&.%.x+B#C#W F Y 4.b 1 } [ ",
"a f.4 7 $ + & D#<+E#F#=@-@p#G#,@,@H#I#I#I#I#I#I#I#I#I#I#I#I#I#I#I#I#I#I#I#I#I#I#I#H#,@,@G#)@J#K#L#M#t@+@' % ! ).N#d | a b c j m +.@.x#O#/.0.:.:.P#P#P#P#P#P#P#P#P#P#P#P#P#P#P#P#P#P#P#P#P#P#P#P#P#P#P#P#P#P#P#P#P#P#P#P#P#P#P#P#P#P#P#P#P#:.:.:.Q+^.s+;.+.Q#'.b ",
"B '.b | d 2.8 ' & * = <@R#S#T#U#V#W#X#Y#Z#Y#Y#Y#Y#Y#Y#Y#Y#Y#Y#Y#Y#Y#Y#Y#Y#Y#Z#Y#`#W# $.$+$@$#$$$h.J@) 8 e h 2 | b b j l ,.t.%$d.&$*$%@p.p.p.p.p.p.p.p.p.p.p.p.p.p.p.p.p.p.p.p.p.p.p.p.p.p.p.p.p.p.p.p.p.p.p.p.p.p.p.p.p.p.p.p.p.p.p.p.p.p.p.p.p.p.p.%@$@c.8.7.6.",
"=$K@p@Y.b b k.(@g 8 ) & * ; J@f#-$;$>$,$'$)$!$~${$]$^$^$^$^$^$^$^$^$/$($_$:$<$[$>$;$^@f+) @ ) { N.Z [ | a b c '.}$|$7.1$2$F.D.3$3$3$3$3$3$3$3$3$3$3$3$3$3$3$3$3$3$3$3$3$3$3$3$3$3$3$3$3$3$3$3$3$3$3$3$3$3$3$3$3$3$3$3$3$3$3$3$3$3$3$3$3$3$3$3$3$3$3$3$3$3$3$4$5$",
"R.6$P.o@X.}$'.c a | d 2.).! ' = & & & @ A+f+7$8$E#v@;$9$0$0$0$9$a$b$v@E#R#c$, ' @ ' ) { N.: d k.a b b '.l p@d$e$f$Q.g$h$h$i$i$i$i$i$i$i$i$i$i$i$i$i$i$i$i$i$i$i$i$i$i$i$i$i$i$i$i$i$i$i$i$i$i$i$i$i$i$i$i$i$i$i$i$i$i$i$i$i$i$i$i$i$i$i$i$i$i$i$i$i$i$i$i$i$i$i$",
"T.T.T.S.6$j$k$|$l$m$c b 1 } [ Z e ). .~ ] ) % = & + = n$n$n$= = = = @ ' $ # 8 7 2.h 0 k.1 b b 4.Y o$p$q$r$9+N@S.T.T.T.T.T.T.T.T.T.T.T.T.T.T.T.T.T.T.T.T.T.T.T.T.T.T.T.T.T.T.T.T.T.T.T.T.T.T.T.T.T.T.T.T.T.T.T.T.T.T.T.T.T.T.T.T.T.T.T.T.T.T.T.T.T.T.T.T.T.T.T.T.",
"#+#+#+#+#+#+0+]+s$t$u$p@l 4.c b b b 1 } 2 [ d d < < < h h h h < < v$d d 2 } 1 a b b b 4.l 5.|$w$x$y$z$$+#+#+#+#+#+#+#+#+#+#+#+#+#+#+#+#+#+#+#+#+#+#+#+#+#+#+#+#+#+#+#+#+#+#+#+#+#+#+#+#+#+#+#+#+#+#+#+#+#+#+#+#+#+#+#+#+#+#+#+#+#+#+#+#+#+#+#+#+#+#+#+#+#+#+#+#+",
"A$A$A$A$A$A$A$A$A$@#B$C$D$E$F$G$H$I$Y '.c b b b b b b b b b b b b b b b b c '.Y l$J$K$L$M$N$O$@#k+A$A$A$A$A$A$A$A$A$A$A$A$A$A$A$A$A$A$A$A$A$A$A$A$A$A$A$A$A$A$A$A$A$A$A$A$A$A$A$A$A$A$A$A$A$A$A$A$A$A$A$A$A$A$A$A$A$A$A$A$A$A$A$A$A$A$A$A$A$A$A$A$A$A$A$A$A$A$A$",
"P$P$P$P$P$P$P$P$P$P$P$P$P$l+Q$O$R$S$T$U$V$W$X$p$|$Y$Z$J$J$J$J$J$J$Z$`$p$K$V$ %.%+%@%#%$#l+P$P$P$P$P$P$P$P$P$P$P$P$P$P$P$P$P$P$P$P$P$P$P$P$P$P$P$P$P$P$P$P$P$P$P$P$P$P$P$P$P$P$P$P$P$P$P$P$P$P$P$P$P$P$P$P$P$P$P$P$P$P$P$P$P$P$P$P$P$P$P$P$P$P$P$P$P$P$P$P$P$P$P$",
"d#d#d#d#d#d#d#d#d#d#d#d#d#d#d#d#Y+Y+Y+G+G+$%F+Q$%%&%*%=%=%=%=%=%*%*%X+%%F+G+d#Y+Y+d#d#d#d#d#d#d#d#d#d#d#d#d#d#d#d#d#d#d#d#d#d#d#d#d#d#d#d#d#d#d#d#d#d#d#d#d#d#d#d#d#d#d#d#d#d#d#d#d#d#d#d#d#d#d#d#d#d#d#d#d#d#d#d#d#d#d#d#d#d#d#d#d#d#d#d#d#d#d#d#d#d#d#d#d#d#d#",
"G#G#G#G#G#G#G#G#G#G#G#G#G#G#G#G#G#G#G#G#G#G#G#G#G#G#G#G#G#G#G#G#G#G#G#G#G#G#G#G#G#G#G#G#G#G#G#G#G#G#G#G#G#G#G#G#G#G#G#G#G#G#G#G#G#G#G#G#G#G#G#G#G#G#G#G#G#G#G#G#G#G#G#G#G#G#G#G#G#G#G#G#G#G#G#G#G#G#G#G#G#G#G#G#G#G#G#G#G#G#G#G#G#G#G#G#G#G#G#G#G#G#G#G#G#G#G#G#"};
