/* XPM */
static char * waves2_xpm[] = {
"128 38 563 2",
"  	c None",
". 	c #97DEFF",
"+ 	c #9CE0FF",
"@ 	c #9BDFFF",
"# 	c #96DDFF",
"$ 	c #98DEFF",
"% 	c #9ADFFF",
"& 	c #9DE0FF",
"* 	c #9EE1FF",
"= 	c #9CDFFF",
"- 	c #99DFFF",
"; 	c #9EE0FF",
"> 	c #9DE1FF",
", 	c #97DDFE",
"' 	c #9ADEFF",
") 	c #99DEFF",
"! 	c #97DDFF",
"~ 	c #96DCFF",
"{ 	c #95DCFF",
"] 	c #98DDFF",
"^ 	c #97DEFE",
"/ 	c #93DBFF",
"( 	c #90D9FF",
"_ 	c #8ED8FF",
": 	c #8CD7FF",
"< 	c #89D6FF",
"[ 	c #87D5FF",
"} 	c #85D4FF",
"| 	c #84D3FF",
"1 	c #83D3FF",
"2 	c #86D4FF",
"3 	c #88D4FF",
"4 	c #8BD6FF",
"5 	c #8DD7FF",
"6 	c #8FD8FF",
"7 	c #91DAFF",
"8 	c #94DBFF",
"9 	c #99DEFE",
"0 	c #87D4FF",
"a 	c #83D2FF",
"b 	c #82D2FF",
"c 	c #81D2FF",
"d 	c #88D5FF",
"e 	c #8FD9FF",
"f 	c #8ED9FF",
"g 	c #8AD6FF",
"h 	c #86D5FF",
"i 	c #80D1FE",
"j 	c #7ED1FE",
"k 	c #7ED0FE",
"l 	c #7DCFFD",
"m 	c #7BCEFB",
"n 	c #79CDFA",
"o 	c #77CDFA",
"p 	c #75CDFA",
"q 	c #75CCF9",
"r 	c #74CCF9",
"s 	c #73CCF9",
"t 	c #75CCFA",
"u 	c #78CDFA",
"v 	c #79CEFB",
"w 	c #7ACFFC",
"x 	c #7CCFFC",
"y 	c #7DD0FD",
"z 	c #7ED0FD",
"A 	c #7FD1FE",
"B 	c #80D2FF",
"C 	c #93DAFF",
"D 	c #97DCFF",
"E 	c #7BCFFC",
"F 	c #78CDFB",
"G 	c #72CAF8",
"H 	c #6FC8F7",
"I 	c #6CC7F6",
"J 	c #69C6F5",
"K 	c #68C5F4",
"L 	c #67C5F3",
"M 	c #66C5F3",
"N 	c #65C4F3",
"O 	c #65C4F2",
"P 	c #67C5F4",
"Q 	c #6AC6F4",
"R 	c #6CC7F5",
"S 	c #6EC8F7",
"T 	c #71CAF8",
"U 	c #74CBF9",
"V 	c #76CCFA",
"W 	c #79CDFB",
"X 	c #7FD0FE",
"Y 	c #8BD7FF",
"Z 	c #89D5FF",
"` 	c #7CCFFD",
" .	c #78CDFC",
"..	c #73CAF9",
"+.	c #6AC6F5",
"@.	c #67C4F4",
"#.	c #65C4F4",
"$.	c #63C3F3",
"%.	c #62C3F2",
"&.	c #64C3F3",
"*.	c #66C4F4",
"=.	c #72CAF9",
"-.	c #76CCFB",
";.	c #7ACEFC",
">.	c #80D1FF",
",.	c #9ADFFE",
"'.	c #94DCFF",
").	c #90DAFF",
"!.	c #7BCFFD",
"~.	c #75CCFB",
"{.	c #70C9F9",
"].	c #6BC6F6",
"^.	c #67C4F5",
"/.	c #64C3F4",
"(.	c #62C2F3",
"_.	c #62C1F3",
":.	c #61C1F3",
"<.	c #63C2F4",
"[.	c #66C3F5",
"}.	c #69C5F6",
"|.	c #6EC8F8",
"1.	c #74CBFA",
"2.	c #92DAFF",
"3.	c #7ACDFC",
"4.	c #76CBFB",
"5.	c #70C8F9",
"6.	c #69C5F7",
"7.	c #65C2F5",
"8.	c #62C1F4",
"9.	c #61C0F3",
"0.	c #60C0F3",
"a.	c #64C2F5",
"b.	c #68C4F6",
"c.	c #6FC8F8",
"d.	c #8DD8FF",
"e.	c #95DBFF",
"f.	c #81D1FF",
"g.	c #64C1F5",
"h.	c #62C0F4",
"i.	c #5FBFF3",
"j.	c #5FC0F3",
"k.	c #66C2F5",
"l.	c #6CC6F8",
"m.	c #74CAFA",
"n.	c #7BCEFC",
"o.	c #86D3FF",
"p.	c #9ADEFE",
"q.	c #99DDFE",
"r.	c #92DCFE",
"s.	c #85D3FF",
"t.	c #78CCFC",
"u.	c #71C9FA",
"v.	c #6BC5F7",
"w.	c #5EBEF3",
"x.	c #5DBEF3",
"y.	c #60BFF4",
"z.	c #6DC6F9",
"A.	c #95DDFF",
"B.	c #7ACEFD",
"C.	c #74CAFB",
"D.	c #6DC6F8",
"E.	c #66C3F6",
"F.	c #61C0F5",
"G.	c #5FBFF4",
"H.	c #5CBCF4",
"I.	c #5DBDF4",
"J.	c #61BFF5",
"K.	c #68C3F7",
"L.	c #70C8FA",
"M.	c #79CDFD",
"N.	c #9BE0FF",
"O.	c #92DBFF",
"P.	c #91D9FF",
"Q.	c #85D4FE",
"R.	c #64C1F6",
"S.	c #60BFF5",
"T.	c #5BBCF4",
"U.	c #5DBDF5",
"V.	c #62C0F6",
"W.	c #6AC4F8",
"X.	c #75CBFB",
"Y.	c #80D0FE",
"Z.	c #92DAFD",
"`.	c #8AD5FC",
" +	c #7FCFFA",
".+	c #73C8F8",
"++	c #69C3F6",
"@+	c #62BFF5",
"#+	c #5EBCF5",
"$+	c #5CBBF4",
"%+	c #5ABAF4",
"&+	c #5BBAF4",
"*+	c #5DBCF4",
"=+	c #62BEF6",
"-+	c #6CC4F7",
";+	c #7ACBF9",
">+	c #86D3FC",
",+	c #91D9FE",
"'+	c #81D1FE",
")+	c #98DDFE",
"!+	c #93DAFD",
"~+	c #8AD5FB",
"{+	c #7FCEFA",
"]+	c #73C7F8",
"^+	c #68C2F6",
"/+	c #84D1FB",
"(+	c #6DC4F7",
"_+	c #62BFF6",
":+	c #5BBBF4",
"<+	c #59BAF4",
"[+	c #5CBBF5",
"}+	c #65C0F6",
"|+	c #72C7F8",
"1+	c #80CEFA",
"2+	c #8CD5FC",
"3+	c #95DAFE",
"4+	c #73CBF9",
"5+	c #70CAF7",
"6+	c #6FC9F7",
"7+	c #6FC9F6",
"8+	c #6EC8F6",
"9+	c #6DC8F6",
"0+	c #7FD0FD",
"a+	c #94DAFD",
"b+	c #95DBFE",
"c+	c #8DD6FC",
"d+	c #81CFFA",
"e+	c #67C0F7",
"f+	c #5EBBF5",
"g+	c #59B9F5",
"h+	c #58B8F5",
"i+	c #5FBCF6",
"j+	c #68C1F7",
"k+	c #76C9F9",
"l+	c #90D8FD",
"m+	c #70C9F7",
"n+	c #6BC7F6",
"o+	c #63C3F2",
"p+	c #79CEFC",
"q+	c #99DDFF",
"r+	c #91D9FD",
"s+	c #87D2FC",
"t+	c #7ACAF9",
"u+	c #6CC2F8",
"v+	c #5FBCF7",
"w+	c #59B8F6",
"x+	c #57B7F5",
"y+	c #60BCF6",
"z+	c #6DC3F8",
"A+	c #7CCBFA",
"B+	c #89D3FC",
"C+	c #79CDFC",
"D+	c #75CBFA",
"E+	c #6CC6F7",
"F+	c #68C4F5",
"G+	c #65C3F4",
"H+	c #63C2F3",
"I+	c #61C2F3",
"J+	c #68C5F5",
"K+	c #6CC7F7",
"L+	c #71C9F9",
"M+	c #8CD6FD",
"N+	c #80CEFB",
"O+	c #72C6F9",
"P+	c #67BFF8",
"Q+	c #5CBAF6",
"R+	c #56B6F5",
"S+	c #5AB8F6",
"T+	c #63BDF7",
"U+	c #70C4F8",
"V+	c #7FCDFA",
"W+	c #96DCFE",
"X+	c #7DCFFE",
"Y+	c #73CAFA",
"Z+	c #6DC7F8",
"`+	c #68C5F6",
" @	c #65C3F5",
".@	c #64C2F4",
"+@	c #6AC5F6",
"@@	c #6FC8F9",
"#@	c #92D9FD",
"$@	c #6EC3F8",
"%@	c #62BCF7",
"&@	c #5BB8F6",
"*@	c #56B6F6",
"=@	c #54B5F5",
"-@	c #53B5F5",
";@	c #57B6F6",
">@	c #5DB9F6",
",@	c #66BEF8",
"'@	c #75C6F9",
")@	c #83CFFB",
"!@	c #8FD7FD",
"~@	c #98DCFE",
"{@	c #6FC7F8",
"]@	c #64C1F4",
"^@	c #61C0F4",
"/@	c #60BFF3",
"(@	c #69C4F6",
"_@	c #65C2F6",
":@	c #6AC5F7",
"<@	c #71C8F9",
"[@	c #97DCFE",
"}@	c #85D1FC",
"|@	c #7ACAFB",
"1@	c #70C4F9",
"2@	c #6AC1F9",
"3@	c #68C0F9",
"4@	c #6BC2F9",
"5@	c #6DC3F9",
"6@	c #6FC4F9",
"7@	c #71C5F9",
"8@	c #72C5F9",
"9@	c #6DC2F9",
"0@	c #6BC1F9",
"a@	c #68BFF9",
"b@	c #64BDF8",
"c@	c #60BBF8",
"d@	c #5BB8F7",
"e@	c #58B7F7",
"f@	c #56B5F6",
"g@	c #55B5F6",
"h@	c #65BDF8",
"i@	c #71C4F9",
"j@	c #7DCBFB",
"k@	c #7CCEFD",
"l@	c #5EBFF3",
"m@	c #60C0F4",
"n@	c #5EBEF4",
"o@	c #66C2F7",
"p@	c #7ACDFD",
"q@	c #98DEFE",
"r@	c #93D9FE",
"s@	c #91D8FD",
"t@	c #8ED6FD",
"u@	c #8CD4FD",
"v@	c #89D2FC",
"w@	c #84D0FB",
"x@	c #7DCCFB",
"y@	c #77C8FB",
"z@	c #76C8FB",
"A@	c #7BCBFB",
"B@	c #84D0FC",
"C@	c #93D9FD",
"D@	c #77CCFC",
"E@	c #6FC7F9",
"F@	c #67C3F6",
"G@	c #5CBDF4",
"H@	c #60BEF5",
"I@	c #70C7F9",
"J@	c #7BCDFB",
"K@	c #86D4FD",
"L@	c #9BDEFF",
"M@	c #72C9FA",
"N@	c #6AC3F8",
"O@	c #5EBDF4",
"P@	c #5ABBF4",
"Q@	c #5EBDF5",
"R@	c #65C1F5",
"S@	c #6FC6F7",
"T@	c #79CBF9",
"U@	c #8ED7FC",
"V@	c #95DBFD",
"W@	c #82D2FE",
"X@	c #6CC5F9",
"Y@	c #64C0F6",
"Z@	c #85D2FB",
"`@	c #8FD7FC",
" #	c #96DCFD",
".#	c #8CD5FD",
"+#	c #68C1F6",
"@#	c #60BDF5",
"##	c #90D9FD",
"$#	c #76CCF9",
"%#	c #74CCF8",
"&#	c #73CBF8",
"*#	c #72CBF8",
"=#	c #74CBF8",
"-#	c #76CDF9",
";#	c #76CDFA",
">#	c #7ACEFB",
",#	c #7CD0FC",
"'#	c #92D8FD",
")#	c #87D2FB",
"!#	c #6DC3F7",
"~#	c #61BDF6",
"{#	c #5BBAF5",
"]#	c #59B9F4",
"^#	c #58B9F5",
"/#	c #5ABAF5",
"(#	c #5FBDF6",
"_#	c #75C8F8",
":#	c #7ECDF9",
"<#	c #6CC8F5",
"[#	c #6BC7F5",
"}#	c #69C7F4",
"|#	c #68C6F3",
"1#	c #66C5F2",
"2#	c #65C5F2",
"3#	c #67C6F3",
"4#	c #68C6F4",
"5#	c #6AC7F5",
"6#	c #6EC9F6",
"7#	c #7ECDFA",
"8#	c #70C5F8",
"9#	c #64BFF7",
"0#	c #5CBAF5",
"a#	c #59B8F5",
"b#	c #62BDF7",
"c#	c #7BCBFA",
"d#	c #88D3FC",
"e#	c #70C9F8",
"f#	c #66C4F3",
"g#	c #64C3F2",
"h#	c #64C4F3",
"i#	c #68C6F5",
"j#	c #77CDFB",
"k#	c #75C7F9",
"l#	c #66BFF7",
"m#	c #5DBAF6",
"n#	c #56B7F5",
"o#	c #74C7F9",
"p#	c #81CFFB",
"q#	c #96DBFE",
"r#	c #8ED7FF",
"s#	c #77CCFB",
"t#	c #6DC7F7",
"u#	c #69C5F5",
"v#	c #61C2F2",
"w#	c #62C2F2",
"x#	c #6BC6F7",
"y#	c #71C9F8",
"z#	c #79C9FA",
"A#	c #6AC1F8",
"B#	c #5EBAF6",
"C#	c #58B7F6",
"D#	c #55B6F5",
"E#	c #57B6F5",
"F#	c #61BBF6",
"G#	c #6DC2F8",
"H#	c #7ACAFA",
"I#	c #92D9FE",
"J#	c #67C4F6",
"K#	c #60C1F3",
"L#	c #7DD0FE",
"M#	c #9BDEFE",
"N#	c #8BD4FC",
"O#	c #7DCBFA",
"P#	c #55B5F5",
"Q#	c #53B4F5",
"R#	c #54B4F6",
"S#	c #5EBAF7",
"T#	c #68C0F8",
"U#	c #75C8F9",
"V#	c #83D0FB",
"W#	c #8CD8FF",
"X#	c #8ED7FD",
"Y#	c #83CEFC",
"Z#	c #77C8FA",
"`#	c #6AC0F9",
" $	c #60BAF7",
".$	c #59B7F7",
"+$	c #55B5F7",
"@$	c #53B3F6",
"#$	c #52B3F6",
"$$	c #56B5F7",
"%$	c #5FBAF7",
"&$	c #69BFF8",
"*$	c #74C6FA",
"=$	c #80CDFB",
"-$	c #8BD5FD",
";$	c #94DBFE",
">$	c #6EC7F8",
",$	c #5EBDF3",
"'$	c #5FBEF4",
")$	c #63C0F5",
"!$	c #6AC4F7",
"~$	c #90D7FD",
"{$	c #87D1FC",
"]$	c #7CCBFB",
"^$	c #74C5FA",
"/$	c #6EC1F9",
"($	c #69BFF9",
"_$	c #62BCF8",
":$	c #5DB9F8",
"<$	c #59B6F7",
"[$	c #57B5F6",
"}$	c #56B4F6",
"|$	c #57B5F7",
"1$	c #5AB6F7",
"2$	c #5FBAF8",
"3$	c #65BDF9",
"4$	c #6CC1F9",
"5$	c #73C5F9",
"6$	c #77CBFC",
"7$	c #69C4F7",
"8$	c #5DBDF3",
"9$	c #5CBDF3",
"0$	c #5FBEF5",
"a$	c #91D8FE",
"b$	c #8DD5FD",
"c$	c #86D0FB",
"d$	c #85D0FB",
"e$	c #87D1FB",
"f$	c #88D1FC",
"g$	c #93DAFE",
"h$	c #73CAFB",
"i$	c #6CC6F9",
"j$	c #65C2F7",
"k$	c #5DBEF4",
"l$	c #66C1F7",
"m$	c #6FC6F9",
"n$	c #7DCEFE",
"o$	c #80D0FF",
"p$	c #9DDFFF",
"q$	c #7BCDFD",
"r$	c #76CAFC",
"s$	c #6FC7FA",
"t$	c #68C2F8",
"u$	c #65C0F7",
"v$	c #6DC5F9",
"w$	c #75CAFC",
"x$	c #88D6FF",
"y$	c #7BCEFD",
"z$	c #70C7FA",
"A$	c #69C2F8",
"B$	c #63BFF6",
"C$	c #5CBBF6",
"D$	c #61BEF7",
"E$	c #68C1F9",
"F$	c #6DC5FA",
"G$	c #73C9FB",
"H$	c #79CCFC",
"I$	c #7DCEFD",
"J$	c #7ECFFE",
"K$	c #79CCFD",
"L$	c #74C9FC",
"M$	c #6EC6FA",
"N$	c #68C2F9",
"O$	c #62BEF7",
"P$	c #5DBBF6",
"Q$	c #57B8F5",
"R$	c #5AB9F6",
"S$	c #60BDF7",
"T$	c #64BFF8",
"U$	c #69C2F9",
"V$	c #6DC4FA",
"W$	c #70C6FB",
"X$	c #73C8FB",
"Y$	c #75C9FC",
"Z$	c #78CBFD",
"`$	c #78CCFD",
" %	c #78CBFC",
".%	c #6CC4FA",
"+%	c #67C1F9",
"@%	c #62BEF8",
"#%	c #5EBCF7",
"$%	c #5BBAF6",
"%%	c #58B7F5",
"&%	c #5BB9F6",
"*%	c #5CBAF7",
"=%	c #5DBAF7",
"-%	c #5EBBF7",
"                                  . + @ # # $ % + & * * * * * & + = @ % - % & ; > %                                                                                                                                                                             ",
"                        , % + @ @ + & + = ' ) ) $ ! ~ { ~ ~ ! ! ] ) ' % @ = & * * ; & & & & @ %                                                                                                                                                                 ",
"              ^ @ ) @ & + @ ) # / ( _ : < [ } | | | | 1 1 | | | | } 2 3 < 4 5 6 7 8 ! ) = & > * * > + & @                                                                                                                                                       ",
"      ^ 9 @ = = @ $ { 7 5 < 0 } 1 a b b b b b b b b c c c b b b b b b b b b b b a | } 0 d : e 8 ! % + & ; * * + @                                                                                                                                               ",
"- % @ = % ! / f g h | a b b b b c i j k l m n o p q r s s r q q t p o u v w x y z A i B b b b 1 } [ g _ C D % + & & + > @                                                                                                                                       ",
"@ ! / _ < } | a b b c i z E F q G H I J K L M N N N O O O O N N N N N M M M P K Q R S T U V W x X i c b | } [ Y ( 8 $ + & & & =                                                                                                                         $ % @ + ",
"Z 2 | b b b c X `  ...S +.@.#.$.$.%.%.%.%.%.%.%.%.%.%.%.%.%.%.%.%.%.%.%.%.%.%.%.%.%.%.%.$.&.*.P +.S =.-.;.k >.c a | 0 g 6 8 ) @ = @ ,.                                                                                                            $ @ @ @ ) '.).",
"b b >.k !.~.{.].^./.(._.:.:.:.:.:.:.:.:.:.:.:.:.:.:.:.:.:.:.:.:.:.:.:.:.:.:.:.:.:.:.:.:.:.:.:.:.:.(.(.<.[.}.|.1.;.k i b a | [ Y 7 $ + & = =                                                                                                 @ @ = @ ! 2.: d | a ",
"3.4.5.6.7.8.9.0.0.0.0.0.0.0.0.0.0.0.0.0.0.0.0.0.0.0.0.0.0.0.0.0.0.0.0.0.0.0.0.0.0.0.0.0.0.0.0.0.0.0.0.0.0.0.0.8.a.b.c.-.` A c b | [ d.e.@ ; * & =                                                                                   ! ' = @ ) 8 e g 2 1 b b f.>.",
"g.h.i.i.i.i.i.i.i.i.i.i.i.i.i.i.i.i.i.i.i.i.i.i.i.i.i.i.i.i.i.i.i.i.i.i.i.i.i.i.i.i.i.i.i.i.i.i.i.i.i.i.i.i.i.i.i.i.j.8.k.l.m.n.A c a o.g ).! = * * ; & @ p.                                      @ p.q.q.9               r.# % + + % D 2.: d s.1 b b i ` t.u.v.",
"w.x.x.x.x.x.x.x.x.x.x.x.x.x.x.x.x.x.x.x.x.x.x.x.x.x.x.x.x.x.x.x.x.x.x.x.x.x.x.x.x.x.x.x.x.x.x.x.x.x.x.x.x.x.x.x.x.x.x.x.w.w.y.7.z.4.l f.b 1 2 4 2.] = * * * & @ @ ) A.A.$ % & * = = @ + & ; * * * > & & & & & * & + @ ) - % + % ! 2.: [ | b b f.X B.C.D.E.F.G.w.",
"H.H.H.H.H.H.H.H.H.H.H.H.H.H.H.H.H.H.H.H.H.H.H.H.H.H.H.H.H.H.H.H.H.H.H.H.H.H.H.H.H.H.H.H.H.H.H.H.H.H.H.H.H.H.H.H.H.H.H.H.H.H.H.H.I.J.K.L.M.k c b 1 0 Y 7 . N.& & + + & & ; ; * & = ' ] ! ~ { / O.7 ( ( e e ( P.2.C 8 ~ ! ) % + + + % ] 8 e Y Q.3.D.R.S.I.H.H.H.H.",
"T.T.T.T.T.T.T.T.T.T.T.T.T.T.T.T.T.T.T.T.T.T.T.T.T.T.T.T.T.T.T.T.T.T.T.T.T.T.T.T.T.T.T.T.T.T.T.T.T.T.T.T.T.T.T.T.T.T.T.T.T.T.T.T.T.T.T.U.V.W.X.Y.0 : 7 { ' + ; ; & = % ! 8 P.6 : < d 2 } | 1 1 a a a a a a a a a 1 1 | s.2 d 4 d.( 8 ! ' @ @ ] Z.`. +.+++@+I.H.T.",
"#+$+%+%+%+%+%+%+%+%+%+%+%+%+%+%+%+%+%+%+%+%+%+%+%+%+%+%+%+%+%+%+%+%+%+%+%+%+%+%+%+%+%+%+%+%+%+%+%+%+%+%+%+%+%+%+%+%+%+%+%+%+%+%+%+&+*+=+-+;+>+,+) + & + @ $ 8 7 d.g 0 } | 1 a b b b c c f.'+i i i i i i i i i i '+f.c b b b b b 1 | } d Y e / ! % @ )+!+~+{+]+^+",
"/+;+(+_+:+<+<+<+<+<+<+<+<+<+<+<+<+<+<+<+<+<+<+<+<+<+<+<+<+<+<+<+<+<+<+<+<+<+<+<+<+<+<+<+<+<+<+<+<+<+<+<+<+<+<+<+<+<+<+<+<+<+<+[+}+|+1+2+3+p.+ @ ) { 7 5 d 2 | a b b c i z ` n.v o V U 4+G 5+6+7+8+9+9+9+9+8+8+6+5+=.1.V W n.l 0+i c b b b a | 2 < d.2.! ' ' )+a+",
"% ' b+c+d+]+e+f+g+h+h+h+h+h+h+h+h+h+h+h+h+h+h+h+h+h+h+h+h+h+h+h+h+h+h+h+h+h+h+h+h+h+h+h+h+h+h+h+h+h+h+h+h+h+h+h+h+h+h+g+i+j+k+/+l+)+@ % ] 8 e 4 [ s.a b >.X y ;.V 4+m+9+n+J P #.&.&.&.&.&.o+o+o+o+o+o+o+o+o+o+o+o+&.&.&.#.P J I H G t p+l A f.b b a | 2 < d./ ! ",
"Y e e.q+% )+r+s+t+u+v+w+x+x+x+x+x+x+x+x+x+x+x+x+x+x+x+x+x+x+x+x+x+x+x+x+x+x+x+x+x+x+x+x+x+x+x+x+x+x+x+x+x+x+x+x+g+y+z+A+B+!+q.' ] 8 e g 2 | b c i y C+D+{.E+F+G+/.H+(.:.:.:.I+(.(.(.(.(.(.(.(.(.(.(.(.(.(.(.(.(.(.(.(.(.(.(.:.:.(.(.H+G+J+K+L+4.n.z >.c b a | s.",
"b a | [ : 7 ! ' ' b+M+N+O+P+Q+x+R+R+R+R+R+R+R+R+R+R+R+R+R+R+R+R+R+R+R+R+R+R+R+R+R+R+R+R+R+R+R+R+R+R+R+R+R+S+T+U+V+2+W+@ + ) / : [ | a b i X+W Y+Z+`+ @<.:.:.:.:.:.:.:.:.:.:.:.:.:.:.:.:.:.:.:.:.:.:.:.:.:.:.:.:.:.:.:.:.:.:.:.:.:.:.:.:.:.:._..@[.+@@@X.;.k i b ",
"l X '+b b | 2 g e '.$ ' )+#@B+A+$@%@&@*@=@=@=@=@=@-@-@-@-@-@-@-@=@=@=@=@=@=@=@=@=@=@=@=@=@=@=@=@=@;@>@,@'@)@!@~@= & @ # e Z | a c i ` 4.{@b.]@^@0.i.i.i.i.i.i.i.i.i.i.i.i.i.i.i.i.i.i.i.i.i.i.i.i.i.i.i.i.i.i.i.i.i.i.i.i.i.i.i.i.i.i.i.i.i.i.i.i./@0.h.a.(@{@m.",
"_@:@<@t.X+i b b 1 } d : 2.# ) p.[@l+}@|@1@2@3@4@5@6@1@7@8@7@1@6@9@0@a@b@c@d@e@;@f@g@g@g@g@;@d@h@i@j@B+!+p.& * + ] 7 Y 2 1 b i k@X.D.E.^@i.w.w.w.w.w.w.w.w.w.w.w.w.w.w.w.w.w.w.w.w.w.w.w.w.w.w.w.w.w.w.w.w.w.w.w.w.w.w.w.w.w.w.w.w.w.w.w.w.w.w.w.w.w.w.w.w.l@i.m@",
"I.I.n@F.o@z.C.p@k f.b a | [ d.O.# q@- % )+W+b+W+)+q.) ' ' ' q+q+)+W+3+r@s@t@u@v@w@x@y@z@A@B@u@C@q.= ; ; = ] O.: 0 | b c k D@E@F@S.n@I.G@G@G@G@G@G@G@G@G@G@G@G@G@G@G@G@G@G@G@G@G@G@G@G@G@G@G@G@G@G@G@G@G@G@G@G@G@G@G@G@G@G@G@G@G@G@G@G@G@G@G@G@G@G@G@G@G@G@G@G@G@",
"H.H.H.H.H.I.H@o@I@J@K@_ O.{ ] @ = = @ % ) ] ~ e./ / C 2.2.2./ / 8 { ! ] ' @ + + = = L@L@@ = & & & @ ! 7 Y 0 1 b c X 3.M@N@_+O@H.H.H.H.H.H.H.H.H.H.H.H.H.H.H.H.H.H.H.H.H.H.H.H.H.H.H.H.H.H.H.H.H.H.H.H.H.H.H.H.H.H.H.H.H.H.H.H.H.H.H.H.H.H.H.H.H.H.H.H.H.H.H.H.H.",
"P@P@:+Q@R@S@T@/+U@V@q+@ @ ) ~ / ( 5 g d [ 2 } | 1 1 a a a 1 1 1 | | } 2 0 d < : _ 7 8 # q+@ & ; & + @ ! C 6 < W@t.X@Y@Q@:+P@P@P@P@P@P@P@P@P@P@P@P@P@P@P@P@P@P@P@P@P@P@P@P@P@P@P@P@P@P@P@P@P@P@P@P@P@P@P@P@P@P@P@P@P@P@P@P@P@P@P@P@P@P@P@P@P@P@P@P@P@P@P@P@P@P@P@",
"}+(+T@Z@`@ #p.@ ) ~ 2._ g [ s.| a b b b b b b b c B B B B B B B c c b b b b b b a a | s.0 < : e / ! ' = & & % b+.#1+|++#@#:+%+%+%+%+%+%+%+%+%+%+%+%+%+%+%+%+%+%+%+%+%+%+%+%+%+%+%+%+%+%+%+%+%+%+%+%+%+%+%+%+%+%+%+%+%+%+%+%+%+%+%+%+%+%+%+%+%+%+%+%+%+%+%+%+%+:+",
"##b+) ' $ e.( 4 [ } | b b b c '+i A y E v o $#q %#&#*#*#*#*#*#*#&#=#q -#;#o v >#E ,#j i i c b a | } d 4 e / ! % + = )+'#)#;+!#~#{#]#^#^#^#^#^#^#^#^#^#^#^#^#^#^#^#^#^#^#^#^#^#^#^#^#^#^#^#^#^#^#^#^#^#^#^#^#^#^#^#^#^#^#^#^#^#^#^#^#^#^#^#^#^#^#^#^#^#/#(#j+_#:#",
"] e.( Y [ | a b b c >.k !.v $#*#7+<#[#}#|#M 1#1#2#2#2#2#2#2#2#2#2#2#1#1#M M 3#4#}#5#<#6#5+s o ;.x z i b b | 2 Z 5 2.~ ' = ' b+2+7#8#9#0#a#h+h+h+h+h+h+h+h+h+h+h+h+h+h+h+h+h+h+h+h+h+h+h+h+h+h+h+h+h+h+h+h+h+h+h+h+h+h+h+h+h+h+h+h+h+h+h+h+h+h+h+{#b#$@c#d##@)+L@",
"[ | a b b c A l W U e#I 4#f#N g#o+o+o+o+o+o+o+o+o+o+o+o+o+o+o+o+o+o+o+o+o+o+o+o+o+o+o+o+o+h#N *.i#R H ..j#E k >.b 1 s.d 5 7 ~ ' ' [@`@w@k#l#m#h+n#n#n#n#n#n#n#n#n#n#n#n#n#n#n#n#n#n#n#n#n#n#n#n#n#n#n#n#n#n#n#n#n#n#n#n#n#n#n#n#n#n#n#n#h+m#l#o#p#t@q#' ' ! 2.r#",
"b f.X ` s#=.t#u##.$.(.I+v#w#w#w#w#w#w#w#w#w#w#w#w#w#w#w#w#w#w#w#w#w#w#w#w#w#w#w#w#w#w#w#w#w#w#w#I+I+(.$.#.J+x#y#V E X f.b 1 } < 6 ~ @ = q.#@s+z#A#B#C#R+D#D#R+R+R+R+R+R+R+R+R+R+R+R+R+R+R+R+R+R+R+R+R+R+R+R+R+R+R+R+R+R+R+D#D#R+E#S+F#G#H#s+I#)+' ) { e g 2 | b ",
"s#..t#J#/.8.:.:.K#K#K#K#K#K#K#K#K#K#K#K#K#K#K#K#K#K#K#K#K#K#K#K#K#K#K#K#K#K#K#K#K#K#K#K#K#K#K#K#K#K#K#K#K#:.:.:..@^.E+=. .L#>.b a o.4 7 $ + & M#3+N#O#$@%@C#P#=@=@Q#R#R#R#R#R#R#R#R#R#R#R#R#R#R#R#R#R#R#R#R#R#R#R#Q#=@=@P#;@S#T#U#V#t@W+' % ! 2.W#d | a b c i z ",
"h.^@/@i.i.i.i.i.i.i.i.i.i.i.i.i.i.i.i.i.i.i.i.i.i.i.i.i.i.i.i.i.i.i.i.i.i.i.i.i.i.i.i.i.i.i.i.i.i.i.i.i.i.i.i.i.i.i./@^@a.6.<@D@k f.b | d d.8 ' & * = [@X#Y#Z#`# $.$+$@$#$@$@$@$@$@$@$@$@$@$@$@$@$@$@$@$@$@$#$@$$$.$%$&$*$=$-$;$p.L@) 8 e g 2 | b b i k ;.m.>$(@",
",$,$,$,$,$,$,$,$,$,$,$,$,$,$,$,$,$,$,$,$,$,$,$,$,$,$,$,$,$,$,$,$,$,$,$,$,$,$,$,$,$,$,$,$,$,$,$,$,$,$,$,$,$,$,$,$,$,$,$,$,$,$'$)$!$M@p@Y.b b s.Z f 8 ) & * ; L@q#~${$]$^$/$($_$:$<$[$}$}$}$}$}$}$}$}$|$1$2$3$4$5$]${$!@b+) @ ) { P.Y [ | a b c >.k@6$5.7$g.y.w.,$",
"8$8$8$8$8$8$8$8$8$8$8$8$8$8$8$8$8$8$8$8$8$8$8$8$8$8$8$8$8$8$8$8$8$8$8$8$8$8$8$8$8$8$8$8$8$8$8$8$8$8$8$8$8$8$8$8$8$8$8$8$8$8$8$9$I.0$R.z.X.k@>.c a | d d.2.! ' = & & & @ q+b+a$b$N#v@{$c$d$d$d$c$e$f$v@N#X#g$, ' @ ' ) { P.: d s.a b b >.k p@h$i$j$S.k$9$9$8$8$8$",
"T.T.T.T.T.T.T.T.T.T.T.T.T.T.T.T.T.T.T.T.T.T.T.T.T.T.T.T.T.T.T.T.T.T.T.T.T.T.T.T.T.T.T.T.T.T.T.T.T.T.T.T.T.T.T.T.T.T.T.T.T.T.T.T.T.T.T.H.0$l$m$6$n$o$c b 1 } [ Y e 2.'.~ ] ) % = & + = p$p$p$= = = = @ ' $ # 8 7 d.g 0 s.1 b b f.X q$r$s$t$_+Q@H.T.T.T.T.T.T.T.T.",
"%+%+%+%+%+%+%+%+%+%+%+%+%+%+%+%+%+%+%+%+%+%+%+%+%+%+%+%+%+%+%+%+%+%+%+%+%+%+%+%+%+%+%+%+%+%+%+%+%+%+%+%+%+%+%+%+%+%+%+%+%+%+%+%+%+%+%+%+%+%+:+@#u$v$w$p@k f.c b b b 1 } 2 [ d d < < < g g g g < < x$d d 2 } 1 a b b b f.k y$6$z$A$B$#+&+%+%+%+%+%+%+%+%+%+%+%+%+",
"]#]#]#]#]#]#]#]#]#]#]#]#]#]#]#]#]#]#]#]#]#]#]#]#]#]#]#]#]#]#]#]#]#]#]#]#]#]#]#]#]#]#]#]#]#]#]#]#]#]#]#]#]#]#]#]#]#]#]#]#]#]#]#]#]#]#]#]#]#]#]#]#]#/#C$D$E$F$G$H$I$J$X >.c b b b b b b b b b b b b b b b b c >.X n$K$L$M$N$O$P$/#g+]#]#]#]#]#]#]#]#]#]#]#]#]#]#]#",
"Q$Q$Q$Q$Q$Q$Q$Q$Q$Q$Q$Q$Q$Q$Q$Q$Q$Q$Q$Q$Q$Q$Q$Q$Q$Q$Q$Q$Q$Q$Q$Q$Q$Q$Q$Q$Q$Q$Q$Q$Q$Q$Q$Q$Q$Q$Q$Q$Q$Q$Q$Q$Q$Q$Q$Q$Q$Q$Q$Q$Q$Q$Q$Q$Q$Q$Q$Q$Q$Q$Q$Q$Q$Q$Q$Q$Q$h+R$P$S$T$U$V$W$X$Y$r$6$Z$`$K$K$K$K$K$K$`$ %r$L$W$.%+%@%#%$%^#h+Q$Q$Q$Q$Q$Q$Q$Q$Q$Q$Q$Q$Q$Q$Q$Q$Q$Q$Q$",
"n#n#n#n#n#n#n#n#n#n#n#n#n#n#n#n#n#n#n#n#n#n#n#n#n#n#n#n#n#n#n#n#n#n#n#n#n#n#n#n#n#n#n#n#n#n#n#n#n#n#n#n#n#n#n#n#n#n#n#n#n#n#n#n#n#n#n#n#n#n#n#n#n#n#n#n#n#n#n#n#R+R+R+x+x+%%w+R$&%*%=%-%-%-%-%-%=%=%Q+&%w+x+n#R+R+n#n#n#n#n#n#n#n#n#n#n#n#n#n#n#n#n#n#n#n#n#n#n#",
"P#P#P#P#P#P#P#P#P#P#P#P#P#P#P#P#P#P#P#P#P#P#P#P#P#P#P#P#P#P#P#P#P#P#P#P#P#P#P#P#P#P#P#P#P#P#P#P#P#P#P#P#P#P#P#P#P#P#P#P#P#P#P#P#P#P#P#P#P#P#P#P#P#P#P#P#P#P#P#P#P#P#P#P#P#P#P#P#P#P#P#P#P#P#P#P#P#P#P#P#P#P#P#P#P#P#P#P#P#P#P#P#P#P#P#P#P#P#P#P#P#P#P#P#P#P#P#P#"};
