/* XPM */
static char * waves0_xpm[] = {
"128 38 562 2",
"  	c None",
". 	c #9CDFFF",
"+ 	c #9BDFFF",
"@ 	c #9ADFFF",
"# 	c #99DFFF",
"$ 	c #9DE0FF",
"% 	c #9EE0FF",
"& 	c #9DE1FF",
"* 	c #97DEFF",
"= 	c #9CE0FF",
"- 	c #96DDFF",
"; 	c #98DEFF",
"> 	c #9EE1FF",
", 	c #99DDFF",
"' 	c #99DEFF",
") 	c #9ADEFF",
"! 	c #97DDFE",
"~ 	c #97DDFF",
"{ 	c #96DCFF",
"] 	c #95DCFF",
"^ 	c #97DCFF",
"/ 	c #84D3FF",
"( 	c #85D4FF",
"_ 	c #86D4FF",
": 	c #88D4FF",
"< 	c #89D6FF",
"[ 	c #8BD6FF",
"} 	c #8DD7FF",
"| 	c #8FD8FF",
"1 	c #91DAFF",
"2 	c #94DBFF",
"3 	c #97DEFE",
"4 	c #93DBFF",
"5 	c #90D9FF",
"6 	c #8ED8FF",
"7 	c #8CD7FF",
"8 	c #87D5FF",
"9 	c #83D3FF",
"0 	c #82D2FF",
"a 	c #83D2FF",
"b 	c #87D4FF",
"c 	c #88D5FF",
"d 	c #8FD9FF",
"e 	c #99DEFE",
"f 	c #81D2FF",
"g 	c #75CCFA",
"h 	c #75CDFA",
"i 	c #77CDFA",
"j 	c #78CDFA",
"k 	c #79CEFB",
"l 	c #7ACFFC",
"m 	c #7CCFFC",
"n 	c #7DD0FD",
"o 	c #7ED0FD",
"p 	c #7FD1FE",
"q 	c #80D1FE",
"r 	c #80D2FF",
"s 	c #8AD6FF",
"t 	c #93DAFF",
"u 	c #94DCFE",
"v 	c #8ED9FF",
"w 	c #86D5FF",
"x 	c #7ED1FE",
"y 	c #7ED0FE",
"z 	c #7DCFFD",
"A 	c #7BCEFB",
"B 	c #79CDFA",
"C 	c #75CCF9",
"D 	c #74CCF9",
"E 	c #73CCF9",
"F 	c #65C4F3",
"G 	c #66C5F3",
"H 	c #67C5F4",
"I 	c #68C5F4",
"J 	c #6AC6F4",
"K 	c #6CC7F5",
"L 	c #6EC8F7",
"M 	c #71CAF8",
"N 	c #74CBF9",
"O 	c #76CCFA",
"P 	c #79CDFB",
"Q 	c #7FD0FE",
"R 	c #8BD7FF",
"S 	c #7BCFFC",
"T 	c #78CDFB",
"U 	c #72CAF8",
"V 	c #6FC8F7",
"W 	c #6CC7F6",
"X 	c #69C6F5",
"Y 	c #67C5F3",
"Z 	c #65C4F2",
"` 	c #62C3F2",
" .	c #63C3F3",
"..	c #64C3F3",
"+.	c #66C4F4",
"@.	c #6AC6F5",
"#.	c #72CAF9",
"$.	c #76CCFB",
"%.	c #7ACEFC",
"&.	c #80D1FF",
"*.	c #9ADFFE",
"=.	c #94DCFF",
"-.	c #7CCFFD",
";.	c #78CDFC",
">.	c #73CAF9",
",.	c #67C4F4",
"'.	c #65C4F4",
").	c #61C1F3",
"!.	c #62C2F3",
"~.	c #63C2F4",
"{.	c #66C3F5",
"].	c #69C5F6",
"^.	c #6EC8F8",
"/.	c #74CBFA",
"(.	c #92DAFF",
"_.	c #7BCFFD",
":.	c #75CCFB",
"<.	c #70C9F9",
"[.	c #6BC6F6",
"}.	c #67C4F5",
"|.	c #64C3F4",
"1.	c #62C1F3",
"2.	c #60C0F3",
"3.	c #62C1F4",
"4.	c #64C2F5",
"5.	c #68C4F6",
"6.	c #6FC8F8",
"7.	c #8DD8FF",
"8.	c #95DBFF",
"9.	c #81D1FF",
"0.	c #7BCEFD",
"a.	c #76CBFB",
"b.	c #70C8F9",
"c.	c #69C5F7",
"d.	c #65C2F5",
"e.	c #61C0F3",
"f.	c #5FBFF3",
"g.	c #5FC0F3",
"h.	c #66C2F5",
"i.	c #6CC6F8",
"j.	c #74CAFA",
"k.	c #7BCEFC",
"l.	c #86D3FF",
"m.	c #90DAFF",
"n.	c #9ADEFE",
"o.	c #99DDFE",
"p.	c #92DCFE",
"q.	c #85D3FF",
"r.	c #78CCFC",
"s.	c #71C8FA",
"t.	c #6AC5F7",
"u.	c #62C0F4",
"v.	c #5DBEF3",
"w.	c #5EBEF3",
"x.	c #60BFF4",
"y.	c #6DC6F9",
"z.	c #98DDFF",
"A.	c #95DDFF",
"B.	c #7ACEFD",
"C.	c #74CAFB",
"D.	c #6DC6F8",
"E.	c #66C3F6",
"F.	c #61C0F5",
"G.	c #5FBFF4",
"H.	c #5CBCF4",
"I.	c #5DBDF4",
"J.	c #61BFF5",
"K.	c #68C3F7",
"L.	c #70C8FA",
"M.	c #79CDFD",
"N.	c #9BE0FF",
"O.	c #92DBFF",
"P.	c #91D9FF",
"Q.	c #85D4FE",
"R.	c #7ACDFC",
"S.	c #64C1F6",
"T.	c #60BFF5",
"U.	c #5BBCF4",
"V.	c #5DBDF5",
"W.	c #62C0F6",
"X.	c #6AC4F8",
"Y.	c #75CBFB",
"Z.	c #80D0FE",
"`.	c #92DAFD",
" +	c #8AD5FC",
".+	c #7FCFFA",
"++	c #73C8F8",
"@+	c #69C3F6",
"#+	c #62BFF5",
"$+	c #5ABAF4",
"%+	c #5BBAF4",
"&+	c #5DBCF4",
"*+	c #62BEF6",
"=+	c #6CC4F7",
"-+	c #7ACBF9",
";+	c #86D3FC",
">+	c #91D9FE",
",+	c #81D1FE",
"'+	c #98DDFE",
")+	c #93DAFD",
"!+	c #8AD5FB",
"~+	c #7FCEFA",
"{+	c #73C7F8",
"]+	c #67C1F6",
"^+	c #60BDF5",
"/+	c #5CBBF4",
"(+	c #59BAF4",
"_+	c #5CBBF5",
":+	c #65C0F6",
"<+	c #72C7F8",
"[+	c #80CEFA",
"}+	c #8CD5FC",
"|+	c #95DAFE",
"1+	c #73CBF9",
"2+	c #70CAF7",
"3+	c #6FC9F7",
"4+	c #6FC9F6",
"5+	c #6EC8F6",
"6+	c #6DC8F6",
"7+	c #7FD0FD",
"8+	c #91D9FD",
"9+	c #87D3FB",
"0+	c #6DC4F7",
"a+	c #62BFF6",
"b+	c #5BBBF4",
"c+	c #58B8F5",
"d+	c #59B9F5",
"e+	c #5FBCF6",
"f+	c #68C1F7",
"g+	c #76C9F9",
"h+	c #84D1FB",
"i+	c #90D8FD",
"j+	c #70C9F7",
"k+	c #6BC7F6",
"l+	c #63C3F2",
"m+	c #79CEFC",
"n+	c #95DBFE",
"o+	c #8DD6FC",
"p+	c #81CFFA",
"q+	c #67C0F7",
"r+	c #5EBBF5",
"s+	c #57B7F5",
"t+	c #60BCF6",
"u+	c #6DC3F8",
"v+	c #7CCBFA",
"w+	c #89D3FC",
"x+	c #79CDFC",
"y+	c #75CBFA",
"z+	c #6CC6F7",
"A+	c #68C4F5",
"B+	c #65C3F4",
"C+	c #63C2F3",
"D+	c #61C2F3",
"E+	c #68C5F5",
"F+	c #6CC7F7",
"G+	c #71C9F9",
"H+	c #87D2FC",
"I+	c #7ACAF9",
"J+	c #6CC2F8",
"K+	c #5FBCF7",
"L+	c #59B8F6",
"M+	c #56B6F5",
"N+	c #5AB8F6",
"O+	c #63BDF7",
"P+	c #70C4F8",
"Q+	c #7FCDFA",
"R+	c #96DCFE",
"S+	c #7DCFFE",
"T+	c #73CAFA",
"U+	c #6DC7F8",
"V+	c #68C5F6",
"W+	c #65C3F5",
"X+	c #64C2F4",
"Y+	c #6AC5F6",
"Z+	c #6FC8F9",
"`+	c #8CD6FD",
" @	c #80CEFB",
".@	c #72C6F9",
"+@	c #67BFF8",
"@@	c #5CBAF6",
"#@	c #54B5F5",
"$@	c #57B6F6",
"%@	c #5DB9F6",
"&@	c #66BEF8",
"*@	c #75C6F9",
"=@	c #83CFFB",
"-@	c #8FD7FD",
";@	c #98DCFE",
">@	c #89D5FF",
",@	c #6FC7F8",
"'@	c #64C1F4",
")@	c #61C0F4",
"!@	c #60BFF3",
"~@	c #69C4F6",
"{@	c #92D9FD",
"]@	c #6EC3F8",
"^@	c #62BCF7",
"/@	c #5BB8F6",
"(@	c #56B6F6",
"_@	c #53B5F5",
":@	c #6DC2F9",
"<@	c #6BC1F9",
"[@	c #68BFF9",
"}@	c #64BDF8",
"|@	c #60BBF8",
"1@	c #5BB8F7",
"2@	c #58B7F7",
"3@	c #56B5F6",
"4@	c #55B5F6",
"5@	c #65BDF8",
"6@	c #71C4F9",
"7@	c #7DCBFB",
"8@	c #7CCEFD",
"9@	c #5EBFF3",
"0@	c #71C8F9",
"a@	c #97DCFE",
"b@	c #85D1FC",
"c@	c #7ACAFB",
"d@	c #70C4F9",
"e@	c #6AC1F9",
"f@	c #68C0F9",
"g@	c #6BC2F9",
"h@	c #6DC3F9",
"i@	c #6FC4F9",
"j@	c #71C5F9",
"k@	c #72C5F9",
"l@	c #93D9FE",
"m@	c #91D8FD",
"n@	c #8ED6FD",
"o@	c #8CD4FD",
"p@	c #89D2FC",
"q@	c #84D0FB",
"r@	c #7DCCFB",
"s@	c #77C8FB",
"t@	c #76C8FB",
"u@	c #7BCBFB",
"v@	c #84D0FC",
"w@	c #93D9FD",
"x@	c #77CCFC",
"y@	c #6FC7F9",
"z@	c #67C3F6",
"A@	c #5EBEF4",
"B@	c #5CBDF4",
"C@	c #66C2F7",
"D@	c #7ACDFD",
"E@	c #98DEFE",
"F@	c #9BDEFF",
"G@	c #72C9FA",
"H@	c #6AC3F8",
"I@	c #5EBDF4",
"J@	c #60BEF5",
"K@	c #70C7F9",
"L@	c #7BCDFB",
"M@	c #86D4FD",
"N@	c #82D2FE",
"O@	c #6CC5F9",
"P@	c #64C0F6",
"Q@	c #5EBDF5",
"R@	c #5ABBF4",
"S@	c #65C1F5",
"T@	c #6FC6F7",
"U@	c #79CBF9",
"V@	c #8ED7FC",
"W@	c #95DBFD",
"X@	c #8CD5FD",
"Y@	c #68C1F6",
"Z@	c #5DBCF5",
"`@	c #63BFF5",
" #	c #85D2FB",
".#	c #8FD7FC",
"+#	c #96DCFD",
"@#	c #73CBF8",
"##	c #74CBF8",
"$#	c #76CDF9",
"%#	c #76CDFA",
"&#	c #7ACEFB",
"*#	c #7CD0FC",
"=#	c #92D8FD",
"-#	c #87D2FB",
";#	c #6DC3F7",
">#	c #61BDF6",
",#	c #5BBAF5",
"'#	c #59B9F4",
")#	c #58B9F5",
"!#	c #5ABAF5",
"~#	c #5FBDF6",
"{#	c #74C8F9",
"]#	c #76CCF9",
"^#	c #74CCF8",
"/#	c #72CBF8",
"(#	c #65C5F2",
"_#	c #66C5F2",
":#	c #67C6F3",
"<#	c #68C6F4",
"[#	c #69C7F4",
"}#	c #6AC7F5",
"|#	c #6CC8F5",
"1#	c #6EC9F6",
"2#	c #7ECDFA",
"3#	c #70C5F8",
"4#	c #64BFF7",
"5#	c #5CBAF5",
"6#	c #59B8F5",
"7#	c #62BDF7",
"8#	c #7BCBFA",
"9#	c #88D3FC",
"0#	c #6BC7F5",
"a#	c #68C6F3",
"b#	c #64C4F3",
"c#	c #68C6F5",
"d#	c #77CDFB",
"e#	c #75C7F9",
"f#	c #66BFF7",
"g#	c #5DBAF6",
"h#	c #56B7F5",
"i#	c #74C7F9",
"j#	c #81CFFB",
"k#	c #96DBFE",
"l#	c #70C9F8",
"m#	c #66C4F3",
"n#	c #64C3F2",
"o#	c #62C2F2",
"p#	c #6BC6F7",
"q#	c #71C9F8",
"r#	c #79C9FA",
"s#	c #6AC1F8",
"t#	c #5EBAF6",
"u#	c #58B7F6",
"v#	c #55B6F5",
"w#	c #57B6F5",
"x#	c #61BBF6",
"y#	c #6DC2F8",
"z#	c #7ACAFA",
"A#	c #92D9FE",
"B#	c #77CCFB",
"C#	c #6DC7F7",
"D#	c #69C5F5",
"E#	c #61C2F2",
"F#	c #60C1F3",
"G#	c #7DD0FE",
"H#	c #9BDEFE",
"I#	c #8BD4FC",
"J#	c #7DCBFA",
"K#	c #55B5F5",
"L#	c #53B4F5",
"M#	c #54B4F6",
"N#	c #5EBAF7",
"O#	c #68C0F8",
"P#	c #75C8F9",
"Q#	c #83D0FB",
"R#	c #8CD8FF",
"S#	c #67C4F6",
"T#	c #8ED7FD",
"U#	c #83CEFC",
"V#	c #77C8FA",
"W#	c #6AC0F9",
"X#	c #60BAF7",
"Y#	c #59B7F7",
"Z#	c #55B5F7",
"`#	c #53B3F6",
" $	c #52B3F6",
".$	c #56B5F7",
"+$	c #5FBAF7",
"@$	c #69BFF8",
"#$	c #74C6FA",
"$$	c #80CDFB",
"%$	c #8BD5FD",
"&$	c #94DBFE",
"*$	c #6EC7F8",
"=$	c #63C1F4",
"-$	c #60C0F4",
";$	c #5EBDF3",
">$	c #5FBEF4",
",$	c #63C0F5",
"'$	c #6AC4F7",
")$	c #90D7FD",
"!$	c #87D1FC",
"~$	c #7CCBFB",
"{$	c #74C5FA",
"]$	c #6EC1F9",
"^$	c #69BFF9",
"/$	c #62BCF8",
"($	c #5DB9F8",
"_$	c #59B6F7",
":$	c #57B5F6",
"<$	c #56B4F6",
"[$	c #57B5F7",
"}$	c #5AB6F7",
"|$	c #5FBAF8",
"1$	c #65BDF9",
"2$	c #6CC1F9",
"3$	c #73C5F9",
"4$	c #77CBFC",
"5$	c #69C4F7",
"6$	c #64C1F5",
"7$	c #5DBDF3",
"8$	c #5CBDF3",
"9$	c #5FBEF5",
"0$	c #91D8FE",
"a$	c #8DD5FD",
"b$	c #86D0FB",
"c$	c #85D0FB",
"d$	c #87D1FB",
"e$	c #88D1FC",
"f$	c #93DAFE",
"g$	c #73CAFB",
"h$	c #6CC6F9",
"i$	c #65C2F7",
"j$	c #5DBEF4",
"k$	c #66C1F7",
"l$	c #6FC6F9",
"m$	c #7DCEFE",
"n$	c #80D0FF",
"o$	c #9DDFFF",
"p$	c #7BCDFD",
"q$	c #76CAFC",
"r$	c #6FC7FA",
"s$	c #68C2F8",
"t$	c #65C0F7",
"u$	c #6DC5F9",
"v$	c #75CAFC",
"w$	c #88D6FF",
"x$	c #70C7FA",
"y$	c #69C2F8",
"z$	c #63BFF6",
"A$	c #5EBCF5",
"B$	c #5CBBF6",
"C$	c #61BEF7",
"D$	c #68C1F9",
"E$	c #6DC5FA",
"F$	c #73C9FB",
"G$	c #79CCFC",
"H$	c #7DCEFD",
"I$	c #7ECFFE",
"J$	c #79CCFD",
"K$	c #74C9FC",
"L$	c #6EC6FA",
"M$	c #68C2F9",
"N$	c #62BEF7",
"O$	c #5DBBF6",
"P$	c #57B8F5",
"Q$	c #5AB9F6",
"R$	c #60BDF7",
"S$	c #64BFF8",
"T$	c #69C2F9",
"U$	c #6DC4FA",
"V$	c #70C6FB",
"W$	c #73C8FB",
"X$	c #75C9FC",
"Y$	c #78CBFD",
"Z$	c #78CCFD",
"`$	c #78CBFC",
" %	c #6CC4FA",
".%	c #67C1F9",
"+%	c #62BEF8",
"@%	c #5EBCF7",
"#%	c #5BBAF6",
"$%	c #58B7F5",
"%%	c #5BB9F6",
"&%	c #5CBAF7",
"*%	c #5DBAF7",
"=%	c #5EBBF7",
". . + @ # @ $ % & @                                                                                                                                                                                                               * = + - - ; @ = $ > > > > > > ",
", ' ) @ + . $ > > % $ $ $ $ + @                                                                                                                                                                                         ! @ = + + = $ = . ) ' ' ; ~ { ] { { ^ ^ ",
"/ ( _ : < [ } | 1 2 ~ ' . $ & > > & = $ +                                                                                                                                                                     3 + ' + $ = + ' - 4 5 6 7 < 8 ( / / / / 9 9 9 / / ",
"0 0 0 0 0 0 0 0 a / ( b c 7 d 2 ~ @ = $ % > > = +                                                                                                                                                     3 e + . . + ; ] 1 } < b ( 9 a 0 0 0 0 0 0 0 0 f f f 0 0 0 ",
"g h i j k l m n o p q r 0 0 0 9 ( 8 s 6 t ^ @ = $ $ = & +                                                                                                                                     u ; @ + . @ ~ 4 v s w / a 0 0 0 0 f q x y z A B i h C D E E D C C ",
"F F F G G G H I J K L M N O P m Q q f 0 / ( 8 R 5 2 ; = $ $ $ .                                                                                                                         ; @ + = + ~ 4 6 < ( / a 0 0 f q o S T C U V W X I Y G F F F Z Z Z Z F F ",
"` ` ` ` ` ` ` ` ` ` ` `  ...+.H @.L #.$.%.y &.f a / b s | 2 ' + . + *.                                                                                                            ; + + + ' =.v < _ / 0 0 0 f Q -.;.>.L @.,.'. . .` ` ` ` ` ` ` ` ` ` ` ` ` ` ` ",
").).).).).).).).).).).).).).).).).!.!.~.{.].^./.%.y q 0 a / 8 R 1 ; = $ . .                                                                                                 + + . + ~ (.7 c / a 0 f &.y _.:.<.[.}.|.!.1.).).).).).).).).).).).).).).).).).).).).",
"2.2.2.2.2.2.2.2.2.2.2.2.2.2.2.2.2.2.2.2.2.2.2.3.4.5.6.$.-.p f 0 / 8 7.8.+ % > $ .                                                                                   ~ ) . + ' 2 d s _ 9 0 0 9.p 0.a.b.c.d.3.e.2.2.2.2.2.2.2.2.2.2.2.2.2.2.2.2.2.2.2.2.2.2.2.2.2.",
"f.f.f.f.f.f.f.f.f.f.f.f.f.f.f.f.f.f.f.f.f.f.f.f.f.f.g.3.h.i.j.k.p f a l.s m.~ . > > % $ + n.                                      + n.o.o.e               p.- @ = = @ ^ (.7 c q.9 0 0 q -.r.s.t.d.u.f.f.f.f.f.f.f.f.f.f.f.f.f.f.f.f.f.f.f.f.f.f.f.f.f.f.f.f.f.f.",
"v.v.v.v.v.v.v.v.v.v.v.v.v.v.v.v.v.v.v.v.v.v.v.v.v.v.v.v.w.w.x.d.y.a.z 9.0 9 _ [ (.z.. > > > $ + + ' A.A.; @ $ > . . + = $ % > > > & $ $ $ $ $ > $ = + ' # @ = @ ~ (.7 8 / 0 0 9.Q B.C.D.E.F.G.w.w.v.v.v.v.v.v.v.v.v.v.v.v.v.v.v.v.v.v.v.v.v.v.v.v.v.v.v.v.v.v.v.",
"H.H.H.H.H.H.H.H.H.H.H.H.H.H.H.H.H.H.H.H.H.H.H.H.H.H.H.H.H.H.H.H.I.J.K.L.M.y f 0 9 b R 1 * N.$ $ = = $ $ % % > $ . ) z.~ { ] 4 O.1 5 5 d d 5 P.(.t 2 { ~ ' @ = = = @ z.2 d R Q.R.D.S.T.I.H.H.H.H.H.H.H.H.H.H.H.H.H.H.H.H.H.H.H.H.H.H.H.H.H.H.H.H.H.H.H.H.H.H.H.H.",
"U.U.U.U.U.U.U.U.U.U.U.U.U.U.U.U.U.U.U.U.U.U.U.U.U.U.U.U.U.U.U.U.U.U.U.V.W.X.Y.Z.b 7 1 ] ) = % % $ . @ ~ 2 P.| 7 < c _ ( / 9 9 a a a a a a a a a 9 9 / q._ c [ 7.5 2 ~ ) + + z.`. +.+++@+#+I.H.U.U.U.U.U.U.U.U.U.U.U.U.U.U.U.U.U.U.U.U.U.U.U.U.U.U.U.U.U.U.U.U.U.",
"$+$+$+$+$+$+$+$+$+$+$+$+$+$+$+$+$+$+$+$+$+$+$+$+$+$+$+$+$+$+$+$+$+%+&+*+=+-+;+>+' = $ = + ; 2 1 7.s b ( / 9 a 0 0 0 f f 9.,+q q q q q q q q q q ,+9.f 0 0 0 0 0 9 / ( c R d 4 ~ @ + '+)+!+~+{+]+^+/+$+$+$+$+$+$+$+$+$+$+$+$+$+$+$+$+$+$+$+$+$+$+$+$+$+$+$+$+$+$+",
"(+(+(+(+(+(+(+(+(+(+(+(+(+(+(+(+(+(+(+(+(+(+(+(+(+(+(+(+(+(+(+_+:+<+[+}+|+n.= + ' ] 1 } c _ / a 0 0 f q o -.k.k i O N 1+U 2+3+4+5+6+6+6+6+5+5+3+2+#./.O P k.z 7+q f 0 0 0 a / _ < 7.(.~ ) ) '+8+9+-+0+a+b+(+(+(+(+(+(+(+(+(+(+(+(+(+(+(+(+(+(+(+(+(+(+(+(+(+(+(+",
"c+c+c+c+c+c+c+c+c+c+c+c+c+c+c+c+c+c+c+c+c+c+c+c+c+c+c+d+e+f+g+h+i+'++ @ z.2 d [ 8 q.a 0 &.Q n %.O 1+j+6+k+X H '...........l+l+l+l+l+l+l+l+l+l+l+l+......'.H X W V U g m+z p 9.0 0 a / _ < 7.4 ~ ) ) n+o+p+{+q+r+d+c+c+c+c+c+c+c+c+c+c+c+c+c+c+c+c+c+c+c+c+c+c+c+",
"s+s+s+s+s+s+s+s+s+s+s+s+s+s+s+s+s+s+s+s+s+s+s+s+d+t+u+v+w+)+o.) z.2 d s _ / 0 f q n x+y+<.z+A+B+|.C+!.).).).D+!.!.!.!.!.!.!.!.!.!.!.!.!.!.!.!.!.!.!.!.!.!.!.).).!.!.C+B+E+F+G+a.k.o &.f 0 a / _ s d 8., @ '+8+H+I+J+K+L+s+s+s+s+s+s+s+s+s+s+s+s+s+s+s+s+s+s+s+s+",
"M+M+M+M+M+M+M+M+M+M+M+M+M+M+M+M+M+M+M+M+M+N+O+P+Q+}+R++ = ' 4 7 8 / a 0 q S+P T+U+V+W+~.).).).).).).).).).).).).).).).).).).).).).).).).).).).).).).).).).).).).).).).).).).1.X+{.Y+Z+Y.%.y q 0 0 a / 8 7 1 ~ ) ) n+`+ @.@+@@@s+M+M+M+M+M+M+M+M+M+M+M+M+M+M+M+M+",
"#@#@#@#@#@#@#@#@#@#@#@#@#@#@#@#@#@$@%@&@*@=@-@;@. $ + - d >@/ a f q -.a.,@5.'@)@2.f.f.f.f.f.f.f.f.f.f.f.f.f.f.f.f.f.f.f.f.f.f.f.f.f.f.f.f.f.f.f.f.f.f.f.f.f.f.f.f.f.f.f.f.f.f.f.f.!@2.u.4.~@,@y+k.Q ,+0 0 / _ s d =.; ) '+{@w+v+]@^@/@(@#@#@#@#@#@_@_@_@_@_@_@_@",
":@<@[@}@|@1@2@$@3@4@4@4@4@$@1@5@6@7@w+)+n.$ > = z.1 R _ 9 0 q 8@Y.D.E.)@f.w.w.w.w.w.w.w.w.w.w.w.w.w.w.w.w.w.w.w.w.w.w.w.w.w.w.w.w.w.w.w.w.w.w.w.w.w.w.w.w.w.w.w.w.w.w.w.w.w.w.w.w.w.w.w.w.9@f.)@d.t.0@r.S+q 0 0 9 ( c 7 (.- ' n.a@i+b@c@d@e@f@g@h@i@d@j@k@j@d@i@",
"'+R+|+l@m@n@o@p@q@r@s@t@u@v@o@w@o.. % % . z.O.7 b / 0 f y x@y@z@T.A@I.B@B@B@B@B@B@B@B@B@B@B@B@B@B@B@B@B@B@B@B@B@B@B@B@B@B@B@B@B@B@B@B@B@B@B@B@B@B@B@B@B@B@B@B@B@B@B@B@B@B@B@B@B@B@B@B@B@B@B@B@B@I.I.A@F.C@y.C.D@y 9.0 a / 8 7.O.- E@# @ '+R+n+R+'+o.' ) ) ) , , ",
"2 ] ~ z.) + = = . . F@F@+ . $ $ $ + ~ 1 R b 9 0 f Q R.G@H@a+I@H.H.H.H.H.H.H.H.H.H.H.H.H.H.H.H.H.H.H.H.H.H.H.H.H.H.H.H.H.H.H.H.H.H.H.H.H.H.H.H.H.H.H.H.H.H.H.H.H.H.H.H.H.H.H.H.H.H.H.H.H.H.H.H.H.H.H.H.H.H.I.J@C@K@L@M@6 O.] z.+ . . + @ ' z.{ 8.4 4 t (.(.(.4 4 ",
"/ / ( _ b c < 7 6 1 2 - , + $ % $ = + ~ t | < N@r.O@P@Q@b+R@R@R@R@R@R@R@R@R@R@R@R@R@R@R@R@R@R@R@R@R@R@R@R@R@R@R@R@R@R@R@R@R@R@R@R@R@R@R@R@R@R@R@R@R@R@R@R@R@R@R@R@R@R@R@R@R@R@R@R@R@R@R@R@R@R@R@R@R@b+Q@S@T@U@h+V@W@, + + ' { 4 5 } s c 8 _ ( / 9 9 a a a 9 9 9 ",
"f f 0 0 0 0 0 0 a a / q.b < 7 d 4 ~ ) . $ $ @ n+X@[+<+Y@^+b+$+$+$+$+$+$+$+$+$+$+$+$+$+$+$+$+$+$+$+$+$+$+$+$+$+$+$+$+$+$+$+$+$+$+$+$+$+$+$+$+$+$+$+$+$+$+$+$+$+$+$+$+$+$+$+$+$+$+$+$+$+$+$+$+$+Z@`@0+U@ #.#+#n.+ ' { (.6 s 8 q./ a 0 0 0 0 0 0 0 f r r r r r r r ",
"@###C $#%#i k &#S *#x q q f 0 a / ( c [ d 4 ~ @ = . '+=#-#-+;#>#,#'#)#)#)#)#)#)#)#)#)#)#)#)#)#)#)#)#)#)#)#)#)#)#)#)#)#)#)#)#)#)#)#)#)#)#)#)#)#)#)#)#)#)#)#)#)#)#)#)#)#)#)#)#)#)#)#)#)#!#~#f+{#p+o+n+' ) ; 8.5 [ 8 ( / 0 0 0 f ,+q p n S k i ]#C ^#@#/#/#/#/#/#/#",
"(#(#_#_#G G :#<#[#}#|#1#2+E i %.m o q 0 0 / _ >@} (.{ ) . ) n+}+2#3#4#5#6#c+c+c+c+c+c+c+c+c+c+c+c+c+c+c+c+c+c+c+c+c+c+c+c+c+c+c+c+c+c+c+c+c+c+c+c+c+c+c+c+c+c+c+c+c+c+c+c+c+c+c+,#7#]@8#9#{@'+) ' 8.5 R 8 / a 0 0 f &.y _.k ]#/#4+|#0#[#a#G _#_#(#(#(#(#(#(#(#(#",
"l+l+l+l+l+l+l+l+l+l+l+l+l+b#F +.c#K V >.d#S y &.0 9 q.c } 1 { ) ) a@.#q@e#f#g#c+h#h#h#h#h#h#h#h#h#h#h#h#h#h#h#h#h#h#h#h#h#h#h#h#h#h#h#h#h#h#h#h#h#h#h#h#h#h#h#h#h#h#h#h#c+g#f#i#j#n@k#) ) ~ (.} c / a 0 0 f p z P N l#W <#m#F n#l+l+l+l+l+l+l+l+l+l+l+l+l+l+l+l+",
"o#o#o#o#o#o#o#o#o#o#o#o#o#o#o#o#D+D+!. .'.E+p#q#O S Q 9.0 9 ( < | { + . o.{@H+r#s#t#u#M+v#v#M+M+M+M+M+M+M+M+M+M+M+M+M+M+M+M+M+M+M+M+M+M+M+M+M+M+M+M+M+M+M+v#v#M+w#N+x#y#z#H+A#'+) ' ] d s _ / 0 0 9.Q -.B##.C#D#'. .!.D+E#o#o#o#o#o#o#o#o#o#o#o#o#o#o#o#o#o#o#o#",
"F#F#F#F#F#F#F#F#F#F#F#F#F#F#F#F#F#F#F#F#F#).).).X+}.z+#.;.G#&.0 a l.[ 1 ; = $ H#|+I#J#]@^@u#K##@#@L#M#M#M#M#M#M#M#M#M#M#M#M#M#M#M#M#M#M#M#M#M#M#M#L##@#@K#$@N#O#P#Q#n@R+) @ ~ (.R#c / a 0 f q z ;.>.C#S#|.3.).).F#F#F#F#F#F#F#F#F#F#F#F#F#F#F#F#F#F#F#F#F#F#F#F#",
"f.f.f.f.f.f.f.f.f.f.f.f.f.f.f.f.f.f.f.f.f.f.f.f.f.f.!@)@4.c.0@x@y 9.0 / c 7.2 ) $ > . a@T#U#V#W#X#Y#Z#`# $`#`#`#`#`#`#`#`#`#`#`#`#`#`#`#`#`# $`#.$Y#+$@$#$$$%$&$n.F@' 2 d s _ / 0 0 q y %.j.*$5.=$-$!@f.f.f.f.f.f.f.f.f.f.f.f.f.f.f.f.f.f.f.f.f.f.f.f.f.f.f.f.f.",
";$;$;$;$;$;$;$;$;$;$;$;$;$;$;$;$;$;$;$;$;$;$;$;$;$;$;$;$;$;$>$,$'$G@D@Z.0 0 q.>@v 2 ' $ > % F@k#)$!$~${$]$^$/$($_$:$<$<$<$<$<$<$<$<$[$}$|$1$2$3$~$!$-@n+' + ' ] P.R 8 / a 0 f &.8@4$b.5$6$x.w.;$;$;$;$;$;$;$;$;$;$;$;$;$;$;$;$;$;$;$;$;$;$;$;$;$;$;$;$;$;$;$;$;$",
"7$7$7$7$7$7$7$7$7$7$7$7$7$7$7$7$7$7$7$7$7$7$7$7$7$7$7$7$7$7$7$8$I.9$S.y.Y.8@&.f a / c 7.(.~ ) . $ $ $ + , n+0$a$I#p@!$b$c$c$c$b$d$e$p@I#T#f$! ) + ) ' ] P.7 c q.a 0 0 &.y D@g$h$i$T.j$8$8$7$7$7$7$7$7$7$7$7$7$7$7$7$7$7$7$7$7$7$7$7$7$7$7$7$7$7$7$7$7$7$7$7$7$7$",
"U.U.U.U.U.U.U.U.U.U.U.U.U.U.U.U.U.U.U.U.U.U.U.U.U.U.U.U.U.U.U.U.U.U.U.H.9$k$l$4$m$n$f 0 9 ( 8 R d (.=.{ z.' @ . $ = . o$o$o$. . . . + ) ; - 2 1 7.s b q.9 0 0 9.Q p$q$r$s$a+Q@H.U.U.U.U.U.U.U.U.U.U.U.U.U.U.U.U.U.U.U.U.U.U.U.U.U.U.U.U.U.U.U.U.U.U.U.U.U.U.U.U.",
"$+$+$+$+$+$+$+$+$+$+$+$+$+$+$+$+$+$+$+$+$+$+$+$+$+$+$+$+$+$+$+$+$+$+$+$+$+$+b+^+t$u$v$D@y 9.f 0 0 0 9 ( _ 8 c c < < < s s s s < < w$c c _ ( 9 a 0 0 0 9.y 0.4$x$y$z$A$%+$+$+$+$+$+$+$+$+$+$+$+$+$+$+$+$+$+$+$+$+$+$+$+$+$+$+$+$+$+$+$+$+$+$+$+$+$+$+$+$+$+$+$+$+",
"'#'#'#'#'#'#'#'#'#'#'#'#'#'#'#'#'#'#'#'#'#'#'#'#'#'#'#'#'#'#'#'#'#'#'#'#'#'#'#'#'#!#B$C$D$E$F$G$H$I$Q &.f 0 0 0 0 0 0 0 0 0 0 0 0 0 0 0 0 f &.Q m$J$K$L$M$N$O$!#d+'#'#'#'#'#'#'#'#'#'#'#'#'#'#'#'#'#'#'#'#'#'#'#'#'#'#'#'#'#'#'#'#'#'#'#'#'#'#'#'#'#'#'#'#'#'#'#",
"P$P$P$P$P$P$P$P$P$P$P$P$P$P$P$P$P$P$P$P$P$P$P$P$P$P$P$P$P$P$P$P$P$P$P$P$P$P$P$P$P$P$P$P$P$c+Q$O$R$S$T$U$V$W$X$q$4$Y$Z$J$J$J$J$J$J$Z$`$q$K$V$ %.%+%@%#%)#c+P$P$P$P$P$P$P$P$P$P$P$P$P$P$P$P$P$P$P$P$P$P$P$P$P$P$P$P$P$P$P$P$P$P$P$P$P$P$P$P$P$P$P$P$P$P$P$P$P$P$P$",
"h#h#h#h#h#h#h#h#h#h#h#h#h#h#h#h#h#h#h#h#h#h#h#h#h#h#h#h#h#h#h#h#h#h#h#h#h#h#h#h#h#h#h#h#h#h#h#h#M+M+M+s+s+$%L+Q$%%&%*%=%=%=%=%=%*%*%@@%%L+s+h#M+M+h#h#h#h#h#h#h#h#h#h#h#h#h#h#h#h#h#h#h#h#h#h#h#h#h#h#h#h#h#h#h#h#h#h#h#h#h#h#h#h#h#h#h#h#h#h#h#h#h#h#h#h#h#h#h#",
"K#K#K#K#K#K#K#K#K#K#K#K#K#K#K#K#K#K#K#K#K#K#K#K#K#K#K#K#K#K#K#K#K#K#K#K#K#K#K#K#K#K#K#K#K#K#K#K#K#K#K#K#K#K#K#K#K#K#K#K#K#K#K#K#K#K#K#K#K#K#K#K#K#K#K#K#K#K#K#K#K#K#K#K#K#K#K#K#K#K#K#K#K#K#K#K#K#K#K#K#K#K#K#K#K#K#K#K#K#K#K#K#K#K#K#K#K#K#K#K#K#K#K#K#K#K#K#K#"};
