/* XPM */
static char * waves3_xpm[] = {
"128 38 562 2",
"  	c None",
". 	c #97DEFF",
"+ 	c #9CE0FF",
"@ 	c #9BDFFF",
"# 	c #96DDFF",
"$ 	c #98DEFF",
"% 	c #9ADFFF",
"& 	c #9DE0FF",
"* 	c #9EE1FF",
"= 	c #9CDFFF",
"- 	c #99DFFF",
"; 	c #9EE0FF",
"> 	c #9DE1FF",
", 	c #97DDFE",
"' 	c #9ADEFF",
") 	c #99DEFF",
"! 	c #97DDFF",
"~ 	c #96DCFF",
"{ 	c #95DCFF",
"] 	c #98DDFF",
"^ 	c #97DEFE",
"/ 	c #93DBFF",
"( 	c #90D9FF",
"_ 	c #8ED8FF",
": 	c #8CD7FF",
"< 	c #89D6FF",
"[ 	c #87D5FF",
"} 	c #85D4FF",
"| 	c #84D3FF",
"1 	c #83D3FF",
"2 	c #86D4FF",
"3 	c #88D4FF",
"4 	c #8BD6FF",
"5 	c #8DD7FF",
"6 	c #8FD8FF",
"7 	c #91DAFF",
"8 	c #94DBFF",
"9 	c #99DEFE",
"0 	c #87D4FF",
"a 	c #83D2FF",
"b 	c #82D2FF",
"c 	c #81D2FF",
"d 	c #88D5FF",
"e 	c #8FD9FF",
"f 	c #94DCFE",
"g 	c #8ED9FF",
"h 	c #8AD6FF",
"i 	c #86D5FF",
"j 	c #80D1FE",
"k 	c #7ED1FE",
"l 	c #7ED0FE",
"m 	c #7DCFFD",
"n 	c #7BCEFB",
"o 	c #79CDFA",
"p 	c #77CDFA",
"q 	c #75CDFA",
"r 	c #75CCF9",
"s 	c #74CCF9",
"t 	c #73CCF9",
"u 	c #75CCFA",
"v 	c #78CDFA",
"w 	c #79CEFB",
"x 	c #7ACFFC",
"y 	c #7CCFFC",
"z 	c #7DD0FD",
"A 	c #7ED0FD",
"B 	c #7FD1FE",
"C 	c #80D2FF",
"D 	c #93DAFF",
"E 	c #97DCFF",
"F 	c #7BCFFC",
"G 	c #78CDFB",
"H 	c #72CAF8",
"I 	c #6FC8F7",
"J 	c #6CC7F6",
"K 	c #69C6F5",
"L 	c #68C5F4",
"M 	c #67C5F3",
"N 	c #66C5F3",
"O 	c #65C4F3",
"P 	c #65C4F2",
"Q 	c #67C5F4",
"R 	c #6AC6F4",
"S 	c #6CC7F5",
"T 	c #6EC8F7",
"U 	c #71CAF8",
"V 	c #74CBF9",
"W 	c #76CCFA",
"X 	c #79CDFB",
"Y 	c #7FD0FE",
"Z 	c #8BD7FF",
"` 	c #94DCFF",
" .	c #7CCFFD",
"..	c #78CDFC",
"+.	c #73CAF9",
"@.	c #6AC6F5",
"#.	c #67C4F4",
"$.	c #65C4F4",
"%.	c #63C3F3",
"&.	c #62C3F2",
"*.	c #64C3F3",
"=.	c #66C4F4",
"-.	c #72CAF9",
";.	c #76CCFB",
">.	c #7ACEFC",
",.	c #80D1FF",
"'.	c #9ADFFE",
").	c #92DAFF",
"!.	c #7BCFFD",
"~.	c #75CCFB",
"{.	c #70C9F9",
"].	c #6BC6F6",
"^.	c #67C4F5",
"/.	c #64C3F4",
"(.	c #62C2F3",
"_.	c #62C1F3",
":.	c #61C1F3",
"<.	c #63C2F4",
"[.	c #66C3F5",
"}.	c #69C5F6",
"|.	c #6EC8F8",
"1.	c #74CBFA",
"2.	c #81D1FF",
"3.	c #7BCEFD",
"4.	c #76CBFB",
"5.	c #70C8F9",
"6.	c #69C5F7",
"7.	c #65C2F5",
"8.	c #62C1F4",
"9.	c #61C0F3",
"0.	c #60C0F3",
"a.	c #64C2F5",
"b.	c #68C4F6",
"c.	c #6FC8F8",
"d.	c #8DD8FF",
"e.	c #95DBFF",
"f.	c #9ADEFE",
"g.	c #99DDFE",
"h.	c #92DCFE",
"i.	c #85D3FF",
"j.	c #78CCFC",
"k.	c #71C8FA",
"l.	c #6AC5F7",
"m.	c #62C0F4",
"n.	c #5FBFF3",
"o.	c #5FC0F3",
"p.	c #66C2F5",
"q.	c #6CC6F8",
"r.	c #74CAFA",
"s.	c #7BCEFC",
"t.	c #86D3FF",
"u.	c #90DAFF",
"v.	c #7ACEFD",
"w.	c #74CAFB",
"x.	c #6DC6F8",
"y.	c #66C3F6",
"z.	c #61C0F5",
"A.	c #5FBFF4",
"B.	c #5EBEF3",
"C.	c #5DBEF3",
"D.	c #60BFF4",
"E.	c #6DC6F9",
"F.	c #95DDFF",
"G.	c #91D9FF",
"H.	c #85D4FE",
"I.	c #7ACDFC",
"J.	c #64C1F6",
"K.	c #60BFF5",
"L.	c #5DBDF4",
"M.	c #5CBCF4",
"N.	c #61BFF5",
"O.	c #68C3F7",
"P.	c #70C8FA",
"Q.	c #79CDFD",
"R.	c #9BE0FF",
"S.	c #92DBFF",
"T.	c #92DAFD",
"U.	c #8AD5FC",
"V.	c #7FCFFA",
"W.	c #73C8F8",
"X.	c #69C3F6",
"Y.	c #62BFF5",
"Z.	c #5BBCF4",
"`.	c #5DBDF5",
" +	c #62C0F6",
".+	c #6AC4F8",
"++	c #75CBFB",
"@+	c #80D0FE",
"#+	c #81D1FE",
"$+	c #98DDFE",
"%+	c #93DAFD",
"&+	c #8AD5FB",
"*+	c #7FCEFA",
"=+	c #73C7F8",
"-+	c #67C1F6",
";+	c #60BDF5",
">+	c #5CBBF4",
",+	c #5ABAF4",
"'+	c #5BBAF4",
")+	c #5DBCF4",
"!+	c #62BEF6",
"~+	c #6CC4F7",
"{+	c #7ACBF9",
"]+	c #86D3FC",
"^+	c #91D9FE",
"/+	c #6EC8F6",
"(+	c #6DC8F6",
"_+	c #6FC9F7",
":+	c #70CAF7",
"<+	c #7FD0FD",
"[+	c #91D9FD",
"}+	c #87D3FB",
"|+	c #6DC4F7",
"1+	c #62BFF6",
"2+	c #5BBBF4",
"3+	c #59BAF4",
"4+	c #5CBBF5",
"5+	c #65C0F6",
"6+	c #72C7F8",
"7+	c #80CEFA",
"8+	c #8CD5FC",
"9+	c #95DAFE",
"0+	c #73CBF9",
"a+	c #6FC9F6",
"b+	c #63C3F2",
"c+	c #79CEFC",
"d+	c #95DBFE",
"e+	c #8DD6FC",
"f+	c #81CFFA",
"g+	c #67C0F7",
"h+	c #5EBBF5",
"i+	c #59B9F5",
"j+	c #58B8F5",
"k+	c #5FBCF6",
"l+	c #68C1F7",
"m+	c #76C9F9",
"n+	c #84D1FB",
"o+	c #90D8FD",
"p+	c #70C9F7",
"q+	c #6BC7F6",
"r+	c #63C2F3",
"s+	c #65C3F4",
"t+	c #68C5F5",
"u+	c #6CC7F7",
"v+	c #71C9F9",
"w+	c #99DDFF",
"x+	c #87D2FC",
"y+	c #7ACAF9",
"z+	c #6CC2F8",
"A+	c #5FBCF7",
"B+	c #59B8F6",
"C+	c #57B7F5",
"D+	c #60BCF6",
"E+	c #6DC3F8",
"F+	c #7CCBFA",
"G+	c #89D3FC",
"H+	c #79CDFC",
"I+	c #75CBFA",
"J+	c #6CC6F7",
"K+	c #68C4F5",
"L+	c #61C2F3",
"M+	c #64C2F4",
"N+	c #6AC5F6",
"O+	c #6FC8F9",
"P+	c #8CD6FD",
"Q+	c #80CEFB",
"R+	c #72C6F9",
"S+	c #67BFF8",
"T+	c #5CBAF6",
"U+	c #56B6F5",
"V+	c #5AB8F6",
"W+	c #63BDF7",
"X+	c #70C4F8",
"Y+	c #7FCDFA",
"Z+	c #96DCFE",
"`+	c #7DCFFE",
" @	c #73CAFA",
".@	c #6DC7F8",
"+@	c #68C5F6",
"@@	c #65C3F5",
"#@	c #60BFF3",
"$@	c #69C4F6",
"%@	c #6FC7F8",
"&@	c #92D9FD",
"*@	c #6EC3F8",
"=@	c #62BCF7",
"-@	c #5BB8F6",
";@	c #56B6F6",
">@	c #54B5F5",
",@	c #53B5F5",
"'@	c #57B6F6",
")@	c #5DB9F6",
"!@	c #66BEF8",
"~@	c #75C6F9",
"{@	c #83CFFB",
"]@	c #8FD7FD",
"^@	c #98DCFE",
"/@	c #89D5FF",
"(@	c #64C1F4",
"_@	c #61C0F4",
":@	c #5EBFF3",
"<@	c #71C8F9",
"[@	c #97DCFE",
"}@	c #85D1FC",
"|@	c #7ACAFB",
"1@	c #70C4F9",
"2@	c #6AC1F9",
"3@	c #68C0F9",
"4@	c #6BC2F9",
"5@	c #6DC3F9",
"6@	c #6FC4F9",
"7@	c #71C5F9",
"8@	c #72C5F9",
"9@	c #6DC2F9",
"0@	c #6BC1F9",
"a@	c #68BFF9",
"b@	c #64BDF8",
"c@	c #60BBF8",
"d@	c #5BB8F7",
"e@	c #58B7F7",
"f@	c #56B5F6",
"g@	c #55B5F6",
"h@	c #65BDF8",
"i@	c #71C4F9",
"j@	c #7DCBFB",
"k@	c #7CCEFD",
"l@	c #5CBDF4",
"m@	c #5EBEF4",
"n@	c #66C2F7",
"o@	c #7ACDFD",
"p@	c #98DEFE",
"q@	c #93D9FE",
"r@	c #91D8FD",
"s@	c #8ED6FD",
"t@	c #8CD4FD",
"u@	c #89D2FC",
"v@	c #84D0FB",
"w@	c #7DCCFB",
"x@	c #77C8FB",
"y@	c #76C8FB",
"z@	c #7BCBFB",
"A@	c #84D0FC",
"B@	c #93D9FD",
"C@	c #77CCFC",
"D@	c #6FC7F9",
"E@	c #67C3F6",
"F@	c #60BEF5",
"G@	c #70C7F9",
"H@	c #7BCDFB",
"I@	c #86D4FD",
"J@	c #9BDEFF",
"K@	c #72C9FA",
"L@	c #6AC3F8",
"M@	c #5EBDF4",
"N@	c #5ABBF4",
"O@	c #5EBDF5",
"P@	c #65C1F5",
"Q@	c #6FC6F7",
"R@	c #79CBF9",
"S@	c #8ED7FC",
"T@	c #95DBFD",
"U@	c #82D2FE",
"V@	c #6CC5F9",
"W@	c #64C0F6",
"X@	c #5DBCF5",
"Y@	c #63BFF5",
"Z@	c #85D2FB",
"`@	c #8FD7FC",
" #	c #96DCFD",
".#	c #8CD5FD",
"+#	c #68C1F6",
"@#	c #58B9F5",
"##	c #5ABAF5",
"$#	c #5FBDF6",
"%#	c #74C8F9",
"&#	c #76CCF9",
"*#	c #74CCF8",
"=#	c #73CBF8",
"-#	c #72CBF8",
";#	c #74CBF8",
">#	c #76CDF9",
",#	c #76CDFA",
"'#	c #7ACEFB",
")#	c #7CD0FC",
"!#	c #92D8FD",
"~#	c #87D2FB",
"{#	c #6DC3F7",
"]#	c #61BDF6",
"^#	c #5BBAF5",
"/#	c #59B9F4",
"(#	c #62BDF7",
"_#	c #7BCBFA",
":#	c #88D3FC",
"<#	c #6CC8F5",
"[#	c #6BC7F5",
"}#	c #69C7F4",
"|#	c #68C6F3",
"1#	c #66C5F2",
"2#	c #65C5F2",
"3#	c #67C6F3",
"4#	c #68C6F4",
"5#	c #6AC7F5",
"6#	c #6EC9F6",
"7#	c #7ECDFA",
"8#	c #70C5F8",
"9#	c #64BFF7",
"0#	c #5CBAF5",
"a#	c #59B8F5",
"b#	c #56B7F5",
"c#	c #5DBAF6",
"d#	c #66BFF7",
"e#	c #74C7F9",
"f#	c #81CFFB",
"g#	c #96DBFE",
"h#	c #70C9F8",
"i#	c #66C4F3",
"j#	c #64C3F2",
"k#	c #64C4F3",
"l#	c #68C6F5",
"m#	c #77CDFB",
"n#	c #75C7F9",
"o#	c #55B6F5",
"p#	c #57B6F5",
"q#	c #61BBF6",
"r#	c #6DC2F8",
"s#	c #7ACAFA",
"t#	c #92D9FE",
"u#	c #77CCFB",
"v#	c #6DC7F7",
"w#	c #69C5F5",
"x#	c #61C2F2",
"y#	c #62C2F2",
"z#	c #6BC6F7",
"A#	c #71C9F8",
"B#	c #79C9FA",
"C#	c #6AC1F8",
"D#	c #5EBAF6",
"E#	c #58B7F6",
"F#	c #54B4F6",
"G#	c #53B4F5",
"H#	c #55B5F5",
"I#	c #5EBAF7",
"J#	c #68C0F8",
"K#	c #75C8F9",
"L#	c #83D0FB",
"M#	c #8CD8FF",
"N#	c #67C4F6",
"O#	c #60C1F3",
"P#	c #7DD0FE",
"Q#	c #9BDEFE",
"R#	c #8BD4FC",
"S#	c #7DCBFA",
"T#	c #53B3F6",
"U#	c #52B3F6",
"V#	c #56B5F7",
"W#	c #59B7F7",
"X#	c #5FBAF7",
"Y#	c #69BFF8",
"Z#	c #74C6FA",
"`#	c #80CDFB",
" $	c #8BD5FD",
".$	c #94DBFE",
"+$	c #6EC7F8",
"@$	c #63C1F4",
"#$	c #60C0F4",
"$$	c #8ED7FD",
"%$	c #83CEFC",
"&$	c #77C8FA",
"*$	c #6AC0F9",
"=$	c #60BAF7",
"-$	c #55B5F7",
";$	c #56B4F6",
">$	c #57B5F7",
",$	c #5AB6F7",
"'$	c #5FBAF8",
")$	c #65BDF9",
"!$	c #6CC1F9",
"~$	c #73C5F9",
"{$	c #7CCBFB",
"]$	c #87D1FC",
"^$	c #77CBFC",
"/$	c #69C4F7",
"($	c #64C1F5",
"_$	c #5EBDF3",
":$	c #5FBEF4",
"<$	c #63C0F5",
"[$	c #6AC4F7",
"}$	c #90D7FD",
"|$	c #74C5FA",
"1$	c #6EC1F9",
"2$	c #69BFF9",
"3$	c #62BCF8",
"4$	c #5DB9F8",
"5$	c #59B6F7",
"6$	c #57B5F6",
"7$	c #87D1FB",
"8$	c #88D1FC",
"9$	c #93DAFE",
"0$	c #73CAFB",
"a$	c #6CC6F9",
"b$	c #65C2F7",
"c$	c #5DBEF4",
"d$	c #5CBDF3",
"e$	c #5DBDF3",
"f$	c #5FBEF5",
"g$	c #91D8FE",
"h$	c #8DD5FD",
"i$	c #86D0FB",
"j$	c #85D0FB",
"k$	c #7BCDFD",
"l$	c #76CAFC",
"m$	c #6FC7FA",
"n$	c #68C2F8",
"o$	c #66C1F7",
"p$	c #6FC6F9",
"q$	c #7DCEFE",
"r$	c #80D0FF",
"s$	c #9DDFFF",
"t$	c #88D6FF",
"u$	c #70C7FA",
"v$	c #69C2F8",
"w$	c #63BFF6",
"x$	c #5EBCF5",
"y$	c #65C0F7",
"z$	c #6DC5F9",
"A$	c #75CAFC",
"B$	c #79CCFD",
"C$	c #74C9FC",
"D$	c #6EC6FA",
"E$	c #68C2F9",
"F$	c #62BEF7",
"G$	c #5DBBF6",
"H$	c #5CBBF6",
"I$	c #61BEF7",
"J$	c #68C1F9",
"K$	c #6DC5FA",
"L$	c #73C9FB",
"M$	c #79CCFC",
"N$	c #7DCEFD",
"O$	c #7ECFFE",
"P$	c #78CCFD",
"Q$	c #78CBFC",
"R$	c #70C6FB",
"S$	c #6CC4FA",
"T$	c #67C1F9",
"U$	c #62BEF8",
"V$	c #5EBCF7",
"W$	c #5BBAF6",
"X$	c #57B8F5",
"Y$	c #5AB9F6",
"Z$	c #60BDF7",
"`$	c #64BFF8",
" %	c #69C2F9",
".%	c #6DC4FA",
"+%	c #73C8FB",
"@%	c #75C9FC",
"#%	c #78CBFD",
"$%	c #5DBAF7",
"%%	c #5BB9F6",
"&%	c #58B7F5",
"*%	c #5CBAF7",
"=%	c #5EBBF7",
"                                                                                                  . + @ # # $ % + & * * * * * & + = @ % - % & ; > %                                                                                                             ",
"                                                                                        , % + @ @ + & + = ' ) ) $ ! ~ { ~ ~ ! ! ] ) ' % @ = & * * ; & & & & @ %                                                                                                 ",
"                                                                              ^ @ ) @ & + @ ) # / ( _ : < [ } | | | | 1 1 | | | | } 2 3 < 4 5 6 7 8 ! ) = & > * * > + & @                                                                                       ",
"                                                                      ^ 9 @ = = @ $ { 7 5 < 0 } 1 a b b b b b b b b c c c b b b b b b b b b b b a | } 0 d : e 8 ! % + & ; * * + @                                                                               ",
"                                                              f $ % @ = % ! / g h i | a b b b b c j k l m n o p q r s t t s r r u q p v w x y z A B j C b b b 1 } [ h _ D E % + & & + > @                                                                       ",
"                                                        $ % @ + @ ! / _ < } | a b b c j A F G r H I J K L M N O O O P P P P O O O O O N N N Q L R S T U V W X y Y j c b | } [ Z ( 8 $ + & & & =                                                                 ",
"                                                  $ @ @ @ ) ` g < 2 | b b b c Y  ...+.T @.#.$.%.%.&.&.&.&.&.&.&.&.&.&.&.&.&.&.&.&.&.&.&.&.&.&.&.&.&.&.&.%.*.=.Q @.T -.;.>.l ,.c a | 0 h 6 8 ) @ = @ '.                                                          ",
"                                            @ @ = @ ! ).: d | a b c ,.l !.~.{.].^./.(._.:.:.:.:.:.:.:.:.:.:.:.:.:.:.:.:.:.:.:.:.:.:.:.:.:.:.:.:.:.:.:.:.:.:.:.:.:.(.(.<.[.}.|.1.>.l j b a | [ Z 7 $ + & = =                                                     ",
"                                    ! ' = @ ) 8 e h 2 1 b b 2.B 3.4.5.6.7.8.9.0.0.0.0.0.0.0.0.0.0.0.0.0.0.0.0.0.0.0.0.0.0.0.0.0.0.0.0.0.0.0.0.0.0.0.0.0.0.0.0.0.0.0.0.0.0.0.0.8.a.b.c.;. .B c b | [ d.e.@ ; * & =                                               ",
"+ @ f.g.g.9               h.# % + + % E ).: d i.1 b b j  .j.k.l.7.m.n.n.n.n.n.n.n.n.n.n.n.n.n.n.n.n.n.n.n.n.n.n.n.n.n.n.n.n.n.n.n.n.n.n.n.n.n.n.n.n.n.n.n.n.n.n.n.n.n.n.n.n.n.n.n.n.o.8.p.q.r.s.B c a t.h u.! = * * ; & @ f.                                    ",
"> > & & & & & * & + @ ) - % + % ! ).: [ | b b 2.Y v.w.x.y.z.A.B.B.C.C.C.C.C.C.C.C.C.C.C.C.C.C.C.C.C.C.C.C.C.C.C.C.C.C.C.C.C.C.C.C.C.C.C.C.C.C.C.C.C.C.C.C.C.C.C.C.C.C.C.C.C.C.C.C.C.C.C.B.B.D.7.E.4.m 2.b 1 2 4 ).] = * * * & @ @ ) F.F.$ % & * = = @ + & ; * * ",
"u.( ( e e ( G.).D 8 ~ ! ) % + + + % ] 8 e Z H.I.x.J.K.L.M.M.M.M.M.M.M.M.M.M.M.M.M.M.M.M.M.M.M.M.M.M.M.M.M.M.M.M.M.M.M.M.M.M.M.M.M.M.M.M.M.M.M.M.M.M.M.M.M.M.M.M.M.M.M.M.M.M.M.M.M.M.M.M.M.M.M.M.L.N.O.P.Q.l c b 1 0 Z 7 . R.& & + + & & ; ; * & = ' ] ! ~ { / S.",
"a a a a a a a a 1 1 | i.2 d 4 d.( 8 ! ' @ @ ] T.U.V.W.X.Y.L.M.Z.Z.Z.Z.Z.Z.Z.Z.Z.Z.Z.Z.Z.Z.Z.Z.Z.Z.Z.Z.Z.Z.Z.Z.Z.Z.Z.Z.Z.Z.Z.Z.Z.Z.Z.Z.Z.Z.Z.Z.Z.Z.Z.Z.Z.Z.Z.Z.Z.Z.Z.Z.Z.Z.Z.Z.Z.Z.Z.Z.Z.Z.Z.Z.Z.Z.Z.Z.`. +.+++@+0 : 7 { ' + ; ; & = % ! 8 G.6 : < d 2 } | 1 1 1 ",
"j j j j j j j j #+2.c b b b b b 1 | } d Z e / ! % @ $+%+&+*+=+-+;+>+,+,+,+,+,+,+,+,+,+,+,+,+,+,+,+,+,+,+,+,+,+,+,+,+,+,+,+,+,+,+,+,+,+,+,+,+,+,+,+,+,+,+,+,+,+,+,+,+,+,+,+,+,+,+,+,+,+,+,+,+,+,+,+'+)+!+~+{+]+^+) + & + @ $ 8 7 d.h 0 } | 1 a b b b c c 2.#+j j ",
"/+(+(+(+(+/+/+_+:+-.1.W X s.m <+j c b b b a | 2 < d.).! ' ' $+[+}+{+|+1+2+3+3+3+3+3+3+3+3+3+3+3+3+3+3+3+3+3+3+3+3+3+3+3+3+3+3+3+3+3+3+3+3+3+3+3+3+3+3+3+3+3+3+3+3+3+3+3+3+3+3+3+3+3+3+3+3+3+3+4+5+6+7+8+9+f.+ @ ) { 7 5 d 2 | a b b c j A  .s.w p W V 0+H :+_+a+",
"b+b+b+b+b+b+b+b+b+*.*.*.$.Q K J I H u c+m B 2.b b a | 2 < d./ ! ' ' d+e+f+=+g+h+i+j+j+j+j+j+j+j+j+j+j+j+j+j+j+j+j+j+j+j+j+j+j+j+j+j+j+j+j+j+j+j+j+j+j+j+j+j+j+j+j+j+j+j+j+j+j+j+j+j+j+i+k+l+m+n+o+$+@ % ] 8 e 4 [ i.a b ,.Y z >.W 0+p+(+q+K Q $.*.*.*.*.*.b+b+b+",
"(.(.(.(.(.(.(.(.(.(.(.(.(.(.:.:.(.(.r+s+t+u+v+4.s.A ,.c b a | 2 h e e.w+% $+[+x+y+z+A+B+C+C+C+C+C+C+C+C+C+C+C+C+C+C+C+C+C+C+C+C+C+C+C+C+C+C+C+C+C+C+C+C+C+C+C+C+C+C+C+C+C+C+C+C+i+D+E+F+G+%+g.' ] 8 e h 2 | b c j z H+I+{.J+K+s+/.r+(.:.:.:.L+(.(.(.(.(.(.(.(.(.",
":.:.:.:.:.:.:.:.:.:.:.:.:.:.:.:.:.:.:.:.:.:._.M+[.N+O+++>.l j b b a | [ : 7 ! ' ' d+P+Q+R+S+T+C+U+U+U+U+U+U+U+U+U+U+U+U+U+U+U+U+U+U+U+U+U+U+U+U+U+U+U+U+U+U+U+U+U+U+U+U+U+V+W+X+Y+8+Z+@ + ) / : [ | a b j `+X  @.@+@@@<.:.:.:.:.:.:.:.:.:.:.:.:.:.:.:.:.:.:.:.:.",
"n.n.n.n.n.n.n.n.n.n.n.n.n.n.n.n.n.n.n.n.n.n.n.n.n.#@0.m.a.$@%@I+s.Y #+b b | 2 h e ` $ ' $+&@G+F+*@=@-@;@>@>@>@>@>@,@,@,@,@,@,@,@>@>@>@>@>@>@>@>@>@>@>@>@>@>@>@>@>@'@)@!@~@{@]@^@= & @ # e /@| a c j  .4.%@b.(@_@0.n.n.n.n.n.n.n.n.n.n.n.n.n.n.n.n.n.n.n.n.n.n.n.",
"B.B.B.B.B.B.B.B.B.B.B.B.B.B.B.B.B.B.B.B.B.B.B.B.B.B.B.B.B.:@n._@7.l.<@j.`+j b b 1 } d : ).# ) f.[@o+}@|@1@2@3@4@5@6@1@7@8@7@1@6@9@0@a@b@c@d@e@'@f@g@g@g@g@'@d@h@i@j@G+%+f.& * + ] 7 Z 2 1 b j k@++x.y._@n.B.B.B.B.B.B.B.B.B.B.B.B.B.B.B.B.B.B.B.B.B.B.B.B.B.B.B.",
"l@l@l@l@l@l@l@l@l@l@l@l@l@l@l@l@l@l@l@l@l@l@l@l@l@l@l@l@l@l@l@l@L.L.m@z.n@E.w.o@l 2.b a | [ d.S.# p@- % $+Z+d+Z+$+g.) ' ' ' w+w+$+Z+9+q@r@s@t@u@v@w@x@y@z@A@t@B@g.= ; ; = ] S.: 0 | b c l C@D@E@K.m@L.l@l@l@l@l@l@l@l@l@l@l@l@l@l@l@l@l@l@l@l@l@l@l@l@l@l@l@l@l@",
"M.M.M.M.M.M.M.M.M.M.M.M.M.M.M.M.M.M.M.M.M.M.M.M.M.M.M.M.M.M.M.M.M.M.M.M.M.L.F@n@G@H@I@_ S.{ ] @ = = @ % ) ] ~ e./ / D ).).)./ / 8 { ! ] ' @ + + = = J@J@@ = & & & @ ! 7 Z 0 1 b c Y I.K@L@1+M@M.M.M.M.M.M.M.M.M.M.M.M.M.M.M.M.M.M.M.M.M.M.M.M.M.M.M.M.M.M.M.M.M.",
"N@N@N@N@N@N@N@N@N@N@N@N@N@N@N@N@N@N@N@N@N@N@N@N@N@N@N@N@N@N@N@N@N@N@2+O@P@Q@R@n+S@T@w+@ @ ) ~ / ( 5 h d [ 2 } | 1 1 a a a 1 1 1 | | } 2 0 d < : _ 7 8 # w+@ & ; & + @ ! D 6 < U@j.V@W@O@2+N@N@N@N@N@N@N@N@N@N@N@N@N@N@N@N@N@N@N@N@N@N@N@N@N@N@N@N@N@N@N@N@N@N@N@",
",+,+,+,+,+,+,+,+,+,+,+,+,+,+,+,+,+,+,+,+,+,+,+,+,+,+,+,+,+,+,+X@Y@|+R@Z@`@ #f.@ ) ~ )._ h [ i.| a b b b b b b b c C C C C C C C c c b b b b b b a a | i.0 < : e / ! ' = & & % d+.#7+6++#;+2+,+,+,+,+,+,+,+,+,+,+,+,+,+,+,+,+,+,+,+,+,+,+,+,+,+,+,+,+,+,+,+,+,+,+",
"@#@#@#@#@#@#@#@#@#@#@#@#@#@#@#@#@#@#@#@#@#@#@#@#@#@#@###$#l+%#f+e+d+) ' $ e.( 4 [ } | b b b c #+j B z F w p &#r *#=#-#-#-#-#-#-#=#;#r >#,#p w '#F )#k j j c b a | } d 4 e / ! % + = $+!#~#{+{#]#^#/#@#@#@#@#@#@#@#@#@#@#@#@#@#@#@#@#@#@#@#@#@#@#@#@#@#@#@#@#@#@#",
"j+j+j+j+j+j+j+j+j+j+j+j+j+j+j+j+j+j+j+j+j+j+j+j+^#(#*@_#:#&@$+' ) e.( Z [ | a b b c ,.l !.w &#-#a+<#[#}#|#N 1#1#2#2#2#2#2#2#2#2#2#2#1#1#N N 3#4#}#5#<#6#:+t p >.y A j b b | 2 /@5 ).~ ' = ' d+8+7#8#9#0#a#j+j+j+j+j+j+j+j+j+j+j+j+j+j+j+j+j+j+j+j+j+j+j+j+j+j+j+",
"b#b#b#b#b#b#b#b#b#b#b#b#b#b#b#b#b#b#b#b#j+c#d#e#f#s@g#' ' ! ).5 d | a b b c B m X V h#J 4#i#O j#b+b+b+b+b+b+b+b+b+b+b+b+b+b+b+b+b+b+b+b+b+b+b+b+b+b+b+b+b+k#O =.l#S I +.m#F l ,.b 1 i.d 5 7 ~ ' ' [@`@v@n#d#c#j+b#b#b#b#b#b#b#b#b#b#b#b#b#b#b#b#b#b#b#b#b#b#b#b#",
"U+U+U+U+U+U+U+U+U+U+U+U+U+o#o#U+p#V+q#r#s#x+t#$+' ) { e h 2 | b b 2.Y  .u#-.v#w#$.%.(.L+x#y#y#y#y#y#y#y#y#y#y#y#y#y#y#y#y#y#y#y#y#y#y#y#y#y#y#y#y#y#y#y#y#y#y#y#L+L+(.%.$.t+z#A#W F Y 2.b 1 } < 6 ~ @ = g.&@x+B#C#D#E#U+o#o#U+U+U+U+U+U+U+U+U+U+U+U+U+U+U+U+U+U+",
"F#F#F#F#F#F#F#F#F#G#>@>@H#'@I#J#K#L#s@Z+' % ! ).M#d | a b c j m ..+.v#N#/.8.:.:.O#O#O#O#O#O#O#O#O#O#O#O#O#O#O#O#O#O#O#O#O#O#O#O#O#O#O#O#O#O#O#O#O#O#O#O#O#O#O#O#O#O#O#O#O#:.:.:.M+^.J+-...P#,.b a t.4 7 $ + & Q#9+R#S#*@=@E#H#>@>@G#F#F#F#F#F#F#F#F#F#F#F#F#F#F#",
"T#T#T#T#T#T#U#T#V#W#X#Y#Z#`# $.$f.J@) 8 e h 2 | b b j l >.r.+$b.@$#$#@n.n.n.n.n.n.n.n.n.n.n.n.n.n.n.n.n.n.n.n.n.n.n.n.n.n.n.n.n.n.n.n.n.n.n.n.n.n.n.n.n.n.n.n.n.n.n.n.n.n.n.n.n.n.n.#@_@a.6.<@C@l 2.b | d d.8 ' & * = [@$$%$&$*$=$W#-$T#U#T#T#T#T#T#T#T#T#T#T#T#",
";$;$>$,$'$)$!$~${$]$]@d+) @ ) { G.Z [ | a b c ,.k@^$5./$($D.B._$_$_$_$_$_$_$_$_$_$_$_$_$_$_$_$_$_$_$_$_$_$_$_$_$_$_$_$_$_$_$_$_$_$_$_$_$_$_$_$_$_$_$_$_$_$_$_$_$_$_$_$_$_$_$_$_$_$_$_$_$_$_$:$<$[$K@o@@+b b i./@g 8 ) & * ; J@g#}$]${$|$1$2$3$4$5$6$;$;$;$;$;$;$",
"7$8$u@R#$$9$, ' @ ' ) { G.: d i.a b b ,.l o@0$a$b$K.c$d$d$e$e$e$e$e$e$e$e$e$e$e$e$e$e$e$e$e$e$e$e$e$e$e$e$e$e$e$e$e$e$e$e$e$e$e$e$e$e$e$e$e$e$e$e$e$e$e$e$e$e$e$e$e$e$e$e$e$e$e$e$e$e$e$e$e$e$d$L.f$J.E.++k@,.c a | d d.).! ' = & & & @ w+d+g$h$R#u@]$i$j$j$j$i$",
"= = @ ' $ # 8 7 d.h 0 i.1 b b 2.Y k$l$m$n$1+O@M.Z.Z.Z.Z.Z.Z.Z.Z.Z.Z.Z.Z.Z.Z.Z.Z.Z.Z.Z.Z.Z.Z.Z.Z.Z.Z.Z.Z.Z.Z.Z.Z.Z.Z.Z.Z.Z.Z.Z.Z.Z.Z.Z.Z.Z.Z.Z.Z.Z.Z.Z.Z.Z.Z.Z.Z.Z.Z.Z.Z.Z.Z.Z.Z.Z.Z.Z.Z.Z.Z.Z.Z.Z.Z.Z.M.f$o$p$^$q$r$c b 1 } [ Z e ).` ~ ] ) % = & + = s$s$s$= = ",
"< t$d d 2 } 1 a b b b 2.l 3.^$u$v$w$x$'+,+,+,+,+,+,+,+,+,+,+,+,+,+,+,+,+,+,+,+,+,+,+,+,+,+,+,+,+,+,+,+,+,+,+,+,+,+,+,+,+,+,+,+,+,+,+,+,+,+,+,+,+,+,+,+,+,+,+,+,+,+,+,+,+,+,+,+,+,+,+,+,+,+,+,+,+,+,+,+,+,+,+2+;+y$z$A$o@l 2.c b b b 1 } 2 [ d d < < < h h h h < ",
"b b b b b c ,.Y q$B$C$D$E$F$G$##i+/#/#/#/#/#/#/#/#/#/#/#/#/#/#/#/#/#/#/#/#/#/#/#/#/#/#/#/#/#/#/#/#/#/#/#/#/#/#/#/#/#/#/#/#/#/#/#/#/#/#/#/#/#/#/#/#/#/#/#/#/#/#/#/#/#/#/#/#/#/#/#/#/#/#/#/#/#/#/#/#/#/#/#/#/#/#/#/###H$I$J$K$L$M$N$O$Y ,.c b b b b b b b b b b b ",
"B$P$Q$l$C$R$S$T$U$V$W$@#j+X$X$X$X$X$X$X$X$X$X$X$X$X$X$X$X$X$X$X$X$X$X$X$X$X$X$X$X$X$X$X$X$X$X$X$X$X$X$X$X$X$X$X$X$X$X$X$X$X$X$X$X$X$X$X$X$X$X$X$X$X$X$X$X$X$X$X$X$X$X$X$X$X$X$X$X$X$X$X$X$X$X$X$X$X$X$X$X$X$X$X$X$X$X$X$X$j+Y$G$Z$`$ %.%R$+%@%l$^$#%P$B$B$B$B$B$",
"$%$%T+%%B+C+b#U+U+b#b#b#b#b#b#b#b#b#b#b#b#b#b#b#b#b#b#b#b#b#b#b#b#b#b#b#b#b#b#b#b#b#b#b#b#b#b#b#b#b#b#b#b#b#b#b#b#b#b#b#b#b#b#b#b#b#b#b#b#b#b#b#b#b#b#b#b#b#b#b#b#b#b#b#b#b#b#b#b#b#b#b#b#b#b#b#b#b#b#b#b#b#b#b#b#b#b#b#b#b#b#b#U+U+U+C+C+&%B+Y$%%*%$%=%=%=%=%=%",
"H#H#H#H#H#H#H#H#H#H#H#H#H#H#H#H#H#H#H#H#H#H#H#H#H#H#H#H#H#H#H#H#H#H#H#H#H#H#H#H#H#H#H#H#H#H#H#H#H#H#H#H#H#H#H#H#H#H#H#H#H#H#H#H#H#H#H#H#H#H#H#H#H#H#H#H#H#H#H#H#H#H#H#H#H#H#H#H#H#H#H#H#H#H#H#H#H#H#H#H#H#H#H#H#H#H#H#H#H#H#H#H#H#H#H#H#H#H#H#H#H#H#H#H#H#H#H#H#"};
